<?xml version="1.0" encoding="iso-8859-1"?>
<!-- Generator: Adobe Illustrator 16.0.0, SVG Export Plug-In . SVG Version: 6.00 Build 0)  -->
<!DOCTYPE svg PUBLIC "-//W3C//DTD SVG 1.1//EN" "http://www.w3.org/Graphics/SVG/1.1/DTD/svg11.dtd">
<svg version="1.1" id="Capa_1" xmlns="http://www.w3.org/2000/svg" xmlns:xlink="http://www.w3.org/1999/xlink" x="0px" y="0px"
	  viewBox="0 0 162.202 162.202" fill="#D44266"
	 xml:space="preserve">
<g>
	<path d="M145.716,88.858c0.036,0,0,2.339-1.954,4.409c-1.419,1.491-3.398,2.411-5.913,2.733c0.006,0.146,0.024,0.329,0.055,0.549
		l0.104,5.79c-0.085,0.792-0.438,2.734-2.618,4.293c0.396,1.571,0.335,4.062-1.973,7.295c-1.169,1.571-1.65,2.21-1.157,3.97
		c0.433,2.303,1.34,9-2.441,11.716c-1.407,1.291-5.986,4.226-17.641,2.765l-1.735-0.244c-5.078-0.767-9.518-1.113-12.343,2.424
		c-3.939,7.611-10.918,21.714-11.493,25.051c-0.256,1.522-1.577,2.594-3.06,2.594c-0.177,0-0.356-0.012-0.524-0.036
		c-1.696-0.292-2.844-1.899-2.558-3.593c0.898-5.297,10.525-23.76,12.44-27.407c5.597-7.13,13.646-5.906,18.463-5.188l1.577,0.226
		c9.858,1.181,12.641-1.17,12.671-1.176c0.214-0.268,0.329-0.329,0.621-0.499c0.262-0.47,0.335-3.179-0.042-5.213
		c-1.255-4.433,0.81-7.203,1.924-8.701c0.975-1.364,1.193-2.095,1.212-2.375c-1.455-2.21-0.944-4.292,0.17-5.431
		c0.348-0.366,0.773-0.621,1.23-0.768c0.548-0.177,0.877-0.378,1.054-0.493L131.687,97c-0.292-2.095,0.079-4.019,1.126-5.383
		c1.029-1.327,2.309-1.632,2.808-1.687c1.899-0.049,3.1-0.384,3.617-0.932c0-0.146,0.273-0.682,0.292-0.847
		c-0.243-1.264-4.067-8.829-7.489-14.852c-3.41-6.546-1.054-11.417,0.511-14.641c0.493-1.02,1.005-2.077,1.06-2.691
		c1.718-17.795-5.182-27.611-11.387-34.164C110.101,8.972,94.628,6.229,83.612,6.229c-0.167,0-0.334,0-0.505,0
		c-28.239,0.204-38.812,9.383-46.509,17.975C19.832,42.916,22.864,58.885,22.995,59.563c0.387,8.382,10.543,23.413,14.434,28.547
		c12.556,18.035,6.54,32.138,6.278,32.734c-0.703,1.571-2.563,2.29-4.107,1.584c-1.574-0.683-2.283-2.521-1.598-4.092
		c0.213-0.512,4.746-11.68-5.611-26.562c-1.477-1.948-15.101-20.228-15.564-31.438c-0.101-0.262-3.891-19.065,15.135-40.292
		C41.177,9.764,53.739,0.21,83.059,0c12.501,0.131,29.837,2.874,43.695,17.527c7.118,7.505,15.034,18.736,13.08,39.044
		c-0.165,1.726-0.92,3.294-1.669,4.807c-1.37,2.832-2.545,5.276-0.646,8.948C146.124,85.449,145.825,87.927,145.716,88.858z
		 M81.844,56.516c-2.189,0-3.885,1.495-6.491,3.927c-2.408,2.244-5.407,5.051-9.529,6.823c-0.21,0.091-0.436,0.155-0.655,0.244
		c-0.329,3.042-2.213,12.799-13.156,17.893c-0.423,0.201-0.874,0.295-1.315,0.295c-1.172,0-2.296-0.657-2.826-1.802
		c-0.728-1.559-0.048-3.419,1.51-4.141c5.779-2.694,8.092-7.158,9.015-10.184c-2.226,0.457-4.439,0.712-6.546,0.712c0,0,0,0-0.006,0
		c-6.26,0-11.351-2.003-14.724-5.806c-3.626-4.083-5.024-9.9-4.138-17.278c2.101-17.695,21.099-32.279,44.183-33.919
		c23.264-1.571,41.872,8.324,44.155,23.102c0.884,5.718-0.183,10.37-3.166,13.841c-5.553,6.485-17.299,8.488-36.258,6.293
		C81.88,56.516,81.862,56.516,81.844,56.516z M82.617,50.312c5.057,0.594,9.483,0.815,13.393,0.773c0.007-0.019,0-0.037,0.007-0.055
		c0.676-2.295,1.521-7.751-0.207-9.965c-0.238-0.298-0.932-1.224-3.416-1.111c-0.049,0.006-0.104,0.006-0.135,0.006
		c-1.668,0-3.032-1.303-3.114-2.987c-0.082-1.714,1.248-3.179,2.98-3.249c4.549-0.241,7.271,1.778,8.616,3.504
		c3.124,4.01,2.454,10.185,1.784,13.457c5.243-0.691,8.927-2.207,10.912-4.533c1.76-2.058,2.326-4.944,1.723-8.835
		C113.553,26.893,99.67,19.32,82.136,19.32c-1.482,0-2.986,0.058-4.521,0.165c-9.365,0.66-17.863,3.727-24.548,8.229
		c1.504,0.201,3.011,0.6,4.427,1.415c3.647,2.089,5.73,5.998,6.174,11.609c0.137,1.717-1.142,3.224-2.856,3.355
		c-0.088,0.006-0.167,0.012-0.255,0.012c-1.611,0-2.975-1.233-3.1-2.868c-0.274-3.434-1.303-5.684-3.047-6.695
		c-2.902-1.671-7.603-0.176-9.542,0.667c-3.054,3.846-5.151,8.123-5.699,12.708c-0.655,5.529,0.225,9.7,2.618,12.395
		c2.725,3.063,6.972,3.712,10.065,3.712c3.641,0,7.724-0.898,11.508-2.515c3.124-1.346,5.471-3.529,7.733-5.642
		C74.324,52.887,77.679,49.757,82.617,50.312z"/>
</g>
</svg>
