<?xml version="1.0" encoding="iso-8859-1"?>
<!-- Generator: Adobe Illustrator 18.0.0, SVG Export Plug-In . SVG Version: 6.00 Build 0)  -->
<!DOCTYPE svg PUBLIC "-//W3C//DTD SVG 1.1//EN" "http://www.w3.org/Graphics/SVG/1.1/DTD/svg11.dtd">
<svg version="1.1" id="Capa_1" xmlns="http://www.w3.org/2000/svg" xmlns:xlink="http://www.w3.org/1999/xlink" x="0px" y="0px"
	 viewBox="0 0 293.999 293.999" fill="#AAD442" xml:space="preserve">
<g>
	<path d="M63.607,114h22.326v22.326c0,8.284,6.716,15,15,15s15-6.716,15-15V114h22.326c8.284,0,15-6.716,15-15s-6.716-15-15-15
		h-22.326V61.674c0-8.284-6.716-15-15-15s-15,6.716-15,15V84H63.607c-8.284,0-15,6.716-15,15S55.323,114,63.607,114z"/>
	<path d="M261.04,0H32.958C14.785,0,0,14.785,0,32.959v228.082c0,18.173,14.785,32.958,32.958,32.958H261.04
		c18.174,0,32.959-14.785,32.959-32.958V32.959C293.999,14.785,279.214,0,261.04,0z M30,32.959C30,31.327,31.327,30,32.958,30
		H261.04c0.816,0,1.556,0.332,2.092,0.867L30.867,263.132c-0.535-0.536-0.867-1.275-0.867-2.091V32.959z M234.392,224.998h-74.652
		c-8.284,0-15-6.716-15-15c0-8.284,6.716-15,15-15h74.652c8.284,0,15,6.716,15,15C249.392,218.282,242.676,224.998,234.392,224.998z
		"/>
</g>
</svg>
