<?xml version="1.0" encoding="UTF-8" standalone="no"?>
<!-- Created with Inkscape (http://www.inkscape.org/) -->

<svg
   xmlns:osb="http://www.openswatchbook.org/uri/2009/osb"
   xmlns:dc="http://purl.org/dc/elements/1.1/"
   xmlns:cc="http://creativecommons.org/ns#"
   xmlns:rdf="http://www.w3.org/1999/02/22-rdf-syntax-ns#"
   xmlns:svg="http://www.w3.org/2000/svg"
   xmlns="http://www.w3.org/2000/svg"
   xmlns:xlink="http://www.w3.org/1999/xlink"
   xmlns:sodipodi="http://sodipodi.sourceforge.net/DTD/sodipodi-0.dtd"
   xmlns:inkscape="http://www.inkscape.org/namespaces/inkscape"
   id="svg3079"
   version="1.1"
   inkscape:version="0.91 r13725"
   viewBox="0 0 400 100"
   sodipodi:docname="page19.svg">
  <metadata
     id="metadata3085">
    <rdf:RDF>
      <cc:Work
         rdf:about="">
        <dc:format>image/svg+xml</dc:format>
        <dc:type
           rdf:resource="http://purl.org/dc/dcmitype/StillImage" />
        <dc:title />
      </cc:Work>
    </rdf:RDF>
  </metadata>
  <defs
     id="defs3083">
    <inkscape:path-effect
       effect="spiro"
       id="path-effect5415"
       is_visible="true" />
    <inkscape:path-effect
       effect="spiro"
       id="path-effect5411"
       is_visible="true" />
    <inkscape:path-effect
       effect="spiro"
       id="path-effect5407"
       is_visible="true" />
    <inkscape:path-effect
       effect="spiro"
       id="path-effect5403"
       is_visible="true" />
    <inkscape:path-effect
       effect="spiro"
       id="path-effect5399"
       is_visible="true" />
    <inkscape:path-effect
       effect="spiro"
       id="path-effect5395"
       is_visible="true" />
    <inkscape:path-effect
       effect="spiro"
       id="path-effect5391"
       is_visible="true" />
    <inkscape:path-effect
       effect="spiro"
       id="path-effect5387"
       is_visible="true" />
    <inkscape:path-effect
       effect="spiro"
       id="path-effect5383"
       is_visible="true" />
    <inkscape:path-effect
       effect="spiro"
       id="path-effect5379"
       is_visible="true" />
    <inkscape:path-effect
       effect="spiro"
       id="path-effect5375"
       is_visible="true" />
    <inkscape:path-effect
       effect="spiro"
       id="path-effect5359"
       is_visible="true" />
    <linearGradient
       id="linearGradient5349"
       osb:paint="solid">
      <stop
         style="stop-color:#000000;stop-opacity:1;"
         offset="0"
         id="stop5351" />
    </linearGradient>
    <linearGradient
       id="linearGradient3859"
       osb:paint="solid">
      <stop
         style="stop-color:#000000;stop-opacity:1;"
         offset="0"
         id="stop3861" />
    </linearGradient>
    <linearGradient
       inkscape:collect="always"
       xlink:href="#linearGradient5349"
       id="linearGradient5353"
       x1="191.03448"
       y1="197.24138"
       x2="202.41379"
       y2="197.24138"
       gradientUnits="userSpaceOnUse"
       gradientTransform="translate(-129.65517,-174.48276)" />
  </defs>
  <sodipodi:namedview
     pagecolor="#ffffff"
     bordercolor="#666666"
     borderopacity="1"
     objecttolerance="10"
     gridtolerance="10"
     guidetolerance="10"
     inkscape:pageopacity="0"
     inkscape:pageshadow="2"
     inkscape:window-width="1366"
     inkscape:window-height="768"
     id="namedview3081"
     showgrid="false"
     showguides="true"
     inkscape:guide-bbox="true"
     inkscape:zoom="0.725"
     inkscape:cx="479.11097"
     inkscape:cy="107.73411"
     inkscape:window-x="0"
     inkscape:window-y="0"
     inkscape:window-maximized="0"
     inkscape:current-layer="svg3079" />
  <path
     style="fill:none;stroke:#000000;stroke-width:1px;stroke-linecap:butt;stroke-linejoin:miter;stroke-opacity:1"
     d="M 52.068968,57.93103 C 31.238808,60.8565 -9.0466619,96.60477 89.999998,95.86207 133.0038,97.03312 167.16681,70.92897 122.4138,58.27586 l 0.34482,0.34483"
     id="path3865"
     inkscape:connector-curvature="0"
     sodipodi:nodetypes="cccc" />
  <path
     style="fill:none;stroke:#000000;stroke-width:1px;stroke-linecap:butt;stroke-linejoin:miter;stroke-opacity:1"
     d="m 120.68966,34.13793 1.03448,45.51724"
     id="path3873"
     inkscape:connector-curvature="0" />
  <path
     style="fill:none;stroke:#000000;stroke-width:1px;stroke-linecap:butt;stroke-linejoin:miter;stroke-opacity:1"
     d="m 51.724138,33.10345 0.68966,45.17241 0,0 69.655172,1.37931 0,0"
     id="path3877"
     inkscape:connector-curvature="0" />
  <path
     style="fill:none;stroke:#000000;stroke-width:1px;stroke-linecap:butt;stroke-linejoin:miter;stroke-opacity:1"
     d="M 52.068968,45.51724 C 118.16803,34.24111 -0.85895286,75.23382 120.34483,44.82758 l 1.37931,3.44828"
     id="path3879"
     inkscape:connector-curvature="0"
     sodipodi:nodetypes="ccc" />
  <path
     style="fill:none;stroke:#000000;stroke-width:1px;stroke-linecap:butt;stroke-linejoin:miter;stroke-opacity:1"
     d="m 51.379308,30.68965 c 4.67211,-1.76255 7.89032,-4.23329 11.39381,-1.56617 3.51105,2.67288 8.20108,2.20952 10.33033,-2.22693 2.19337,-0.50926 2.05603,-2.57233 9.32289,0.30074 6.33226,4.75655 9.34039,2.86483 12.05642,0.38892 3.92686,-2.12542 7.548052,-3.33381 9.655172,0 3.90805,3.67816 7.81609,3.67816 11.72414,0 3.13006,2.44833 9.74263,3.94689 3.44828,8.96551 -3.20976,-1.6926 -6.41952,-1.93727 -9.62929,1.85829 -2.70684,2.23273 -5.51471,4.21291 -10.025882,1.93482 -2.68894,-2.94865 -5.48816,-5.45619 -9.98223,-1.18434 -6.19974,2.88483 -8.7191,1.3532 -10.3626,-1.22946 -3.21364,-4.8495 -6.42728,-2.97449 -9.64091,0.37081 -2.08596,2.81597 -4.39044,4.75783 -8.29013,0.31885 0.17622,-3.73189 1.20886,-6.59605 -4.91442,-4.02844 -5.61796,0.94071 -5.82912,-1.20817 -5.08558,-3.9026 z"
     id="path3897"
     inkscape:connector-curvature="0"
     sodipodi:nodetypes="cscccccccccccccc" />
  <path
     style="fill:none;stroke:url(#linearGradient5353);stroke-width:1px;stroke-linecap:butt;stroke-linejoin:miter;stroke-opacity:1"
     d="m 61.379308,27.5862 c -0.58533,-1.28054 -0.16547,-7.04128 4.48276,-11.37931 2.49397,-2.9907 5.41104,7.90385 6.89655,13.10345 -3.7931,2.02807 -7.58621,3.47962 -11.37931,-1.72414 z"
     id="path3899"
     inkscape:connector-curvature="0"
     sodipodi:nodetypes="cccc" />
  <path
     style="fill:none;stroke:#000000;stroke-width:1px;stroke-linecap:butt;stroke-linejoin:miter;stroke-opacity:1"
     d="m 103.44828,26.89655 c 1.98606,-6.41809 6.84099,-10.52003 6.55172,-10 6.39955,-7.9766497 6.76855,7.60063 4.82759,12.75862 -4.58268,1.4492 -8.6283,1.28721 -11.37931,-2.75862 z"
     id="path3903"
     inkscape:connector-curvature="0"
     sodipodi:nodetypes="cccc" />
  <path
     style="fill:none;stroke:#000000;stroke-width:1px;stroke-linecap:butt;stroke-linejoin:miter;stroke-opacity:1"
     d="m 83.448278,26.89655 c 3.70959,3.03071 8.43232,5.60991 10.34482,-0.34483 1.54455,-3.91031 -1.18039,-21.3691797 -6.2069,-13.10345 -8.49894,12.79884 -4.60641,10.32914 -4.13792,13.44828 z"
     id="path5355"
     inkscape:connector-curvature="0"
     sodipodi:nodetypes="cccc" />
  <path
     style="fill:none;stroke:#000000;stroke-width:1px;stroke-linecap:butt;stroke-linejoin:miter;stroke-opacity:1"
     d="m 64.482758,34.82758 0.34483,-0.68966"
     id="path5373"
     inkscape:path-effect="#path-effect5375"
     inkscape:original-d="m 64.482758,34.82758 0.34483,-0.68966"
     inkscape:connector-curvature="0" />
  <path
     style="fill:none;stroke:#000000;stroke-width:1px;stroke-linecap:butt;stroke-linejoin:miter;stroke-opacity:1"
     d="m 97.241378,28.62069 c 0.04129,0.926762 0.156724,1.85021 0.34483,2.75862 0.09612,0.464204 0.211195,0.924484 0.34483,1.37931"
     id="path5377"
     inkscape:path-effect="#path-effect5379"
     inkscape:original-d="m 97.241378,28.62069 c 0.76425,0.82353 0.16538,1.86135 0.34483,2.75862 0.38118,1.90588 0.34483,0.42993 0.34483,1.37931"
     inkscape:connector-curvature="0" />
  <path
     style="fill:none;stroke:#000000;stroke-width:1px;stroke-linecap:butt;stroke-linejoin:miter;stroke-opacity:1"
     d="m 87.241378,34.48275 1.37931,1.37931"
     id="path5381"
     inkscape:path-effect="#path-effect5383"
     inkscape:original-d="m 87.241378,34.48275 c 0.45977,0.45977 0.91954,0.91954 1.37931,1.37931"
     inkscape:connector-curvature="0" />
  <path
     style="fill:none;stroke:#000000;stroke-width:1px;stroke-linecap:butt;stroke-linejoin:miter;stroke-opacity:1"
     d="m 117.24138,31.37931 c 0.037,0.628709 0.28285,1.243362 0.68966,1.72414 0.10512,0.124235 0.2206,0.239708 0.34483,0.34483"
     id="path5385"
     inkscape:path-effect="#path-effect5387"
     inkscape:original-d="m 117.24138,31.37931 c 1.76545,-0.31007 0.4606,1.26602 0.68966,1.72414 0.0727,0.14539 0.22988,0.22989 0.34483,0.34483"
     inkscape:connector-curvature="0" />
  <path
     style="fill:none;stroke:#000000;stroke-width:1px;stroke-linecap:butt;stroke-linejoin:miter;stroke-opacity:1"
     d="m 101.37931,33.44827 0,2.06896"
     id="path5389"
     inkscape:path-effect="#path-effect5391"
     inkscape:original-d="m 101.37931,33.44827 c 0.37671,1.88353 0.75926,1.30971 0,2.06896"
     inkscape:connector-curvature="0" />
  <path
     style="fill:none;stroke:#000000;stroke-width:1px;stroke-linecap:butt;stroke-linejoin:miter;stroke-opacity:1"
     d="m 55.862068,31.72413 1.03449,-2.06896"
     id="path5393"
     inkscape:path-effect="#path-effect5395"
     inkscape:original-d="m 55.862068,31.72413 1.03449,-2.06896"
     inkscape:connector-curvature="0" />
  <path
     style="fill:none;stroke:#000000;stroke-width:1px;stroke-linecap:butt;stroke-linejoin:miter;stroke-opacity:1"
     d="m 105.51725,32.41379 c 0.38082,0.101233 0.72738,0.327265 0.97354,0.634965 0.24616,0.3077 0.3906,0.695419 0.40577,1.089175 0.009,0.229885 -0.025,0.460954 0,0.68965 0.0468,0.428185 0.31238,0.826639 0.68965,1.03448"
     id="path5397"
     inkscape:path-effect="#path-effect5399"
     inkscape:original-d="m 105.51725,32.41379 c -0.36022,1.18083 1.05016,1.06585 1.37931,1.72414 0.1028,0.20561 -0.10281,0.48404 0,0.68965 0.28743,0.57488 0.68965,0.15581 0.68965,1.03448"
     inkscape:connector-curvature="0" />
  <path
     style="fill:none;stroke:#000000;stroke-width:1px;stroke-linecap:butt;stroke-linejoin:miter;stroke-opacity:1"
     d="m 81.724138,29.65517 1.37931,0.68965"
     id="path5401"
     inkscape:path-effect="#path-effect5403"
     inkscape:original-d="m 81.724138,29.65517 c 1.49082,0.3727 1.37931,-0.1291 1.37931,0.68965"
     inkscape:connector-curvature="0" />
  <path
     style="fill:none;stroke:#000000;stroke-width:1px;stroke-linecap:butt;stroke-linejoin:miter;stroke-opacity:1"
     d="m 92.068968,30 -0.68965,2.4138"
     id="path5405"
     inkscape:path-effect="#path-effect5407"
     inkscape:original-d="m 92.068968,30 c -0.37155,2.22931 0.14956,1.57458 -0.68965,2.4138"
     inkscape:connector-curvature="0" />
  <path
     style="fill:none;stroke:#000000;stroke-width:1px;stroke-linecap:butt;stroke-linejoin:miter;stroke-opacity:1"
     d="m 76.551718,27.24138 c 0.0087,0.477929 0.127589,0.953519 0.34483,1.37931 0.300403,0.588789 0.790521,1.078907 1.37931,1.37931"
     id="path5409"
     inkscape:path-effect="#path-effect5411"
     inkscape:original-d="m 76.551718,27.24138 c 0.11495,0.45977 0.16882,0.93928 0.34483,1.37931 0.0641,0.16019 1.35512,1.35511 1.37931,1.37931"
     inkscape:connector-curvature="0" />
  <path
     style="fill:none;stroke:#000000;stroke-width:1px;stroke-linecap:butt;stroke-linejoin:miter;stroke-opacity:1"
     d="m 82.068968,35.17241 c -0.180551,0.04514 -0.341409,0.164325 -0.437161,0.323911 -0.09575,0.159587 -0.125217,0.357608 -0.08008,0.538159 0.04514,0.180551 0.164325,0.341409 0.323911,0.437161 0.159587,0.09575 0.357608,0.125217 0.538159,0.08008 0.180551,-0.04514 0.341409,-0.164325 0.437161,-0.323911 0.09575,-0.159587 0.125217,-0.357608 0.08008,-0.538159 -0.04514,-0.180551 -0.164325,-0.341409 -0.323911,-0.437161 -0.159587,-0.09575 -0.357608,-0.125217 -0.538159,-0.08008 z"
     id="path5413"
     inkscape:path-effect="#path-effect5415"
     inkscape:original-d="m 82.068968,35.17241 c 0.11494,0.45977 0.8046,1.26437 0.34483,1.37931 -0.45977,0.11495 -0.22989,-0.91954 -0.34483,-1.37931 z"
     inkscape:connector-curvature="0" />
  <path
     style="fill:none;stroke:#000000;stroke-width:1px;stroke-linecap:butt;stroke-linejoin:miter;stroke-opacity:1"
     d="m 52.068968,38.27586 9.65517,-0.34483"
     id="path5425"
     inkscape:connector-curvature="0"
     sodipodi:nodetypes="cc" />
  <path
     style="fill:none;stroke:#000000;stroke-width:1px;stroke-linecap:butt;stroke-linejoin:miter;stroke-opacity:1"
     d="m 68.965518,38.62069 10,-0.34483"
     id="path5427"
     inkscape:connector-curvature="0" />
  <path
     style="fill:none;stroke:#000000;stroke-width:1px;stroke-linecap:butt;stroke-linejoin:miter;stroke-opacity:1"
     d="m 92.413798,37.93103 4.13793,0.34483"
     id="path5429"
     inkscape:connector-curvature="0" />
  <path
     style="fill:none;stroke:#000000;stroke-width:1px;stroke-linecap:butt;stroke-linejoin:miter;stroke-opacity:1"
     d="m 111.03449,38.27586 9.31034,-0.34483"
     id="path5431"
     inkscape:connector-curvature="0" />
  <text
     xml:space="preserve"
     style="font-size:20px;font-style:normal;font-variant:normal;font-weight:normal;font-stretch:normal;line-height:125%;letter-spacing:0px;word-spacing:0px;fill:#000000;fill-opacity:1;stroke:none;font-family:DejaVu Sans Mono;-inkscape-font-specification:DejaVu Sans Mono"
     x="155.86208"
     y="23.103432"
     id="text5753"
     sodipodi:linespacing="125%"><tspan
       sodipodi:role="line"
       id="tspan5755"
       x="155.86208"
       y="23.103432">like some good cake</tspan><tspan
       sodipodi:role="line"
       x="155.86208"
       y="48.103432"
       id="tspan5757">  receipe ≠ cake</tspan></text>
</svg>
