<?xml version="1.0" encoding="UTF-8" standalone="no"?>
<!-- Created with Inkscape (http://www.inkscape.org/) -->

<svg
   xmlns:dc="http://purl.org/dc/elements/1.1/"
   xmlns:cc="http://creativecommons.org/ns#"
   xmlns:rdf="http://www.w3.org/1999/02/22-rdf-syntax-ns#"
   xmlns:svg="http://www.w3.org/2000/svg"
   xmlns="http://www.w3.org/2000/svg"
   xmlns:sodipodi="http://sodipodi.sourceforge.net/DTD/sodipodi-0.dtd"
   xmlns:inkscape="http://www.inkscape.org/namespaces/inkscape"
   id="svg3253"
   version="1.1"
   inkscape:version="0.91 r13725"
   width="212"
   height="238"
   viewBox="0 0 212 238"
   sodipodi:docname="page14.svg">
  <metadata
     id="metadata3259">
    <rdf:RDF>
      <cc:Work
         rdf:about="">
        <dc:format>image/svg+xml</dc:format>
        <dc:type
           rdf:resource="http://purl.org/dc/dcmitype/StillImage" />
        <dc:title />
      </cc:Work>
    </rdf:RDF>
  </metadata>
  <defs
     id="defs3257" />
  <sodipodi:namedview
     pagecolor="#ffffff"
     bordercolor="#666666"
     borderopacity="1"
     objecttolerance="10"
     gridtolerance="10"
     guidetolerance="10"
     inkscape:pageopacity="0"
     inkscape:pageshadow="2"
     inkscape:window-width="1366"
     inkscape:window-height="768"
     id="namedview3255"
     showgrid="false"
     inkscape:zoom="0.24789916"
     inkscape:cx="-470.73726"
     inkscape:cy="650.53918"
     inkscape:window-x="0"
     inkscape:window-y="0"
     inkscape:window-maximized="0"
     inkscape:current-layer="svg3253" />
  <path
     style="fill:none;stroke:#000000;stroke-width:1px;stroke-linecap:butt;stroke-linejoin:miter;stroke-opacity:1"
     d="M 6.2396181,23.891961 C 7.6401479,4.4546201 22.163602,16.556529 21.110271,24.039648 z"
     id="path4033"
     inkscape:connector-curvature="0"
     sodipodi:nodetypes="ccc" />
  <path
     style="fill:none;stroke:#000000;stroke-width:1px;stroke-linecap:butt;stroke-linejoin:miter;stroke-opacity:1"
     d="M 7.8440913,121.40828 18.54058,77.909227 l 3.565496,3.208946 c -1.504128,-7.421948 1.469554,-16.3365 2.495847,-24.601922 l 2.852397,-16.044733 -1.069649,-2.852397 4.278595,-2.852396 -4.278595,-0.7131 -2.139298,-4.635145 1.069649,-4.991694 C 30.04603,22.572467 33.770641,21.053614 35.654961,20.148191 32.089465,19.45913 28.523968,19.538977 24.958472,19.791641 L 24.601923,8.0255041 C 8.0177808,-9.6617503 0.33783918,11.817957 2.1392976,21.930939 5.2700473,41.199323 13.680939,43.128397 21.306463,31.662209 l -0.208862,-0.252118 0.417724,0.190944 -0.147687,-0.504237"
     id="path4041"
     inkscape:connector-curvature="0"
     sodipodi:nodetypes="cccccccccccccccccc" />
  <path
     style="fill:none;stroke:#000000;stroke-width:1px;stroke-linecap:butt;stroke-linejoin:miter;stroke-opacity:1"
     d="m 11.409587,38.68877 14.975084,0.35655"
     id="path4043"
     inkscape:connector-curvature="0" />
  <path
     style="fill:none;stroke:#000000;stroke-width:1px;stroke-linecap:butt;stroke-linejoin:miter;stroke-opacity:1"
     d="m 20.931997,23.756943 c 2.868395,2.764359 -2.09493,12.040095 0.687759,7.235423 l 0,0.504238"
     id="path4045"
     inkscape:connector-curvature="0"
     sodipodi:nodetypes="ccc" />
  <path
     style="fill:none;stroke:#000000;stroke-width:1px;stroke-linecap:butt;stroke-linejoin:miter;stroke-opacity:1"
     d="M 12.353814,0.75635568 C 55.935398,3.9325655 82.460342,5.2239201 132.80535,2.7300481 189.80596,3.0477202 173.68676,2.3498233 193.62712,2.5211862 l 0,-0.2521187 c 0.4202,0.2521187 0.85286,0.484536 1.26059,0.756356 0.31155,0.2076959 0.25212,0.2067002 0.25212,0.5042373 0,0.08404 0.0376,0.1769514 0,0.2521186 -0.0531,0.1063026 -0.19897,0.1458161 -0.25212,0.2521187 -0.096,0.1920904 0.0764,0.4456655 0.25212,0.5042372 0.0475,0.015823 1.4815,0.010405 1.51271,0 0.17828,-0.059425 0.32597,-0.1926937 0.50424,-0.2521186 0.14605,-0.048682 0.78999,0 1.00847,0 0.16808,0 0.33616,0 0.50424,0 0.084,0 0.25212,-0.08404 0.25212,0 0,0.08404 -0.33616,0 -0.25212,0 0.16808,0 0.33616,0 0.50424,0 0.084,0 0.17695,-0.037584 0.25212,0 0.1063,0.053151 0.21453,0.1393678 0.25212,0.2521186 0.0385,0.1154109 0,1.1198715 0,1.2605933 0,0.08404 0.084,0.2521186 0,0.2521186 -0.084,0 0,-0.3361582 0,-0.2521186 0,0.2521186 0,0.5042373 0,0.7563559 0,0.084039 0.084,0.2521186 0,0.2521186 -0.084,0 0,-0.3361581 0,-0.2521186 0,0.2521186 0,0.5042373 0,0.7563559 0,0.08404 -0.0376,0.1769514 0,0.2521187 0.0532,0.1063025 0.19896,0.1458161 0.25211,0.2521186 0.17389,0.3477617 -0.30532,0.2255132 0.25212,0.5042373 0.0752,0.037584 0.16808,0 0.25212,0 0.16808,0 0.34479,-0.053151 0.50424,0 0.11275,0.037584 0.13937,0.214535 0.25212,0.2521187 0.15945,0.053151 0.33616,0 0.50424,0 0.084,0 0.25211,-0.08404 0.25211,0 0,0.084039 -0.16807,0 -0.25211,0 0.16807,0.084039 0.37135,0.1192404 0.50423,0.2521186 0.0594,0.059425 0,0.1680791 0,0.2521186 0,0.1680791 0,0.3361582 0,0.5042373 0,0.08404 0,0.1680791 0,0.2521187 0,1.7816381 0,-1.672387 0,0.7563561 0,0.168079 0,0.336158 0,0.504237 0,0.08404 -0.0376,0.176951 0,0.252119 0.23978,0.479561 0.61699,0.121622 1.00848,0.252118 0.2255,0.07517 0.29163,0.397935 0.50423,0.504238 0.003,0.0014 0.71328,-0.06145 0.50424,0.252118 -0.16808,0.252119 -0.51395,0.322432 -0.75635,0.504238 -0.0951,0.07131 -0.14582,0.198967 -0.25212,0.252118 -0.15034,0.07517 -0.35391,-0.07517 -0.50424,0 -0.21261,0.106303 -0.29163,0.397935 -0.50424,0.504238 -0.0752,0.03758 -0.16808,0 -0.25212,0 -0.16807,0 -0.34478,-0.05315 -0.50423,0 -0.11275,0.03758 -0.19897,0.145816 -0.25212,0.252118 -0.0376,0.07517 0.084,0.252119 0,0.252119 -0.084,0 0,-0.336158 0,-0.252119 0,0.420198 0,0.840396 0,1.260593 0,0.140722 -0.0385,1.145183 0,1.260594 0.10385,0.311543 0.28013,0.252118 0.50424,0.252118 0.084,0 0.17695,0.03758 0.25211,0 0.10631,-0.05315 0.14582,-0.198967 0.25212,-0.252118 0.0752,-0.03758 0.1822,0.04662 0.25212,0 0.19778,-0.131852 0.30646,-0.372386 0.50424,-0.504238 0.13985,-0.09323 0.3539,0.07517 0.50424,0 0.83617,-0.836172 -0.2377,0.11885 0.50423,-0.252118 0.21261,-0.106303 0.29164,-0.397935 0.50424,-0.504238 0.0752,-0.03758 0.16808,0 0.25212,0 0.084,0 0.17695,-0.03758 0.25212,0 0.55745,0.278725 0.0782,0.156476 0.25212,0.504238 0.40279,0.805594 0.10144,-0.301357 0.50423,0.504237 0.0376,0.07517 -0.0376,0.176951 0,0.252119 0.0241,0.04826 0.96022,0.984344 1.00848,1.008474 0.34776,0.173881 0.22551,-0.305329 0.50424,0.252119 0.0376,0.07517 -0.0376,0.176951 0,0.252118 0.25534,0.510684 0.75635,-0.0447 0.75635,0.756356 0,0.08404 -0.0376,0.176952 0,0.252119 0.0531,0.106303 0.25212,0.370969 0.25212,0.252119 0,-0.187918 -0.25212,-0.692156 -0.25212,-0.504238 0,0.265757 0.18766,0.498535 0.25212,0.756356 0.0204,0.08153 0.084,0.252119 0,0.252119 -0.084,0 0,-0.336158 0,-0.252119 0,0.04372 0.0262,1.71247 0,1.764831 -0.0531,0.106302 -0.19897,0.145816 -0.25212,0.252119 -0.0752,0.150334 0.16808,0.504237 0,0.504237 -0.084,0 -0.0594,-0.311544 0,-0.252119 0.13288,0.132878 0.1927,0.325963 0.25212,0.504237 0.0266,0.07973 0,0.16808 0,0.252119 0,0.08404 0.084,0.252119 0,0.252119 -0.084,0 0,-0.336158 0,-0.252119 0,0.252119 -0.0494,0.509133 0,0.756356 0.0368,0.184269 0.4202,0.420198 0.25212,0.504237 -0.16808,0.08404 -0.44004,-0.504237 -0.25212,-0.504237 0.2377,0 0.33616,0.336158 0.50424,0.504237 0.084,0.08404 0.19896,0.145816 0.25212,0.252119 0.0383,0.07665 0,0.834381 0,1.008475 0,0.185075 0.0439,1.424816 0,1.512711 -0.0532,0.106303 -0.19897,0.145816 -0.25212,0.252119 -0.0376,0.07517 0.0376,0.176951 0,0.252119 -0.31155,0.623087 -0.25212,-0.08703 -0.25212,0.504237 0,0.08404 -0.0266,0.172392 0,0.252119 0.0594,0.178274 0.19269,0.325962 0.25212,0.504237 0.0266,0.07973 -0.0376,0.176951 0,0.252119 0.13151,0.26302 0.60976,0.398709 0.50423,0.504237 -0.0559,0.05591 -1.3975,-1.649622 0.50424,0.252118 0.0594,0.05943 0,0.16808 0,0.252119 0,0.168079 -0.0752,0.353903 0,0.504237 0.1063,0.212606 0.37239,0.30646 0.50424,0.504238 0.0138,0.02074 0,0.94592 0,1.008474 0,0.08404 0.084,0.252119 0,0.252119 -0.084,0 -0.0594,-0.311544 0,-0.252119 0.13288,0.132878 0.19269,0.325963 0.25212,0.504238 0.0531,0.159453 0,0.336158 0,0.504237 0,0.504237 0,1.008474 0,1.512712 0,0.140722 -0.0385,1.145182 0,1.260593 0.0752,0.225502 0.39793,0.291632 0.50424,0.504237 0.0282,0.05651 0,0.948564 0,1.008475 0,0.756356 0,1.512712 0,2.269068 0,0.261766 -0.0534,0.795029 0,1.008474 0.0644,0.257822 0.19999,0.495761 0.25211,0.756356 0.0495,0.247223 0,0.504237 0,0.756356 0,0.756356 0,1.512712 0,2.269068 0,0.420198 0,0.840395 0,1.260593 0,0.252119 0.0797,0.517175 0,0.756356 -0.0376,0.112751 -0.21453,0.139368 -0.25211,0.252119 -0.0532,0.159453 0,0.336158 0,0.504237 0,0.08404 0.0376,0.176951 0,0.252119 -0.0532,0.106302 -0.19897,0.145816 -0.25212,0.252118 -0.0376,0.07517 0.084,0.252119 0,0.252119 -0.084,0 0,-0.336158 0,-0.252119 0,0.168079 0.0532,0.344784 0,0.504238 -0.0376,0.11275 -0.16808,0.168079 -0.25212,0.252118 -0.084,0.08404 -0.16808,0.168079 -0.25212,0.252119 -0.38756,0.387559 -0.82823,0.719854 -1.00848,1.260593 -0.0531,0.159454 0,0.672316 0,0.504237 0,-0.168079 0,-0.672316 0,-0.504237 0,0.09762 -0.046,1.925008 0,2.016949 0.0532,0.106303 0.19897,0.145816 0.25212,0.252119 0.0361,0.07216 0,1.125908 0,1.260593 0,0.672316 0,1.344633 0,2.016949 0,0.261766 0.0534,0.79503 0,1.008475 -0.0644,0.257821 -0.2,0.49576 -0.25212,0.756356 -0.033,0.164815 0,0.336158 0,0.504237 0,0.336158 0,0.672316 0,1.008475 0,0.168079 0,0.336158 0,0.504237 0,0.08404 0.0376,0.176951 0,0.252119 -0.1063,0.212605 -0.39793,0.291632 -0.50423,0.504237 -0.0376,0.07517 0.0376,0.176951 0,0.252118 -0.0532,0.106303 -0.19897,0.145817 -0.25212,0.252119 -0.0282,0.05651 0,0.948564 0,1.008475 0,0.08404 0,0.168079 0,0.252118 0,1.781639 0,-1.672387 0,0.756356 0,0.168079 0,0.336158 0,0.504238 0,0.08404 0.0376,0.176951 0,0.252118 -0.0335,0.06694 -0.68942,0.722886 -0.75636,0.756356 -0.15033,0.07517 -0.3539,-0.07517 -0.50423,0 -0.55745,0.278724 -0.0782,0.156476 -0.25212,0.504237 -0.10631,0.212606 -0.39794,0.291633 -0.50424,0.504238 -0.16231,0.324623 0.17012,0.258236 0.25212,0.504237 0.0531,0.159454 0,0.336158 0,0.504237 0,0.08404 0.084,0.252119 0,0.252119 -0.084,0 0,-0.336158 0,-0.252119 0,0.168079 -0.0408,0.341177 0,0.504238 0.30437,1.217466 0.11981,-0.0125 0.50424,0.756355 0.0282,0.05651 0,0.948564 0,1.008475 0,0.588277 0,1.176554 0,1.764831 0,1.008474 0,2.016949 0,3.025423 0,0.185075 0.0439,1.424817 0,1.512712 -0.0532,0.106303 -0.19897,0.145816 -0.25212,0.252119 -0.0376,0.07517 0,0.168079 0,0.252118 0,0.192726 0.0355,1.693898 0,1.764831 -0.0673,0.134652 -0.62363,0.623624 -0.75636,0.756356 -0.084,0.08404 -0.16808,0.336158 -0.25212,0.252119 -0.084,-0.08404 0.37097,-0.252119 0.25212,-0.252119 -0.18792,0 -0.34788,0.14788 -0.50424,0.252119 -0.81648,0.54432 0.10493,-0.03133 -0.25211,0.504237 -0.13186,0.197778 -0.37239,0.306459 -0.50424,0.504237 -0.0703,0.105368 0.0692,1.305192 0,1.512712 -0.0376,0.112751 -0.21454,0.139368 -0.25212,0.252119 -0.006,0.01656 -0.006,1.244037 0,1.260593 0.0376,0.112751 0.21453,0.139368 0.25212,0.252119 0.0797,0.23918 0,0.504237 0,0.756355 0,0.672317 0,1.344633 0,2.01695 0,0.261766 -0.0534,0.795029 0,1.008474 0.0644,0.257822 0.2,0.495761 0.25212,0.756356 0.033,0.164815 0.16808,0.504237 0,0.504237 -0.16808,0 0,-0.672316 0,-0.504237 0,0.193886 -0.0583,1.27949 0,1.512712 0.0644,0.257822 0.13327,0.518656 0.25212,0.756356 0.1025,0.205001 0.39993,0.208606 0.25211,0.504237 -0.0532,0.106303 -0.16808,0.168079 -0.25211,0.252119 -0.18937,0.189363 -0.50424,0.557768 -0.50424,0.252118 0,-0.08404 0.33616,0 0.25212,0 -0.25212,0 -0.50424,0 -0.75636,0 -0.26082,0 -0.34846,-0.05942 -0.50424,0.252119 -0.0331,0.06629 0,0.876637 0,1.008475 0,1.008474 0,2.016949 0,3.025423 0,0.140722 0.0385,1.145183 0,1.260594 -0.0376,0.112751 -0.16808,0.168079 -0.25212,0.252118 -0.084,0.08404 -0.13936,0.214535 -0.25211,0.252119 -0.39149,0.130496 -0.7687,-0.227443 -1.00848,0.252119 -0.0376,0.07517 0,0.168079 0,0.252118 0,0.168079 -0.0531,0.344784 0,0.504238 0.0376,0.11275 0.33616,0.168079 0.25212,0.252118 -0.084,0.08404 -0.25212,-0.370968 -0.25212,-0.252118 0,0.265756 0.18766,0.498534 0.25212,0.756355 0.0204,0.08153 0,0.16808 0,0.252119 0,0.168079 0,0.336158 0,0.504237 0,0.252119 0.0797,0.517176 0,0.756356 -0.0376,0.112751 -0.21453,0.139368 -0.25212,0.252119 -0.0385,0.115411 0,1.119873 0,1.260593 0,0.8404 0,1.68079 0,2.52119 0,0.33615 0,0.67231 0,1.00847 0,0.084 0,0.16808 0,0.25212 0,0.084 0.084,0.25212 0,0.25212 -0.084,0 0,-0.33616 0,-0.25212 0,0.25212 0.0611,0.51176 0,0.75636 -0.0779,0.31154 -0.29849,0.25211 -0.50424,0.25211 -0.16807,0 -0.34478,0.0532 -0.50423,0 -0.11275,-0.0376 -0.33616,-0.16807 -0.25212,-0.25211 0.084,-0.084 0.25212,0.37096 0.25212,0.25211 0,-0.18791 -0.11924,-0.37135 -0.25212,-0.50423 -0.0594,-0.0594 0.0376,0.17695 0,0.25212 -0.0531,0.1063 -0.21454,0.13936 -0.25212,0.25211 -0.0531,0.15946 0,0.33616 0,0.50424 0,0.084 -0.0204,0.17059 0,0.25212 0.0644,0.25782 0.2,0.49576 0.25212,0.75636 0.0494,0.24722 0,0.50423 0,0.75635 0,0.16808 0,0.33616 0,0.50424 0,0.084 0.0376,0.17695 0,0.25212 -0.0531,0.1063 -0.19897,0.14581 -0.25212,0.25212 -0.17388,0.34776 0.30533,0.22551 -0.25212,0.50423 -0.28257,0.14129 -0.50911,-0.25211 -0.50424,-0.25211 0.30285,0 1.15851,0.90639 0.50424,0.25211 1.50943,2.87612 -3.31532,1.91206 -3.87106,3.57929 -0.15033,0.451 0,0.9508 0,1.4262 0,0.2377 0.2377,0.7131 0,0.7131 -0.2377,0 -0.16808,-0.88118 0,-0.7131 0.37584,0.37583 0.54502,0.92196 0.7131,1.4262 0.15034,0.451 0,0.95079 0,1.42619 0,0.4754 0.15034,0.9752 0,1.4262 -0.1063,0.31891 -0.4754,0.9508 -0.7131,0.7131 -0.2377,-0.2377 0.7131,-1.04926 0.7131,-0.7131 0,0.75167 -0.53079,1.41007 -0.7131,2.1393 -0.0576,0.2306 0,0.4754 0,0.7131 0,1.1885 0,2.377 0,3.5655 0,0.2377 0.2377,0.71309 0,0.71309 -0.2377,0 0.16808,-0.88117 0,-0.71309 -0.37583,0.37583 -0.41827,0.98395 -0.7131,1.42619 -0.18646,0.2797 -0.4754,0.4754 -0.7131,0.7131 -0.2377,0.2377 -0.4754,0.9508 -0.7131,0.7131 -0.23769,-0.2377 0.7131,-1.04926 0.7131,-0.7131 0,0.75168 -0.53079,1.41007 -0.7131,2.1393 -0.0577,0.2306 0.13186,0.51532 0,0.7131 -0.37293,0.5594 -1.05326,0.8668 -1.42619,1.4262 -0.13186,0.19778 0,0.4754 0,0.7131 0,0.4754 0.15033,0.97519 0,1.4262 -0.10631,0.3189 -0.6068,0.39419 -0.7131,0.7131 -0.15034,0.451 0.2126,1.00098 0,1.42619 -0.30067,0.60134 -0.9508,0.9508 -1.4262,1.4262 -0.2377,0.2377 -0.56277,0.41243 -0.7131,0.7131 -0.1063,0.21261 0.2377,0.7131 0,0.7131 -0.2377,0 0,-0.9508 0,-0.7131 0,0.7131 0.26484,1.4772 0,2.1393 -1.59428,3.98569 -1.4262,-0.0916 -1.4262,2.1393 0.2377,1.9016 0.7131,3.78839 0.7131,5.70479 0,0.22993 -1.22809,1.02998 -1.4262,1.4262 -0.1063,0.2126 0.1063,0.50049 0,0.7131 -0.15033,0.30067 -0.60679,0.39419 -0.7131,0.7131 -0.15033,0.451 0,0.9508 0,1.4262 0,0.2377 0.10631,0.50049 0,0.71309 -0.30067,0.60134 -1.12553,0.82486 -1.4262,1.4262 -0.2241,0.4482 0.2241,2.4042 0,2.8524 -0.15033,0.30067 -0.56276,0.41243 -0.71309,0.7131 -0.18854,0.37707 0.0868,2.50498 0,2.8524 -0.86088,3.44351 -0.33888,-0.0353 -1.4262,2.13929 -0.10841,0.21681 0,2.35999 0,2.8524 0,4.73011 0.33615,-1.00847 -0.7131,2.1393 -0.2255,0.6765 0,1.4262 0,2.1393 0,1.42619 0,2.85239 0,4.27859 0,0.4754 0.15033,0.9752 0,1.4262 -0.10631,0.31891 -0.4754,0.4754 -0.7131,0.7131"
     id="path4047"
     inkscape:connector-curvature="0"
     sodipodi:nodetypes="ccccsscccccsssssccssssssscccsssssccssssscccccsccsccssscscccscscsccccsccscsscssccsccssscssccscccscccccsccssccssccssccsssccsccssccscssccssccsssccccssssccccscsssccsssccscccssccccccssccsscsccssscssccscsccscssccsssssscscsssccsccsscccscsssscscsscsssscscscccsccsssssscssscscscccssssscc" />
  <path
     style="fill:none;stroke:#000000;stroke-width:1px;stroke-linecap:butt;stroke-linejoin:miter;stroke-opacity:1"
     d="m 6.4178929,120.69518 c 0.4753995,0.35655 0.9696834,0.68922 1.4261984,1.06965 0.2582439,0.2152 0.6067967,0.39419 0.7130992,0.7131 0.053151,0.15945 -0.2376997,0.2377 -0.3565496,0.35655 -0.1605748,0.16057 -0.9068835,1.01539 -1.0696488,1.06965 -0.1392413,0.0464 -1.0696488,-0.2009 -1.0696488,0.35655 0,0.16807 0.2376997,0.2377 0.3565496,0.35655 0.1877107,0.18771 0.8792214,0.97443 1.0696488,1.06964 1.0492574,0.52463 -0.4694269,-0.82597 0.7130992,0.35655 0.1932769,0.19328 0.5314259,0.36335 0.3565496,0.7131 -0.075167,0.15034 -0.3565496,0.52463 -0.3565496,0.35655 0,-0.61853 1.4616009,-1.63102 -0.7130992,0 -0.5544004,0.4158 -0.3002452,0.7131 -1.0696488,0.7131 -3.4663155,19.125 -4.3352999,39.54866 -6.06134329,59.54379 l 0,0 0,0"
     id="path4051"
     inkscape:connector-curvature="0"
     sodipodi:nodetypes="cssccsscscsscccc" />
  <path
     style="fill:none;stroke:#000000;stroke-width:1px;stroke-linecap:butt;stroke-linejoin:miter;stroke-opacity:1"
     d="m -0.35654961,187.01341 c 0.67381991,0 1.57014291,-0.21261 2.13929761,0.35655 0.08404,0.084 -0.053151,0.25024 0,0.35655 0.075167,0.15033 0.2376998,0.2377 0.3565496,0.35655 0.2376998,0.23769 0.5266322,0.43339 0.7130992,0.71309 0.065926,0.0989 -0.037584,0.2438 0,0.35655 0.049457,0.14837 0.5176556,0.74744 0.3565497,1.06965 -0.2623144,0.52463 -0.5594391,0.35655 -1.0696489,0.35655 -0.1188498,0 -0.2376997,0 -0.3565496,0 -0.2376997,0 -0.7130992,0.2377 -0.7130992,0 0,-0.2377 0.8811783,-0.16808 0.7130992,0 -0.2657564,0.26576 -0.7569341,0.14808 -1.06964879,0.35655 -0.0988891,0.0659 0.0531513,0.25025 0,0.35655 -0.0751673,0.15034 -0.28138235,0.20622 -0.3565496,0.35655 -0.0531513,0.1063 0,0.2377 0,0.35655 0,0.52463 -0.0840396,0.27251 0.3565496,0.7131 l 0.35654959,12.47924"
     id="path4057"
     inkscape:connector-curvature="0" />
  <path
     style="fill:none;stroke:#000000;stroke-width:1px;stroke-linecap:butt;stroke-linejoin:miter;stroke-opacity:1"
     d="m 182.90995,175.60382 -1.06965,2.1393 1.06965,6.41789 1.4262,0.35655 0,2.8524 -2.8524,1.06964 -0.35655,-0.71309 -4.63515,-0.7131 -1.42619,1.78274 -1.4262,0 11.40959,1.78275 1.42619,7.13099 c 0,0 1.78275,0.35655 2.1393,1.78275 0.35655,1.4262 0.35655,3.5655 0.35655,3.5655"
     id="path4059"
     inkscape:connector-curvature="0" />
  <path
     style="fill:none;stroke:#000000;stroke-width:1px;stroke-linecap:butt;stroke-linejoin:miter;stroke-opacity:1"
     d="m 1.0696488,204.84089 c 2.1767965,20.97707 11.8038022,39.62994 21.3929762,19.96677 l 1.426199,0.35655 -0.35655,-2.13929 2.139298,0 -2.852397,-1.4262 0.356549,-7.13099 -1.426198,-1.4262 0.35655,-3.92205 -1.426199,0 c 2.839324,-4.34603 -14.6103361,-10.8792 -15.3316329,1.06965 l -0.3998063,1.61714"
     id="path4061"
     inkscape:connector-curvature="0"
     sodipodi:nodetypes="cccccccccccc" />
  <path
     style="fill:none;stroke:#000000;stroke-width:1px;stroke-linecap:butt;stroke-linejoin:miter;stroke-opacity:1"
     d="m 4.8440068,211.80627 c -0.7286925,10.72988 6.5330092,16.78534 12.4180622,13.86218 5.082972,0.88891 8.150239,-11.54807 -1.512711,-11.42751 l -0.147689,0.0433 6.83689,0.26873"
     id="path4063"
     inkscape:connector-curvature="0"
     sodipodi:nodetypes="cccc" />
  <path
     style="fill:none;stroke:#000000;stroke-width:1px;stroke-linecap:butt;stroke-linejoin:miter;stroke-opacity:1"
     d="m 12.479236,13.017199 12.122687,-0.35655"
     id="path4077"
     inkscape:connector-curvature="0" />
  <path
     style="fill:none;stroke:#000000;stroke-width:1px;stroke-linecap:butt;stroke-linejoin:miter;stroke-opacity:1"
     d="m 21.392976,212.68498 0.252119,1.00847"
     id="path4081"
     inkscape:connector-curvature="0"
     sodipodi:nodetypes="cc" />
  <path
     style="fill:none;stroke:#000000;stroke-width:1px;stroke-linecap:butt;stroke-linejoin:miter;stroke-opacity:1"
     d="m 8.5571905,230.15591 c 0,0 2.1392975,5.34824 11.4095875,5.70479 9.27029,0.35655 9.27029,0.35655 9.27029,0.35655 l 0,0 c 56.874152,-4.64186 103.023922,-2.12057 151.890132,-1.4262 l 0,0"
     id="path4087"
     inkscape:connector-curvature="0"
     sodipodi:nodetypes="cscccc" />
  <path
     style="fill:none;stroke:#000000;stroke-width:1px;stroke-linecap:butt;stroke-linejoin:miter;stroke-opacity:1"
     d="m 180.4141,234.79105 20.67988,0.7131 2.49585,-3.56549 -4.2786,-3.5655 1.4262,-0.35655 3.92204,0.35655 0,-2.8524 -1.78274,-1.06965 0.7131,0 -1.4262,-1.42619 2.49584,0.7131 0,-7.8441 1.78275,0 -1.4262,-1.78274 0,-4.63515 -2.49584,0 -1.06965,-0.35655 -1.78275,-1.78275 1.4262,0.35655 2.1393,0.35655 0.71309,-1.78274 -1.42619,-1.78275 -0.35655,-1.06965 -0.7131,-0.35655 -12.12269,0 c -27.56869,1.29109 -59.02939,10.96506 -85.92846,7.13099 -6.886725,-1.34205 -51.281631,-2.10827 -73.479768,-4.94962 -8.244708,-1.05532 -14.074839,-1.42447 -13.87488,-1.46827"
     id="path4089"
     inkscape:connector-curvature="0"
     sodipodi:nodetypes="ccccccccccccccccccccccccccsc" />
  <text
     xml:space="preserve"
     style="font-size:18px;font-style:normal;font-variant:normal;font-weight:normal;font-stretch:normal;line-height:125%;letter-spacing:0px;word-spacing:0px;fill:#000000;fill-opacity:1;stroke:none;font-family:DejaVu Sans Mono;-inkscape-font-specification:DejaVu Sans Mono"
     x="23.941303"
     y="102.11877"
     id="text4091"
     sodipodi:linespacing="125%"><tspan
       sodipodi:role="line"
       id="tspan4093"
       x="23.941303"
       y="102.11877">take those tips </tspan><tspan
       sodipodi:role="line"
       x="23.941303"
       y="124.61877"
       id="tspan4095">    it'll help</tspan></text>
</svg>
