<?xml version="1.0" encoding="UTF-8" standalone="no"?>
<!-- Created with Inkscape (http://www.inkscape.org/) -->

<svg
   xmlns:dc="http://purl.org/dc/elements/1.1/"
   xmlns:cc="http://creativecommons.org/ns#"
   xmlns:rdf="http://www.w3.org/1999/02/22-rdf-syntax-ns#"
   xmlns:svg="http://www.w3.org/2000/svg"
   xmlns="http://www.w3.org/2000/svg"
   xmlns:sodipodi="http://sodipodi.sourceforge.net/DTD/sodipodi-0.dtd"
   xmlns:inkscape="http://www.inkscape.org/namespaces/inkscape"
   id="svg4238"
   version="1.1"
   inkscape:version="0.91 r13725"
   viewBox="0 0 750 600"
   sodipodi:docname="page1.svg">
  <metadata
     id="metadata4244">
    <rdf:RDF>
      <cc:Work
         rdf:about="">
        <dc:format>image/svg+xml</dc:format>
        <dc:type
           rdf:resource="http://purl.org/dc/dcmitype/StillImage" />
        <dc:title />
      </cc:Work>
    </rdf:RDF>
  </metadata>
  <defs
     id="defs4242" />
  <sodipodi:namedview
     pagecolor="#ffffff"
     bordercolor="#666666"
     borderopacity="1"
     objecttolerance="10"
     gridtolerance="10"
     guidetolerance="10"
     inkscape:pageopacity="0"
     inkscape:pageshadow="2"
     inkscape:window-width="1348"
     inkscape:window-height="750"
     id="namedview4240"
     showgrid="false"
     inkscape:zoom="0.68839337"
     inkscape:cx="343.45203"
     inkscape:cy="300.87293"
     inkscape:window-x="0"
     inkscape:window-y="0"
     inkscape:window-maximized="0"
     inkscape:current-layer="svg4238" />
  <path
     style="fill:none;fill-rule:evenodd;stroke:#000000;stroke-width:2;stroke-linecap:butt;stroke-linejoin:miter;stroke-opacity:1;stroke-miterlimit:4;stroke-dasharray:none"
     d="m 422.26069,24.119205 c 29.30899,3.8737 19.76561,16.4634 13.07392,24.6952 20.06481,34.7003 4.70092,49.5961 -13.43708,61.374695 20.46197,26.77257 3.49374,40.50919 -2.90532,43.57978 1.82451,21.76604 -15.11654,32.4181 -29.05315,39.22176 l 0,0"
     id="path4248"
     inkscape:connector-curvature="0"
     sodipodi:nodetypes="cccccc" />
  <path
     style="fill:none;fill-rule:evenodd;stroke:#000000;stroke-width:2;stroke-linecap:butt;stroke-linejoin:miter;stroke-opacity:1;stroke-miterlimit:4;stroke-dasharray:none"
     d="m 430.61348,127.621 c 19.19156,15.78713 35.4005,32.48416 -1.45266,65.36964 17.49065,50.41756 -8.01678,57.83704 -31.95847,66.82226 -13.53439,17.93986 -6.4986,56.44991 -74.08555,20.33721"
     id="path4250"
     inkscape:connector-curvature="0"
     sodipodi:nodetypes="cccc" />
  <path
     style="fill:none;fill-rule:evenodd;stroke:#000000;stroke-width:2;stroke-linecap:butt;stroke-linejoin:miter;stroke-opacity:1;stroke-miterlimit:4;stroke-dasharray:none"
     d="m 315.34555,205.56127 c 19.77363,23.95058 19.25923,43.84355 -2.05437,59.57668 15.20857,62.22456 -15.09896,68.81831 -48.27765,71.90289 -27.79013,29.65417 -54.04125,25.45006 -79.09319,-5.13592"
     id="path4252"
     inkscape:connector-curvature="0"
     sodipodi:nodetypes="cccc" />
  <path
     style="fill:none;fill-rule:evenodd;stroke:#000000;stroke-width:2;stroke-linecap:butt;stroke-linejoin:miter;stroke-opacity:1;stroke-miterlimit:4;stroke-dasharray:none"
     d="m 185.84064,283.05542 c 1.18626,25.12636 7.42516,54.98958 -21.06354,52.29568 -6.39406,33.26232 -28.54019,42.89653 -58.10631,41.40075 -17.175615,28.8637 -41.172835,32.38999 -71.906575,10.89493"
     id="path4254"
     inkscape:connector-curvature="0"
     sodipodi:nodetypes="cccc" />
  <path
     style="fill:none;fill-rule:evenodd;stroke:#000000;stroke-width:2;stroke-linecap:butt;stroke-linejoin:miter;stroke-opacity:1;stroke-miterlimit:4;stroke-dasharray:none"
     d="m 349.99097,60.798805 c -12.13297,10.2403 -20.7903,22.5659 -23.2567,38.6061 -4.52591,36.846835 -24.2471,43.303085 -45.95872,45.778475 -30.05877,1.36283 -43.19207,13.67743 -40.32452,36.34553 -7.03548,20.59995 -17.41857,37.57332 -47.41796,33.2957 -31.70125,-2.11997 -45.16541,15.39999 -51.81066,40.2634 -9.64149,15.52267 -21.80046,27.0893 -44.873925,21.50459 -27.64345,6.26156 -43.72734,21.41509 -46.19523,47.04246 -8.76133,4.87379 -3.58362,24.33826 5.6745,24.06364"
     id="path4256"
     inkscape:connector-curvature="0"
     sodipodi:nodetypes="ccccccccc" />
  <path
     style="fill:none;fill-rule:evenodd;stroke:#000000;stroke-width:2;stroke-linecap:butt;stroke-linejoin:miter;stroke-opacity:1;stroke-miterlimit:4;stroke-dasharray:none"
     d="m 373.23349,81.862305 c -9.75533,7.7618 -23.93579,14.2593 -47.21138,18.158195 -34.68537,7.5692 -34.02275,27.7626 -43.57973,44.3061 -1.23458,29.2156 -24.58673,29.67837 -44.30606,34.86379 -24.45817,-0.38397 -40.90881,10.79848 -47.93771,35.59012 -6.54751,40.16157 -31.05855,31.56498 -50.1167,37.7691 -24.47362,-3.67748 -36.83438,9.43894 -45.032395,28.32683 -8.46279,34.94756 -26.39238,39.60135 -44.30606,44.30606 -13.7862,0.17311 -27.35684,0.52586 -29.77949,10.1686"
     id="path4258"
     inkscape:connector-curvature="0"
     sodipodi:nodetypes="ccccccccc" />
  <path
     style="fill:none;fill-rule:evenodd;stroke:#000000;stroke-width:2;stroke-linecap:butt;stroke-linejoin:miter;stroke-opacity:1;stroke-miterlimit:4;stroke-dasharray:none"
     d="m 68.901675,287.4134 8.71595,8.71594"
     id="path4260"
     inkscape:connector-curvature="0" />
  <path
     style="fill:none;fill-rule:evenodd;stroke:#000000;stroke-width:2;stroke-linecap:butt;stroke-linejoin:miter;stroke-opacity:1;stroke-miterlimit:4;stroke-dasharray:none"
     d="m 79.796615,283.05542 4.35797,7.26329"
     id="path4262"
     inkscape:connector-curvature="0" />
  <path
     style="fill:none;fill-rule:evenodd;stroke:#000000;stroke-width:2;stroke-linecap:butt;stroke-linejoin:miter;stroke-opacity:1;stroke-miterlimit:4;stroke-dasharray:none"
     d="m 63.091045,309.20326 4.35797,9.44228"
     id="path4264"
     inkscape:connector-curvature="0" />
  <path
     style="fill:none;fill-rule:evenodd;stroke:#000000;stroke-width:2;stroke-linecap:butt;stroke-linejoin:miter;stroke-opacity:1;stroke-miterlimit:4;stroke-dasharray:none"
     d="m 73.985975,302.6663 3.63165,7.26329"
     id="path4266"
     inkscape:connector-curvature="0" />
  <path
     style="fill:none;fill-rule:evenodd;stroke:#000000;stroke-width:2;stroke-linecap:butt;stroke-linejoin:miter;stroke-opacity:1;stroke-miterlimit:4;stroke-dasharray:none"
     d="m 120.47103,267.07619 5.08431,5.81063"
     id="path4268"
     inkscape:connector-curvature="0" />
  <path
     style="fill:none;fill-rule:evenodd;stroke:#000000;stroke-width:2;stroke-linecap:butt;stroke-linejoin:miter;stroke-opacity:1;stroke-miterlimit:4;stroke-dasharray:none"
     d="m 109.5761,270.70783 2.90532,6.53696"
     id="path4270"
     inkscape:connector-curvature="0" />
  <path
     style="fill:none;fill-rule:evenodd;stroke:#000000;stroke-width:2;stroke-linecap:butt;stroke-linejoin:miter;stroke-opacity:1;stroke-miterlimit:4;stroke-dasharray:none"
     d="m 119.01838,254.7286 3.63164,6.53696"
     id="path4272"
     inkscape:connector-curvature="0" />
  <path
     style="fill:none;fill-rule:evenodd;stroke:#000000;stroke-width:2;stroke-linecap:butt;stroke-linejoin:miter;stroke-opacity:1;stroke-miterlimit:4;stroke-dasharray:none"
     d="m 164.7771,239.47569 3.63164,5.0843"
     id="path4274"
     inkscape:connector-curvature="0" />
  <path
     style="fill:none;fill-rule:evenodd;stroke:#000000;stroke-width:2;stroke-linecap:butt;stroke-linejoin:miter;stroke-opacity:1;stroke-miterlimit:4;stroke-dasharray:none"
     d="m 152.42951,235.84404 3.63164,5.08431"
     id="path4276"
     inkscape:connector-curvature="0" />
  <path
     style="fill:none;fill-rule:evenodd;stroke:#000000;stroke-width:2;stroke-linecap:butt;stroke-linejoin:miter;stroke-opacity:1;stroke-miterlimit:4;stroke-dasharray:none"
     d="m 161.14545,225.67544 5.81063,6.53696"
     id="path4278"
     inkscape:connector-curvature="0" />
  <path
     style="fill:none;fill-rule:evenodd;stroke:#000000;stroke-width:2;stroke-linecap:butt;stroke-linejoin:miter;stroke-opacity:1;stroke-miterlimit:4;stroke-dasharray:none"
     d="m 171.31406,217.68582 6.53696,8.71595"
     id="path4280"
     inkscape:connector-curvature="0" />
  <path
     style="fill:none;fill-rule:evenodd;stroke:#000000;stroke-width:2;stroke-linecap:butt;stroke-linejoin:miter;stroke-opacity:1;stroke-miterlimit:4;stroke-dasharray:none"
     d="m 169.8614,231.48607 5.0843,4.35797"
     id="path4282"
     inkscape:connector-curvature="0" />
  <path
     style="fill:none;fill-rule:evenodd;stroke:#000000;stroke-width:2;stroke-linecap:butt;stroke-linejoin:miter;stroke-opacity:1;stroke-miterlimit:4;stroke-dasharray:none"
     d="m 202.5462,201.70659 3.63165,5.81063"
     id="path4284"
     inkscape:connector-curvature="0" />
  <path
     style="fill:none;fill-rule:evenodd;stroke:#000000;stroke-width:2;stroke-linecap:butt;stroke-linejoin:miter;stroke-opacity:1;stroke-miterlimit:4;stroke-dasharray:none"
     d="m 211.26215,204.6119 2.90531,5.81063"
     id="path4286"
     inkscape:connector-curvature="0" />
  <path
     style="fill:none;fill-rule:evenodd;stroke:#000000;stroke-width:2;stroke-linecap:butt;stroke-linejoin:miter;stroke-opacity:1;stroke-miterlimit:4;stroke-dasharray:none"
     d="m 223.60974,192.26431 5.0843,6.53696"
     id="path4288"
     inkscape:connector-curvature="0" />
  <path
     style="fill:none;fill-rule:evenodd;stroke:#000000;stroke-width:2;stroke-linecap:butt;stroke-linejoin:miter;stroke-opacity:1;stroke-miterlimit:4;stroke-dasharray:none"
     d="m 255.56821,166.11647 5.0843,5.0843"
     id="path4290"
     inkscape:connector-curvature="0" />
  <path
     style="fill:none;fill-rule:evenodd;stroke:#000000;stroke-width:2;stroke-linecap:butt;stroke-linejoin:miter;stroke-opacity:1;stroke-miterlimit:4;stroke-dasharray:none"
     d="m 245.39961,160.30584 5.81063,6.53696"
     id="path4292"
     inkscape:connector-curvature="0" />
  <path
     style="fill:none;fill-rule:evenodd;stroke:#000000;stroke-width:2;stroke-linecap:butt;stroke-linejoin:miter;stroke-opacity:1;stroke-miterlimit:4;stroke-dasharray:none"
     d="m 259.92618,150.86356 3.63165,2.90532"
     id="path4294"
     inkscape:connector-curvature="0" />
  <path
     style="fill:none;fill-rule:evenodd;stroke:#000000;stroke-width:2;stroke-linecap:butt;stroke-linejoin:miter;stroke-opacity:1;stroke-miterlimit:4;stroke-dasharray:none"
     d="m 270.09479,156.67419 4.35797,6.53696"
     id="path4296"
     inkscape:connector-curvature="0" />
  <path
     style="fill:none;fill-rule:evenodd;stroke:#000000;stroke-width:2;stroke-linecap:butt;stroke-linejoin:miter;stroke-opacity:1;stroke-miterlimit:4;stroke-dasharray:none"
     d="m 296.96896,129.0737 7.98962,7.26328"
     id="path4298"
     inkscape:connector-curvature="0" />
  <path
     style="fill:none;fill-rule:evenodd;stroke:#000000;stroke-width:2;stroke-linecap:butt;stroke-linejoin:miter;stroke-opacity:1;stroke-miterlimit:4;stroke-dasharray:none"
     d="m 309.31655,121.0841 5.0843,3.6316"
     id="path4300"
     inkscape:connector-curvature="0" />
  <path
     style="fill:none;fill-rule:evenodd;stroke:#000000;stroke-width:2;stroke-linecap:butt;stroke-linejoin:miter;stroke-opacity:1;stroke-miterlimit:4;stroke-dasharray:none"
     d="m 302.77959,113.0945 3.63164,4.3579"
     id="path4302"
     inkscape:connector-curvature="0" />
  <path
     style="fill:none;fill-rule:evenodd;stroke:#000000;stroke-width:2;stroke-linecap:butt;stroke-linejoin:miter;stroke-opacity:1;stroke-miterlimit:4;stroke-dasharray:none"
     d="m 309.31655,105.8312 6.53696,5.0843"
     id="path4304"
     inkscape:connector-curvature="0" />
  <path
     style="fill:none;fill-rule:evenodd;stroke:#000000;stroke-width:2;stroke-linecap:butt;stroke-linejoin:miter;stroke-opacity:1;stroke-miterlimit:4;stroke-dasharray:none"
     d="m 339.82236,84.041305 7.98962,7.2633"
     id="path4306"
     inkscape:connector-curvature="0" />
  <path
     style="fill:none;fill-rule:evenodd;stroke:#000000;stroke-width:2;stroke-linecap:butt;stroke-linejoin:miter;stroke-opacity:1;stroke-miterlimit:4;stroke-dasharray:none"
     d="m 353.62261,79.683305 5.0843,10.895"
     id="path4308"
     inkscape:connector-curvature="0" />
  <path
     style="fill:none;fill-rule:evenodd;stroke:#000000;stroke-width:2;stroke-linecap:butt;stroke-linejoin:miter;stroke-opacity:1;stroke-miterlimit:4;stroke-dasharray:none"
     d="m 339.82236,76.051705 4.35798,2.9053"
     id="path4310"
     inkscape:connector-curvature="0" />
  <path
     style="fill:none;fill-rule:evenodd;stroke:#000000;stroke-width:2;stroke-linecap:butt;stroke-linejoin:miter;stroke-opacity:1;stroke-miterlimit:4;stroke-dasharray:none"
     d="m 366.70476,215.83311 200.30092,21.57087"
     id="path4312"
     inkscape:connector-curvature="0" />
  <path
     style="fill:none;fill-rule:evenodd;stroke:#000000;stroke-width:2;stroke-linecap:butt;stroke-linejoin:miter;stroke-opacity:1;stroke-miterlimit:4;stroke-dasharray:none"
     d="m 356.43292,233.29524 207.4912,31.84271"
     id="path4314"
     inkscape:connector-curvature="0" />
  <path
     style="fill:none;fill-rule:evenodd;stroke:#000000;stroke-width:2;stroke-linecap:butt;stroke-linejoin:miter;stroke-opacity:1;stroke-miterlimit:4;stroke-dasharray:none"
     d="M 568.03286,218.91466 567.00568,287.736"
     id="path4316"
     inkscape:connector-curvature="0" />
  <path
     style="fill:none;fill-rule:evenodd;stroke:#000000;stroke-width:2;stroke-linecap:butt;stroke-linejoin:miter;stroke-opacity:1;stroke-miterlimit:4;stroke-dasharray:none"
     d="m 564.95131,214.80592 44.16892,56.49513"
     id="path4322"
     inkscape:connector-curvature="0" />
  <path
     style="fill:none;fill-rule:evenodd;stroke:#000000;stroke-width:2;stroke-linecap:butt;stroke-linejoin:miter;stroke-opacity:1;stroke-miterlimit:4;stroke-dasharray:none"
     d="m 569.06004,293.89911 39.033,-23.62524"
     id="path4324"
     inkscape:connector-curvature="0" />
  <path
     style="fill:none;fill-rule:evenodd;stroke:#000000;stroke-width:2;stroke-linecap:butt;stroke-linejoin:miter;stroke-opacity:1;stroke-miterlimit:4;stroke-dasharray:none"
     d="m 337.9436,253.83892 33.89708,143.80579"
     id="path4326"
     inkscape:connector-curvature="0" />
  <path
     style="fill:none;fill-rule:evenodd;stroke:#000000;stroke-width:2;stroke-linecap:butt;stroke-linejoin:miter;stroke-opacity:1;stroke-miterlimit:4;stroke-dasharray:none"
     d="M 322.53584,264.11077 351.297,400.72626"
     id="path4328"
     inkscape:connector-curvature="0" />
  <path
     style="fill:none;fill-rule:evenodd;stroke:#000000;stroke-width:2;stroke-linecap:butt;stroke-linejoin:miter;stroke-opacity:1;stroke-miterlimit:4;stroke-dasharray:none"
     d="m 329.72613,406.88937 62.65823,-10.27184"
     id="path4330"
     inkscape:connector-curvature="0" />
  <path
     style="fill:none;fill-rule:evenodd;stroke:#000000;stroke-width:2;stroke-linecap:butt;stroke-linejoin:miter;stroke-opacity:1;stroke-miterlimit:4;stroke-dasharray:none"
     d="m 371.84068,439.75926 22.59805,-44.16892"
     id="path4332"
     inkscape:connector-curvature="0" />
  <path
     style="fill:none;fill-rule:evenodd;stroke:#000000;stroke-width:2;stroke-linecap:butt;stroke-linejoin:miter;stroke-opacity:1;stroke-miterlimit:4;stroke-dasharray:none"
     d="m 333.83487,408.94374 36.97863,30.81552"
     id="path4334"
     inkscape:connector-curvature="0" />
  <path
     style="opacity:0.95;fill:none;fill-opacity:1;stroke:#000000;stroke-width:2;stroke-linecap:round;stroke-linejoin:round;stroke-miterlimit:4;stroke-dasharray:none;stroke-dashoffset:0;stroke-opacity:1"
     id="path4346"
     sodipodi:type="arc"
     sodipodi:cx="662.0202"
     sodipodi:cy="256.9205"
     sodipodi:rx="38.765102"
     sodipodi:ry="32.088398"
     sodipodi:start="0"
     sodipodi:end="6.2599164"
     sodipodi:open="true"
     d="m 700.78531,256.9205 a 38.765102,32.088398 0 0 1 -38.5396,32.08786 38.765102,32.088398 0 0 1 -38.98799,-31.71454 38.765102,32.088398 0 0 1 38.086,-32.45683 38.765102,32.088398 0 0 1 39.43109,31.33692" />
  <path
     style="fill:none;fill-rule:evenodd;stroke:#000000;stroke-width:2;stroke-linecap:butt;stroke-linejoin:miter;stroke-opacity:1;stroke-miterlimit:4;stroke-dasharray:none"
     d="m 641.99012,261.02921 7.19029,15.40777 19.5165,0 7.19029,-10.27185"
     id="path4348"
     inkscape:connector-curvature="0" />
  <path
     style="fill:none;fill-rule:evenodd;stroke:#000000;stroke-width:2;stroke-linecap:butt;stroke-linejoin:miter;stroke-opacity:1;stroke-miterlimit:4;stroke-dasharray:none"
     d="m 658.42507,290.81755 -5.13592,54.44077"
     id="path4350"
     inkscape:connector-curvature="0" />
  <path
     style="fill:none;fill-rule:evenodd;stroke:#000000;stroke-width:2;stroke-linecap:butt;stroke-linejoin:miter;stroke-opacity:1;stroke-miterlimit:4;stroke-dasharray:none"
     d="m 620.41925,300.06221 31.84271,22.59805"
     id="path4352"
     inkscape:connector-curvature="0" />
  <path
     style="fill:none;fill-rule:evenodd;stroke:#000000;stroke-width:2;stroke-linecap:butt;stroke-linejoin:miter;stroke-opacity:1;stroke-miterlimit:4;stroke-dasharray:none"
     d="m 687.18623,305.19813 -29.78835,16.43495"
     id="path4354"
     inkscape:connector-curvature="0" />
  <path
     style="fill:none;fill-rule:evenodd;stroke:#000000;stroke-width:2;stroke-linecap:butt;stroke-linejoin:miter;stroke-opacity:1;stroke-miterlimit:4;stroke-dasharray:none"
     d="m 652.26196,348.33987 -22.59805,28.76116"
     id="path4356"
     inkscape:connector-curvature="0" />
  <path
     style="fill:none;fill-rule:evenodd;stroke:#000000;stroke-width:2;stroke-linecap:butt;stroke-linejoin:miter;stroke-opacity:1;stroke-miterlimit:4;stroke-dasharray:none"
     d="m 657.39788,346.2855 10.27185,32.86989"
     id="path4358"
     inkscape:connector-curvature="0" />
  <path
     style="opacity:0.95;fill:none;fill-opacity:1;stroke:#000000;stroke-width:2;stroke-linecap:round;stroke-linejoin:round;stroke-miterlimit:4;stroke-dasharray:none;stroke-dashoffset:0;stroke-opacity:1"
     id="path4360"
     sodipodi:type="arc"
     sodipodi:cx="651.23474"
     sodipodi:cy="248.18941"
     sodipodi:rx="7.1902895"
     sodipodi:ry="6.6766973"
     sodipodi:start="0"
     sodipodi:end="6.2599201"
     sodipodi:open="true"
     d="m 658.42503,248.18941 a 7.1902895,6.6766973 0 0 1 -7.14847,6.67658 7.1902895,6.6766973 0 0 1 -7.23162,-6.59892 7.1902895,6.6766973 0 0 1 7.06434,-6.75334 7.1902895,6.6766973 0 0 1 7.3138,6.52036" />
  <path
     style="opacity:0.95;fill:none;fill-opacity:1;stroke:#000000;stroke-width:2;stroke-linecap:round;stroke-linejoin:round;stroke-miterlimit:4;stroke-dasharray:none;stroke-dashoffset:0;stroke-opacity:1"
     id="path4362"
     sodipodi:type="arc"
     sodipodi:cx="677.94153"
     sodipodi:cy="251.78456"
     sodipodi:rx="7.1902895"
     sodipodi:ry="7.1902895"
     sodipodi:start="0"
     sodipodi:end="6.2599201"
     sodipodi:open="true"
     d="m 685.13182,251.78456 a 7.1902895,7.1902895 0 0 1 -7.14847,7.19017 7.1902895,7.1902895 0 0 1 -7.23162,-7.10653 7.1902895,7.1902895 0 0 1 7.06434,-7.27283 7.1902895,7.1902895 0 0 1 7.3138,7.02192" />
  <path
     style="opacity:0.95;fill:none;fill-opacity:1;stroke:#000000;stroke-width:2;stroke-linecap:round;stroke-linejoin:round;stroke-miterlimit:4;stroke-dasharray:none;stroke-dashoffset:0;stroke-opacity:1"
     id="path4364"
     sodipodi:type="arc"
     sodipodi:cx="414.46881"
     sodipodi:cy="432.569"
     sodipodi:rx="5.6495132"
     sodipodi:ry="31.84271"
     sodipodi:start="0"
     sodipodi:end="6.2599201"
     sodipodi:open="true"
     d="m 420.11832,432.569 a 5.6495132,31.84271 0 0 1 -5.61665,31.84217 5.6495132,31.84271 0 0 1 -5.68199,-31.47176 5.6495132,31.84271 0 0 1 5.55056,-32.20827 5.6495132,31.84271 0 0 1 5.74656,31.0971" />
  <path
     style="opacity:0.95;fill:none;fill-opacity:1;stroke:#000000;stroke-width:2.0002026;stroke-linecap:round;stroke-linejoin:round;stroke-miterlimit:4;stroke-dasharray:none;stroke-dashoffset:0;stroke-opacity:1"
     id="path4366"
     sodipodi:type="arc"
     sodipodi:cx="613.40735"
     sodipodi:cy="68.448204"
     sodipodi:rx="7.6538682"
     sodipodi:ry="28.472376"
     sodipodi:start="0"
     sodipodi:end="6.2599201"
     sodipodi:open="true"
     d="m 621.06122,68.448204 a 7.6538682,28.472376 0 0 1 -7.60935,28.471894 7.6538682,28.472376 0 0 1 -7.69787,-28.140694 7.6538682,28.472376 0 0 1 7.5198,-28.799242 7.6538682,28.472376 0 0 1 7.78535,27.805686"
     transform="matrix(0.77537449,0.63150171,-0.61576759,0.78792784,0,0)"
     inkscape:transform-center-x="-7.190707"
     inkscape:transform-center-y="5.1378325" />
  <path
     style="opacity:0.95;fill:none;fill-opacity:1;stroke:#000000;stroke-width:2;stroke-linecap:round;stroke-linejoin:round;stroke-miterlimit:4;stroke-dasharray:none;stroke-dashoffset:0;stroke-opacity:1"
     id="path4368"
     sodipodi:type="arc"
     sodipodi:cx="423.19989"
     sodipodi:cy="480.33304"
     sodipodi:rx="26.687914"
     sodipodi:ry="13.848113"
     sodipodi:start="0"
     sodipodi:end="6.2599201"
     sodipodi:open="true"
     d="m 449.8878,480.33304 a 26.687914,13.848113 0 0 1 -26.53269,13.84788 26.687914,13.848113 0 0 1 -26.84133,-13.6868 26.687914,13.848113 0 0 1 26.22046,-14.00709 26.687914,13.848113 0 0 1 27.14634,13.52386" />
  <path
     style="opacity:0.95;fill:none;fill-opacity:1;stroke:#000000;stroke-width:2;stroke-linecap:round;stroke-linejoin:round;stroke-miterlimit:4;stroke-dasharray:none;stroke-dashoffset:0;stroke-opacity:1"
     id="path4370"
     sodipodi:type="arc"
     sodipodi:cx="397.00668"
     sodipodi:cy="483.92819"
     sodipodi:rx="10.785434"
     sodipodi:ry="9.2446575"
     sodipodi:start="0"
     sodipodi:end="6.2599201"
     sodipodi:open="true"
     d="m 407.79212,483.92819 a 10.785434,9.2446575 0 0 1 -10.72271,9.2445 10.785434,9.2446575 0 0 1 -10.84743,-9.13696 10.785434,9.2446575 0 0 1 10.59652,-9.35079 10.785434,9.2446575 0 0 1 10.9707,9.02819" />
  <path
     style="opacity:0.95;fill:none;fill-opacity:1;stroke:#000000;stroke-width:2;stroke-linecap:round;stroke-linejoin:round;stroke-miterlimit:4;stroke-dasharray:none;stroke-dashoffset:0;stroke-opacity:1"
     id="path4372"
     sodipodi:type="arc"
     sodipodi:cx="431.93097"
     sodipodi:cy="510.12137"
     sodipodi:rx="10.785434"
     sodipodi:ry="9.7582502"
     sodipodi:start="0"
     sodipodi:end="6.2599201"
     sodipodi:open="true"
     d="m 442.7164,510.12137 a 10.785434,9.7582502 0 0 1 -10.7227,9.75808 10.785434,9.7582502 0 0 1 -10.84743,-9.64457 10.785434,9.7582502 0 0 1 10.59651,-9.87028 10.785434,9.7582502 0 0 1 10.9707,9.52976" />
  <path
     style="opacity:0.95;fill:none;fill-opacity:1;stroke:#000000;stroke-width:2;stroke-linecap:round;stroke-linejoin:round;stroke-miterlimit:4;stroke-dasharray:none;stroke-dashoffset:0;stroke-opacity:1"
     id="path4374"
     sodipodi:type="arc"
     sodipodi:cx="490.99402"
     sodipodi:cy="514.74371"
     sodipodi:rx="17.462132"
     sodipodi:ry="12.32621"
     sodipodi:start="0"
     sodipodi:end="6.2599201"
     sodipodi:open="true"
     d="m 508.45615,514.74371 a 17.462132,12.32621 0 0 1 -17.36057,12.326 17.462132,12.32621 0 0 1 -17.56251,-12.18261 17.462132,12.32621 0 0 1 17.15627,-12.46772 17.462132,12.32621 0 0 1 17.76208,12.03759" />
  <path
     style="fill:none;fill-rule:evenodd;stroke:#000000;stroke-width:2;stroke-linecap:butt;stroke-linejoin:miter;stroke-miterlimit:4;stroke-dasharray:none;stroke-opacity:1"
     d="m 434.49892,496.25439 35.95144,17.46213 36.97863,-18.48931 -65.73978,-4.10874 z"
     id="path4376"
     inkscape:connector-curvature="0" />
</svg>
