<?xml version="1.0" encoding="UTF-8" standalone="no"?>
<!-- Created with Inkscape (http://www.inkscape.org/) -->

<svg
   xmlns:dc="http://purl.org/dc/elements/1.1/"
   xmlns:cc="http://creativecommons.org/ns#"
   xmlns:rdf="http://www.w3.org/1999/02/22-rdf-syntax-ns#"
   xmlns:svg="http://www.w3.org/2000/svg"
   xmlns="http://www.w3.org/2000/svg"
   xmlns:sodipodi="http://sodipodi.sourceforge.net/DTD/sodipodi-0.dtd"
   xmlns:inkscape="http://www.inkscape.org/namespaces/inkscape"
   id="svg3114"
   version="1.1"
   inkscape:version="0.91 r13725"
   viewBox="0 0 250 150"
   sodipodi:docname="page16.svg">
  <metadata
     id="metadata3120">
    <rdf:RDF>
      <cc:Work
         rdf:about="">
        <dc:format>image/svg+xml</dc:format>
        <dc:type
           rdf:resource="http://purl.org/dc/dcmitype/StillImage" />
        <dc:title />
      </cc:Work>
    </rdf:RDF>
  </metadata>
  <defs
     id="defs3118" />
  <sodipodi:namedview
     pagecolor="#ffffff"
     bordercolor="#666666"
     borderopacity="1"
     objecttolerance="10"
     gridtolerance="10"
     guidetolerance="10"
     inkscape:pageopacity="0"
     inkscape:pageshadow="2"
     inkscape:window-width="1366"
     inkscape:window-height="768"
     id="namedview3116"
     showgrid="false"
     inkscape:zoom="0.51265242"
     inkscape:cx="735.05415"
     inkscape:cy="262.54008"
     inkscape:window-x="0"
     inkscape:window-y="0"
     inkscape:window-maximized="0"
     inkscape:current-layer="svg3114" />
  <path
     style="fill:none;stroke:#000000;stroke-width:1px;stroke-linecap:butt;stroke-linejoin:miter;stroke-opacity:1"
     d="M 10.240862,77.82635 C 8.0372819,139.57542 119.54124,132.22831 113.13708,75.38805 106.06671,14.443875 10.410772,25.023795 10.240862,77.82635 z"
     id="path3124"
     inkscape:connector-curvature="0"
     sodipodi:nodetypes="ccc" />
  <path
     style="fill:none;stroke:#000000;stroke-width:1px;stroke-linecap:butt;stroke-linejoin:miter;stroke-opacity:1"
     d="m 90.217072,40.276535 c -14.37519,1.55391 -13.36422,8.60288 -9.7532,16.580435 4.47212,6.76091 3.95055,13.06786 -5.85191,18.53108 -6.54688,6.13227 -15.32193,10.03638 -19.5064,18.53107 l -2.92596,-2.4383 0,0 0,0 0.48766,0.48766 c 2.16288,-12.40833 -6.91742,-19.10781 -20.48171,-18.04341 l -3.41362,10.72851 0,-1.46297"
     id="path3126"
     inkscape:connector-curvature="0"
     sodipodi:nodetypes="ccccccccccc" />
  <path
     style="fill:none;stroke:#000000;stroke-width:1px;stroke-linecap:butt;stroke-linejoin:miter;stroke-opacity:1"
     d="m 95.093672,46.128455 c 0.43972,6.921375 3.95721,11.277935 12.191498,11.703835 l 0,0 0,0"
     id="path3128"
     inkscape:connector-curvature="0"
     sodipodi:nodetypes="cccc" />
  <path
     style="fill:none;stroke:#000000;stroke-width:1px;stroke-linecap:butt;stroke-linejoin:miter;stroke-opacity:1"
     d="m 17.068092,70.02379 2.4383,7.3149 c 6.19661,1.62064 7.69571,4.41565 8.77788,7.31489"
     id="path3130"
     inkscape:connector-curvature="0"
     sodipodi:nodetypes="ccc" />
  <path
     style="fill:none;stroke:#000000;stroke-width:1px;stroke-linecap:butt;stroke-linejoin:miter;stroke-opacity:1"
     d="m 19.018732,77.33869 c 1.5615,9.52661 -0.92038,15.00984 -5.85192,18.04341 l 0,0"
     id="path3132"
     inkscape:connector-curvature="0"
     sodipodi:nodetypes="ccc" />
  <text
     xml:space="preserve"
     style="font-size:18px;font-style:normal;font-variant:normal;font-weight:normal;font-stretch:normal;line-height:125%;letter-spacing:0px;word-spacing:0px;fill:#000000;fill-opacity:1;stroke:none;font-family:DejaVu Sans Mono;-inkscape-font-specification:DejaVu Sans Mono"
     x="128.7422"
     y="51.98037"
     id="text3134"
     sodipodi:linespacing="125%"><tspan
       sodipodi:role="line"
       id="tspan3136"
       x="128.7422"
       y="51.98037">it's </tspan><tspan
       sodipodi:role="line"
       x="128.7422"
       y="74.48037"
       id="tspan3138">everywhere</tspan></text>
  <path
     style="fill:none;stroke:#000000;stroke-width:1px;stroke-linecap:butt;stroke-linejoin:miter;stroke-opacity:1"
     d="m 89.729412,65.14719 c 1.47025,2.09137 3.60867,2.17826 3.90128,7.80256 -3.41533,1.46298 -5.34634,2.92596 -13.65448,4.38894 l -5.85191,4.38894 1.46297,-6.82724 7.3149,-5.36426 z"
     id="path3140"
     inkscape:connector-curvature="0"
     sodipodi:nodetypes="ccccccc" />
</svg>
