<?xml version="1.0" encoding="UTF-8" standalone="no"?>
<!-- Created with Inkscape (http://www.inkscape.org/) -->

<svg
   xmlns:osb="http://www.openswatchbook.org/uri/2009/osb"
   xmlns:dc="http://purl.org/dc/elements/1.1/"
   xmlns:cc="http://creativecommons.org/ns#"
   xmlns:rdf="http://www.w3.org/1999/02/22-rdf-syntax-ns#"
   xmlns:svg="http://www.w3.org/2000/svg"
   xmlns="http://www.w3.org/2000/svg"
   xmlns:xlink="http://www.w3.org/1999/xlink"
   xmlns:sodipodi="http://sodipodi.sourceforge.net/DTD/sodipodi-0.dtd"
   xmlns:inkscape="http://www.inkscape.org/namespaces/inkscape"
   id="svg3036"
   version="1.1"
   inkscape:version="0.48.4 r9939"
   viewBox="0 0 350 100"
   sodipodi:docname="index 3.jpeg">
  <metadata
     id="metadata3042">
    <rdf:RDF>
      <cc:Work
         rdf:about="">
        <dc:format>image/svg+xml</dc:format>
        <dc:type
           rdf:resource="http://purl.org/dc/dcmitype/StillImage" />
        <dc:title></dc:title>
      </cc:Work>
    </rdf:RDF>
  </metadata>
  <defs
     id="defs3040">
    <linearGradient
       id="linearGradient3816"
       osb:paint="solid">
      <stop
         style="stop-color:#000000;stop-opacity:1;"
         offset="0"
         id="stop3818" />
    </linearGradient>
    <linearGradient
       inkscape:collect="always"
       xlink:href="#linearGradient3816"
       id="linearGradient3820"
       x1="133.13113"
       y1="746.11359"
       x2="157.51413"
       y2="746.11359"
       gradientUnits="userSpaceOnUse" />
    <linearGradient
       inkscape:collect="always"
       xlink:href="#linearGradient3816-9"
       id="linearGradient3820-7"
       x1="133.13113"
       y1="746.11359"
       x2="157.51413"
       y2="746.11359"
       gradientUnits="userSpaceOnUse" />
    <linearGradient
       id="linearGradient3816-9"
       osb:paint="solid">
      <stop
         style="stop-color:#000000;stop-opacity:1;"
         offset="0"
         id="stop3818-5" />
    </linearGradient>
    <linearGradient
       y2="746.11359"
       x2="157.51413"
       y1="746.11359"
       x1="133.13113"
       gradientUnits="userSpaceOnUse"
       id="linearGradient3836"
       xlink:href="#linearGradient3816-9"
       inkscape:collect="always" />
    <linearGradient
       inkscape:collect="always"
       xlink:href="#linearGradient3816-7"
       id="linearGradient3820-2"
       x1="133.13113"
       y1="746.11359"
       x2="157.51413"
       y2="746.11359"
       gradientUnits="userSpaceOnUse" />
    <linearGradient
       id="linearGradient3816-7"
       osb:paint="solid">
      <stop
         style="stop-color:#000000;stop-opacity:1;"
         offset="0"
         id="stop3818-0" />
    </linearGradient>
    <linearGradient
       y2="746.11359"
       x2="157.51413"
       y1="746.11359"
       x1="133.13113"
       gradientUnits="userSpaceOnUse"
       id="linearGradient3836-5"
       xlink:href="#linearGradient3816-7"
       inkscape:collect="always" />
    <linearGradient
       inkscape:collect="always"
       xlink:href="#linearGradient3816-5"
       id="linearGradient3820-6"
       x1="133.13113"
       y1="746.11359"
       x2="157.51413"
       y2="746.11359"
       gradientUnits="userSpaceOnUse" />
    <linearGradient
       id="linearGradient3816-5"
       osb:paint="solid">
      <stop
         style="stop-color:#000000;stop-opacity:1;"
         offset="0"
         id="stop3818-3" />
    </linearGradient>
    <linearGradient
       y2="746.11359"
       x2="157.51413"
       y1="746.11359"
       x1="133.13113"
       gradientUnits="userSpaceOnUse"
       id="linearGradient3836-7"
       xlink:href="#linearGradient3816-5"
       inkscape:collect="always" />
    <linearGradient
       inkscape:collect="always"
       xlink:href="#linearGradient3816-59"
       id="linearGradient3820-3"
       x1="133.13113"
       y1="746.11359"
       x2="157.51413"
       y2="746.11359"
       gradientUnits="userSpaceOnUse" />
    <linearGradient
       id="linearGradient3816-59"
       osb:paint="solid">
      <stop
         style="stop-color:#000000;stop-opacity:1;"
         offset="0"
         id="stop3818-1" />
    </linearGradient>
    <linearGradient
       y2="746.11359"
       x2="157.51413"
       y1="746.11359"
       x1="133.13113"
       gradientUnits="userSpaceOnUse"
       id="linearGradient3836-4"
       xlink:href="#linearGradient3816-59"
       inkscape:collect="always" />
    <linearGradient
       inkscape:collect="always"
       xlink:href="#linearGradient3816-51"
       id="linearGradient3820-4"
       x1="133.13113"
       y1="746.11359"
       x2="157.51413"
       y2="746.11359"
       gradientUnits="userSpaceOnUse" />
    <linearGradient
       id="linearGradient3816-51"
       osb:paint="solid">
      <stop
         style="stop-color:#000000;stop-opacity:1;"
         offset="0"
         id="stop3818-19" />
    </linearGradient>
    <linearGradient
       y2="746.11359"
       x2="157.51413"
       y1="746.11359"
       x1="133.13113"
       gradientUnits="userSpaceOnUse"
       id="linearGradient3836-3"
       xlink:href="#linearGradient3816-51"
       inkscape:collect="always" />
    <linearGradient
       inkscape:collect="always"
       xlink:href="#linearGradient3816-6"
       id="linearGradient3820-9"
       x1="133.13113"
       y1="746.11359"
       x2="157.51413"
       y2="746.11359"
       gradientUnits="userSpaceOnUse" />
    <linearGradient
       id="linearGradient3816-6"
       osb:paint="solid">
      <stop
         style="stop-color:#000000;stop-opacity:1;"
         offset="0"
         id="stop3818-6" />
    </linearGradient>
    <linearGradient
       y2="746.11359"
       x2="157.51413"
       y1="746.11359"
       x1="133.13113"
       gradientUnits="userSpaceOnUse"
       id="linearGradient3836-6"
       xlink:href="#linearGradient3816-6"
       inkscape:collect="always" />
    <linearGradient
       inkscape:collect="always"
       xlink:href="#linearGradient3816-2"
       id="linearGradient3820-36"
       x1="133.13113"
       y1="746.11359"
       x2="157.51413"
       y2="746.11359"
       gradientUnits="userSpaceOnUse" />
    <linearGradient
       id="linearGradient3816-2"
       osb:paint="solid">
      <stop
         style="stop-color:#000000;stop-opacity:1;"
         offset="0"
         id="stop3818-16" />
    </linearGradient>
    <linearGradient
       y2="746.11359"
       x2="157.51413"
       y1="746.11359"
       x1="133.13113"
       gradientUnits="userSpaceOnUse"
       id="linearGradient3836-9"
       xlink:href="#linearGradient3816-2"
       inkscape:collect="always" />
  </defs>
  <sodipodi:namedview
     pagecolor="#ffffff"
     bordercolor="#666666"
     borderopacity="1"
     objecttolerance="10"
     gridtolerance="10"
     guidetolerance="10"
     inkscape:pageopacity="0"
     inkscape:pageshadow="2"
     inkscape:window-width="1313"
     inkscape:window-height="750"
     id="namedview3038"
     showgrid="false"
     inkscape:zoom="0.45254834"
     inkscape:cx="799.04852"
     inkscape:cy="-321.49125"
     inkscape:window-x="53"
     inkscape:window-y="18"
     inkscape:window-maximized="1"
     inkscape:current-layer="svg3036" />
  <path
     sodipodi:type="arc"
     style="fill:none;stroke:url(#linearGradient3820)"
     id="path3046"
     sodipodi:cx="145.32263"
     sodipodi:cy="746.11359"
     sodipodi:rx="12.191496"
     sodipodi:ry="10.972346"
     d="m 157.51413,746.11359 a 12.191496,10.972346 0 1 1 -24.38299,0 12.191496,10.972346 0 1 1 24.38299,0 z"
     transform="matrix(0.77731728,-0.12564975,0.13606475,0.8417484,-188.39175,-585.36746)" />
  <path
     transform="matrix(0.71528123,0,0,0.55031246,-41.76992,-378.62416)"
     sodipodi:type="arc"
     style="fill:none;stroke:url(#linearGradient3836)"
     id="path3046-0"
     sodipodi:cx="145.32263"
     sodipodi:cy="746.11359"
     sodipodi:rx="12.191496"
     sodipodi:ry="10.972346"
     d="m 157.51413,746.11359 a 12.191496,10.972346 0 1 1 -24.38299,0 12.191496,10.972346 0 1 1 24.38299,0 z" />
  <path
     transform="matrix(0.77179568,0,0,0.65755071,-3.898885,-462.29353)"
     sodipodi:type="arc"
     style="fill:none;stroke:url(#linearGradient3836-5)"
     id="path3046-5"
     sodipodi:cx="145.32263"
     sodipodi:cy="746.11359"
     sodipodi:rx="12.191496"
     sodipodi:ry="10.972346"
     d="m 157.51413,746.11359 a 12.191496,10.972346 0 1 1 -24.38299,0 12.191496,10.972346 0 1 1 24.38299,0 z" />
  <path
     transform="matrix(0.80874745,0,0,0.76527494,40.960135,-545.83782)"
     sodipodi:type="arc"
     style="fill:none;stroke:url(#linearGradient3836-7)"
     id="path3046-6"
     sodipodi:cx="145.32263"
     sodipodi:cy="746.11359"
     sodipodi:rx="12.191496"
     sodipodi:ry="10.972346"
     d="m 157.51413,746.11359 a 12.191496,10.972346 0 1 1 -24.38299,0 12.191496,10.972346 0 1 1 24.38299,0 z" />
  <path
     transform="matrix(0.71114602,0,0,0.74571779,96.351105,-523.68724)"
     sodipodi:type="arc"
     style="fill:none;stroke:url(#linearGradient3836-4)"
     id="path3046-9"
     sodipodi:cx="145.32263"
     sodipodi:cy="746.11359"
     sodipodi:rx="12.191496"
     sodipodi:ry="10.972346"
     d="m 157.51413,746.11359 a 12.191496,10.972346 0 1 1 -24.38299,0 12.191496,10.972346 0 1 1 24.38299,0 z" />
  <path
     transform="matrix(0.81059826,0,0,0.67844252,128.95761,-474.22374)"
     sodipodi:type="arc"
     style="fill:none;stroke:url(#linearGradient3836-3)"
     id="path3046-3"
     sodipodi:cx="145.32263"
     sodipodi:cy="746.11359"
     sodipodi:rx="12.191496"
     sodipodi:ry="10.972346"
     d="m 157.51413,746.11359 a 12.191496,10.972346 0 1 1 -24.38299,0 12.191496,10.972346 0 1 1 24.38299,0 z" />
  <path
     transform="matrix(0.78957888,0,0,0.74397651,167.85519,-521.41273)"
     sodipodi:type="arc"
     style="fill:none;stroke:url(#linearGradient3836-6)"
     id="path3046-67"
     sodipodi:cx="145.32263"
     sodipodi:cy="746.11359"
     sodipodi:rx="12.191496"
     sodipodi:ry="10.972346"
     d="m 157.51413,746.11359 a 12.191496,10.972346 0 1 1 -24.38299,0 12.191496,10.972346 0 1 1 24.38299,0 z" />
  <path
     transform="matrix(0.71072254,0,0,0.76746953,214.91398,-538.2097)"
     sodipodi:type="arc"
     style="fill:none;stroke:url(#linearGradient3836-9)"
     id="path3046-64"
     sodipodi:cx="145.32263"
     sodipodi:cy="746.11359"
     sodipodi:rx="12.191496"
     sodipodi:ry="10.972346"
     d="m 157.51413,746.11359 a 12.191496,10.972346 0 1 1 -24.38299,0 12.191496,10.972346 0 1 1 24.38299,0 z" />
  <path
     style="fill:none;stroke:#000000;stroke-width:1px;stroke-linecap:butt;stroke-linejoin:miter;stroke-opacity:1"
     d="m 24.870655,33.678263 -2.4383,30.72257 -11.21618,14.62979 0.97532,1.46298"
     id="path3943"
     inkscape:connector-curvature="0" />
  <path
     style="fill:none;stroke:#000000;stroke-width:1px;stroke-linecap:butt;stroke-linejoin:miter;stroke-opacity:1"
     d="m 22.920015,65.376153 12.19149,11.21617"
     id="path3945"
     inkscape:connector-curvature="0" />
  <path
     style="fill:none;stroke:#000000;stroke-width:1px;stroke-linecap:butt;stroke-linejoin:miter;stroke-opacity:1"
     d="m 14.629795,38.067193 9.7532,8.77788 17.06809,-5.36426 21.45704,6.33958 0,-10.24086 0.48766,30.72257 -3.90128,9.26554 -3.90128,2.92596 0,0 0,0"
     id="path3947"
     inkscape:connector-curvature="0"
     sodipodi:nodetypes="cccccccccc" />
  <path
     style="fill:none;stroke:#000000;stroke-width:1px;stroke-linecap:butt;stroke-linejoin:miter;stroke-opacity:1"
     d="m 63.395785,68.302103 20.48171,9.7532 0,0 -0.48766,1.95064"
     id="path3949"
     inkscape:connector-curvature="0" />
  <path
     style="fill:none;stroke:#000000;stroke-width:1px;stroke-linecap:butt;stroke-linejoin:miter;stroke-opacity:1"
     d="m 62.908125,47.332733 17.55575,5.36426 0.48766,0.48766"
     id="path3951"
     inkscape:connector-curvature="0" />
  <path
     style="fill:none;stroke:#000000;stroke-width:1px;stroke-linecap:butt;stroke-linejoin:miter;stroke-opacity:1"
     d="m 107.77282,35.628893 4.38894,34.62385 -12.679159,11.21618"
     id="path3955"
     inkscape:connector-curvature="0" />
  <path
     style="fill:none;stroke:#000000;stroke-width:1px;stroke-linecap:butt;stroke-linejoin:miter;stroke-opacity:1"
     d="m 77.050255,54.647633 31.697885,-10.72852 16.58044,8.77788 c 8.18432,1.12654 10.39057,3.4487 12.19149,5.85192"
     id="path3957"
     inkscape:connector-curvature="0"
     sodipodi:nodetypes="cccc" />
  <path
     style="fill:none;stroke:#000000;stroke-width:1px;stroke-linecap:butt;stroke-linejoin:miter;stroke-opacity:1"
     d="m 112.64942,70.740403 10.24086,8.77788"
     id="path3959"
     inkscape:connector-curvature="0" />
  <path
     style="fill:none;stroke:#000000;stroke-width:1px;stroke-linecap:butt;stroke-linejoin:miter;stroke-opacity:1"
     d="m 134.10645,59.524233 c 7.79215,-0.13132 17.41404,-5.75188 27.79662,-13.65448 6.29852,-3.37592 13.89208,2.31349 21.45703,7.80256 l 0,-0.48766"
     id="path3961"
     inkscape:connector-curvature="0"
     sodipodi:nodetypes="cccc" />
  <path
     style="fill:none;stroke:#000000;stroke-width:1px;stroke-linecap:butt;stroke-linejoin:miter;stroke-opacity:1"
     d="m 160.92775,34.165913 1.46297,34.13619 -11.70383,12.1915 11.70383,-12.67916 0.97532,0.97532 13.16682,11.21618"
     id="path3963"
     inkscape:connector-curvature="0" />
  <path
     style="fill:none;stroke:#000000;stroke-width:1px;stroke-linecap:butt;stroke-linejoin:miter;stroke-opacity:1"
     d="m 182.87244,52.696993 15.60511,-6.33958 c 3.57065,-0.0721 6.76126,-1.66437 11.55379,3.15103 3.70599,2.51993 7.46152,5.23801 9.90325,2.70089 l 0.48766,0.48766"
     id="path3965"
     inkscape:connector-curvature="0"
     sodipodi:nodetypes="ccccc" />
  <path
     style="fill:none;stroke:#000000;stroke-width:1px;stroke-linecap:butt;stroke-linejoin:miter;stroke-opacity:1"
     d="m 198.47755,41.480813 0.97532,31.69789 -6.33957,9.7532"
     id="path3967"
     inkscape:connector-curvature="0" />
  <path
     style="fill:none;stroke:#000000;stroke-width:1px;stroke-linecap:butt;stroke-linejoin:miter;stroke-opacity:1"
     d="m 198.96521,73.178703 14.6298,7.80256 0,0"
     id="path3969"
     inkscape:connector-curvature="0" />
  <path
     style="fill:none;stroke:#000000;stroke-width:1px;stroke-linecap:butt;stroke-linejoin:miter;stroke-opacity:1"
     d="m 220.90991,53.672313 24.38299,-7.80256 19.50639,12.1915 -3.41362,0.48766 0,0"
     id="path3971"
     inkscape:connector-curvature="0" />
  <path
     style="fill:none;stroke:#000000;stroke-width:1px;stroke-linecap:butt;stroke-linejoin:miter;stroke-opacity:1"
     d="m 245.2929,39.530173 0.97532,35.59917 -8.29022,7.3149 0,0"
     id="path3973"
     inkscape:connector-curvature="0" />
  <path
     style="fill:none;stroke:#000000;stroke-width:1px;stroke-linecap:butt;stroke-linejoin:miter;stroke-opacity:1"
     d="m 245.78056,74.154023 14.62979,9.7532"
     id="path3975"
     inkscape:connector-curvature="0" />
  <path
     style="fill:none;stroke:#000000;stroke-width:1px;stroke-linecap:butt;stroke-linejoin:miter;stroke-opacity:1"
     d="m 262.84865,56.110613 17.55576,-6.33958 0,0 -0.48766,27.30895 -4.8766,6.33958"
     id="path3977"
     inkscape:connector-curvature="0" />
  <path
     style="fill:none;stroke:#000000;stroke-width:1px;stroke-linecap:butt;stroke-linejoin:miter;stroke-opacity:1"
     d="m 279.42909,77.567643 15.11745,4.8766"
     id="path3979"
     inkscape:connector-curvature="0" />
  <path
     style="fill:none;stroke:#000000;stroke-width:1px;stroke-linecap:butt;stroke-linejoin:miter;stroke-opacity:1"
     d="m 280.40441,49.771033 23.40767,4.38894"
     id="path3981"
     inkscape:connector-curvature="0" />
  <path
     style="fill:none;stroke:#000000;stroke-width:1px;stroke-linecap:butt;stroke-linejoin:miter;stroke-opacity:1"
     d="m 279.91675,41.480813 -0.48766,8.77788"
     id="path3983"
     inkscape:connector-curvature="0" />
  <path
     style="fill:none;stroke:#000000;stroke-width:1px;stroke-linecap:butt;stroke-linejoin:miter;stroke-opacity:1"
     d="m 317.95422,41.480813 0.48766,32.67321 -5.85192,9.26554 6.82724,-10.72852 13.16681,6.82724"
     id="path3985"
     inkscape:connector-curvature="0" />
  <path
     style="fill:none;stroke:#000000;stroke-width:1px;stroke-linecap:butt;stroke-linejoin:miter;stroke-opacity:1"
     d="m 303.81208,59.036573 15.11746,-11.21618 c 5.65815,0.58779 11.58312,1.70921 18.53107,4.8766 l -1.46298,0"
     id="path3987"
     inkscape:connector-curvature="0"
     sodipodi:nodetypes="cccc" />
</svg>
