<?xml version="1.0" encoding="UTF-8" standalone="no"?>
<!-- Created with Inkscape (http://www.inkscape.org/) -->

<svg
   xmlns:dc="http://purl.org/dc/elements/1.1/"
   xmlns:cc="http://creativecommons.org/ns#"
   xmlns:rdf="http://www.w3.org/1999/02/22-rdf-syntax-ns#"
   xmlns:svg="http://www.w3.org/2000/svg"
   xmlns="http://www.w3.org/2000/svg"
   xmlns:sodipodi="http://sodipodi.sourceforge.net/DTD/sodipodi-0.dtd"
   xmlns:inkscape="http://www.inkscape.org/namespaces/inkscape"
   id="svg4281"
   version="1.1"
   inkscape:version="0.91 r13725"
   viewBox="0 0 600 400"
   sodipodi:docname="page12.svg">
  <metadata
     id="metadata4287">
    <rdf:RDF>
      <cc:Work
         rdf:about="">
        <dc:format>image/svg+xml</dc:format>
        <dc:type
           rdf:resource="http://purl.org/dc/dcmitype/StillImage" />
        <dc:title></dc:title>
      </cc:Work>
    </rdf:RDF>
  </metadata>
  <defs
     id="defs4285" />
  <sodipodi:namedview
     pagecolor="#ffffff"
     bordercolor="#666666"
     borderopacity="1"
     objecttolerance="10"
     gridtolerance="10"
     guidetolerance="10"
     inkscape:pageopacity="0"
     inkscape:pageshadow="2"
     inkscape:window-width="1366"
     inkscape:window-height="768"
     id="namedview4283"
     showgrid="false"
     inkscape:zoom="0.34419668"
     inkscape:cx="172.33652"
     inkscape:cy="737.84659"
     inkscape:window-x="0"
     inkscape:window-y="0"
     inkscape:window-maximized="0"
     inkscape:current-layer="svg4281" />
  <path
     style="opacity:0.95;fill:none;fill-rule:evenodd;stroke:#000000;stroke-width:2;stroke-linecap:butt;stroke-linejoin:miter;stroke-miterlimit:4;stroke-dasharray:none;stroke-opacity:1"
     d="m 237.27955,95.9535 -144.83297,0 -59.57669,88.3378 -5.13592,105.8 141.75142,-7.1903 73.95726,-65.7398 -4.10873,-128.398 -80.12037,103.7456 10.27184,95.5281 -7.19029,-98.6097 -131.47957,-2.0543"
     id="path4291"
     inkscape:connector-curvature="0" />
  <path
     style="fill:none;fill-rule:evenodd;stroke:#000000;stroke-width:6;stroke-linecap:butt;stroke-linejoin:miter;stroke-miterlimit:4;stroke-dasharray:none;stroke-opacity:1"
     d="m 119.15337,126.769 32.86989,1.0272 -6.16311,25.6796 -33.89707,-3.0816 z"
     id="path4293"
     inkscape:connector-curvature="0" />
  <path
     style="fill:none;fill-rule:evenodd;stroke:#000000;stroke-width:2;stroke-linecap:butt;stroke-linejoin:miter;stroke-miterlimit:4;stroke-dasharray:none;stroke-opacity:1"
     d="m 147.91452,125.7418 15.40777,-15.4077 19.5165,25.6796 -36.97864,16.4349"
     id="path4295"
     inkscape:connector-curvature="0" />
  <path
     style="fill:none;fill-rule:evenodd;stroke:#000000;stroke-width:2;stroke-linecap:butt;stroke-linejoin:miter;stroke-miterlimit:4;stroke-dasharray:none;stroke-opacity:1"
     d="M 333.83486,63.0836 C 259.13694,3.3952 227.41749,29.6637 201.3281,67.1923 L 186.94752,64.1108 221.87178,77.4642 195.165,89.7904 187.97471,66.1651"
     id="path4297"
     inkscape:connector-curvature="0"
     sodipodi:nodetypes="cccccc" />
  <path
     style="fill:none;fill-rule:evenodd;stroke:#000000;stroke-width:2;stroke-linecap:butt;stroke-linejoin:miter;stroke-miterlimit:4;stroke-dasharray:none;stroke-opacity:1"
     d="m 392.38436,170.9379 -96.55531,2.0544 -2.05437,-15.4078 -26.70679,18.4893 30.81552,12.3263 -4.10873,-16.435"
     id="path4299"
     inkscape:connector-curvature="0" />
  <path
     style="fill:none;fill-rule:evenodd;stroke:#000000;stroke-width:2;stroke-linecap:butt;stroke-linejoin:miter;stroke-miterlimit:4;stroke-dasharray:none;stroke-opacity:1"
     d="m 131.47958,294.2 0,42.1146 15.40776,0 -11.29903,21.5708 -21.57087,-20.5436 19.5165,2.0543"
     id="path4301"
     inkscape:connector-curvature="0" />
  <path
     style="fill:none;fill-rule:evenodd;stroke:#000000;stroke-width:2;stroke-linecap:butt;stroke-linejoin:miter;stroke-miterlimit:4;stroke-dasharray:none;stroke-opacity:1"
     d="m 173.59413,351.7223 c 4.10873,-1.0271 74.98444,0 74.98444,0 l -3.08155,-15.4077 22.59805,15.4077 -19.5165,15.4078 -2.05437,-14.3806"
     id="path4303"
     inkscape:connector-curvature="0" />
  <path
     style="fill:none;fill-rule:evenodd;stroke:#000000;stroke-width:2;stroke-linecap:butt;stroke-linejoin:miter;stroke-miterlimit:4;stroke-dasharray:none;stroke-opacity:1"
     d="m 370.81349,52.8117 -2.05437,39.033 -4.10873,0"
     id="path4305"
     inkscape:connector-curvature="0" />
  <path
     style="fill:none;fill-rule:evenodd;stroke:#000000;stroke-width:2;stroke-linecap:butt;stroke-linejoin:miter;stroke-miterlimit:4;stroke-dasharray:none;stroke-opacity:1"
     d="m 365.67757,34.3224 -3.08155,10.2719"
     id="path4307"
     inkscape:connector-curvature="0" />
  <path
     style="fill:none;fill-rule:evenodd;stroke:#000000;stroke-width:2;stroke-linecap:butt;stroke-linejoin:miter;stroke-miterlimit:4;stroke-dasharray:none;stroke-opacity:1"
     d="m 386.22125,89.7904 1.02719,-30.8156 0,15.4078 c 1.98286,-13.7033 10.25635,-11.6801 17.46213,-12.3262 l 1.02718,34.9243"
     id="path4309"
     inkscape:connector-curvature="0"
     sodipodi:nodetypes="ccccc" />
  <path
     style="fill:none;fill-rule:evenodd;stroke:#000000;stroke-width:2;stroke-linecap:butt;stroke-linejoin:miter;stroke-miterlimit:4;stroke-dasharray:none;stroke-opacity:1"
     d="m 500.25644,143.2828 0,-12.3262 c 18.98644,-10.9739 17.9115,-5.9886 27.73398,5.1359 6.81855,34.013 -28.35151,17.67 -24.65242,35.9515 l -3.08156,12.3262 0,0"
     id="path4311"
     inkscape:connector-curvature="0"
     sodipodi:nodetypes="cccccc" />
  <path
     style="fill:none;fill-rule:evenodd;stroke:#000000;stroke-width:2;stroke-linecap:butt;stroke-linejoin:miter;stroke-miterlimit:4;stroke-dasharray:none;stroke-opacity:1"
     d="m 507.44673,187.4517 c -9.24465,11.299 -9.24465,11.299 -9.24465,11.299"
     id="path4313"
     inkscape:connector-curvature="0" />
  <path
     style="fill:none;fill-rule:evenodd;stroke:#000000;stroke-width:2;stroke-linecap:butt;stroke-linejoin:miter;stroke-miterlimit:4;stroke-dasharray:none;stroke-opacity:1"
     d="m 455.06034,142.2556 0,-12.3262 c 18.98644,-10.9739 17.9115,-5.9886 27.73398,5.1359 6.81855,34.013 -28.35151,17.67 -24.65242,35.9515 l -3.08156,12.3262 0,0"
     id="path4311-0"
     inkscape:connector-curvature="0"
     sodipodi:nodetypes="cccccc" />
  <path
     style="fill:none;fill-rule:evenodd;stroke:#000000;stroke-width:2;stroke-linecap:butt;stroke-linejoin:miter;stroke-miterlimit:4;stroke-dasharray:none;stroke-opacity:1"
     d="m 462.25063,186.4245 c -9.24465,11.299 -9.24465,11.299 -9.24465,11.299"
     id="path4313-3"
     inkscape:connector-curvature="0" />
  <path
     style="fill:none;fill-rule:evenodd;stroke:#000000;stroke-width:2;stroke-linecap:butt;stroke-linejoin:miter;stroke-miterlimit:4;stroke-dasharray:none;stroke-opacity:1"
     d="m 321.50865,341.3221 c -5.96271,-0.7611 -7.93255,3.8344 -11.29902,14.3806 -0.32849,3.1529 -2.11183,8.3113 5.9063,11.5558 9.2848,-5.3978 13.8745,-18.0798 5.39272,-25.9364 z"
     id="path4343"
     inkscape:connector-curvature="0"
     sodipodi:nodetypes="cccc" />
  <path
     style="fill:none;fill-rule:evenodd;stroke:#000000;stroke-width:2;stroke-linecap:butt;stroke-linejoin:miter;stroke-miterlimit:4;stroke-dasharray:none;stroke-opacity:1"
     d="m 341.02515,342.4777 c -5.60251,10.692 -7.6279,20.7878 3.08155,28.7611 16.12182,-4.3272 12.81109,-15.132 13.3534,-24.6524 l -1.02719,20.5437 14.38058,1.0272 0,-1.0272"
     id="path4345"
     inkscape:connector-curvature="0"
     sodipodi:nodetypes="cccccc" />
  <path
     style="fill:none;fill-rule:evenodd;stroke:#000000;stroke-width:2;stroke-linecap:butt;stroke-linejoin:miter;stroke-miterlimit:4;stroke-dasharray:none;stroke-opacity:1"
     d="m 383.1397,318.8524 c 3.08155,4.1088 2.05437,53.4136 2.05437,53.4136"
     id="path4347"
     inkscape:connector-curvature="0" />
  <path
     style="fill:none;fill-rule:evenodd;stroke:#000000;stroke-width:2;stroke-linecap:butt;stroke-linejoin:miter;stroke-miterlimit:4;stroke-dasharray:none;stroke-opacity:1"
     d="m 371.84068,336.3146 26.70678,2.0543"
     id="path4349"
     inkscape:connector-curvature="0" />
</svg>
