<?xml version="1.0" encoding="UTF-8" standalone="no"?>
<!-- Created with Inkscape (http://www.inkscape.org/) -->

<svg
   xmlns:dc="http://purl.org/dc/elements/1.1/"
   xmlns:cc="http://creativecommons.org/ns#"
   xmlns:rdf="http://www.w3.org/1999/02/22-rdf-syntax-ns#"
   xmlns:svg="http://www.w3.org/2000/svg"
   xmlns="http://www.w3.org/2000/svg"
   xmlns:sodipodi="http://sodipodi.sourceforge.net/DTD/sodipodi-0.dtd"
   xmlns:inkscape="http://www.inkscape.org/namespaces/inkscape"
   id="svg5131"
   version="1.1"
   inkscape:version="0.91 r13725"
   viewBox="0 0 750 400"
   sodipodi:docname="page10.svg">
  <metadata
     id="metadata5137">
    <rdf:RDF>
      <cc:Work
         rdf:about="">
        <dc:format>image/svg+xml</dc:format>
        <dc:type
           rdf:resource="http://purl.org/dc/dcmitype/StillImage" />
        <dc:title></dc:title>
      </cc:Work>
    </rdf:RDF>
  </metadata>
  <defs
     id="defs5135" />
  <sodipodi:namedview
     pagecolor="#ffffff"
     bordercolor="#666666"
     borderopacity="1"
     objecttolerance="10"
     gridtolerance="10"
     guidetolerance="10"
     inkscape:pageopacity="0"
     inkscape:pageshadow="2"
     inkscape:window-width="1366"
     inkscape:window-height="768"
     id="namedview5133"
     showgrid="false"
     inkscape:zoom="0.2698685"
     inkscape:cx="432.47922"
     inkscape:cy="1129.3169"
     inkscape:window-x="0"
     inkscape:window-y="0"
     inkscape:window-maximized="0"
     inkscape:current-layer="svg5131" />
  <path
     style="fill:none;fill-rule:evenodd;stroke:#000000;stroke-width:2;stroke-linecap:butt;stroke-linejoin:miter;stroke-miterlimit:4;stroke-dasharray:none;stroke-opacity:1"
     d="M 25.161766,212.7643 165.34195,203.5937"
     id="path5681"
     inkscape:connector-curvature="0" />
  <path
     style="fill:none;fill-rule:evenodd;stroke:#000000;stroke-width:2;stroke-linecap:butt;stroke-linejoin:miter;stroke-miterlimit:4;stroke-dasharray:none;stroke-opacity:1"
     d="m 264.90917,210.1441 529.27842,2.6202"
     id="path5683"
     inkscape:connector-curvature="0" />
  <path
     style="fill:none;fill-rule:evenodd;stroke:#000000;stroke-width:2;stroke-linecap:butt;stroke-linejoin:miter;stroke-miterlimit:4;stroke-dasharray:none;stroke-opacity:1"
     d="m 323.86345,252.0672 c 159.18631,-24.3038 154.64427,18.7966 267.2594,1.3101 73.29706,-4.0463 144.58601,-5.0803 210.92531,1.3101"
     id="path5685"
     inkscape:connector-curvature="0"
     sodipodi:nodetypes="ccc" />
  <path
     style="fill:none;fill-rule:evenodd;stroke:#000000;stroke-width:2;stroke-linecap:butt;stroke-linejoin:miter;stroke-miterlimit:4;stroke-dasharray:none;stroke-opacity:1"
     d="m 6.8204464,258.6177 c 28.2342596,-1.1673 49.3041996,-11.8122 90.3965496,-6.5505 20.088134,6.0678 40.176254,2.9508 60.264384,-1.3101"
     id="path5687"
     inkscape:connector-curvature="0"
     sodipodi:nodetypes="ccc" />
  <path
     style="fill:none;fill-rule:evenodd;stroke:#000000;stroke-width:2;stroke-linecap:butt;stroke-linejoin:miter;stroke-miterlimit:4;stroke-dasharray:none;stroke-opacity:1"
     d="m 30.402146,180.012 c 12.74361,-9.1443 26.70566,-17.8823 49.78362,-23.5818 18.29252,20.1003 30.749324,0.3586 45.853324,-1.31 25.7652,5.4929 51.53041,9.0999 77.29561,-2.6202 58.47973,13.0864 56.79505,3.0326 73.36533,0 20.62592,-11.7565 40.92536,5.803 53.7139,-10.4808 52.84972,21.2222 33.23704,-14.4427 129.69941,11.7909 86.34053,-11.9166 119.47628,4.1879 167.69217,-6.5505 60.69781,4.8803 103.79622,30.2932 183.41331,13.1009"
     id="path5689"
     inkscape:connector-curvature="0"
     sodipodi:nodetypes="ccccccccc" />
  <path
     style="fill:none;fill-rule:evenodd;stroke:#000000;stroke-width:2;stroke-linecap:butt;stroke-linejoin:miter;stroke-miterlimit:4;stroke-dasharray:none;stroke-opacity:1"
     d="m 440.02914,162.8474 9.72696,0.4632 c 11.98805,6.1759 11.22279,10.9622 17.60117,17.138 -1.01116,1.8679 -1.0007,4.0085 -3.24233,8.3374 0.8168,2.1795 -3.55155,3.9524 -8.80058,3.7055 2.09188,-5.2645 2.18152,-6.5246 6.48464,-16.2116 l -3.70551,7.411 -5.09507,-0.9263 c -6.09873,-3.0878 -9.19943,-12.1716 -12.96928,-19.9172 z"
     id="path5693"
     inkscape:connector-curvature="0"
     sodipodi:nodetypes="ccccccccc" />
  <path
     style="fill:none;fill-rule:evenodd;stroke:#000000;stroke-width:2;stroke-linecap:butt;stroke-linejoin:miter;stroke-miterlimit:4;stroke-dasharray:none;stroke-opacity:1"
     d="m 252.43777,75.768 -23.15943,6.0214 c -37.54859,1.4551 -30.30099,-3.5055 -45.87353,-3.7058 -3.91065,-0.05 -9.26041,0.1996 -17.12011,0.9267 -20.52908,8.9606 -46.21169,13.2309 -69.015104,19.9171 l 17.137984,0.4632 c 27.90145,7.0584 35.03766,4.8048 61.14089,-0.4632 l 11.11653,2.316 -10.19015,-1.8528 c 0,0 -9.96614,5.3191 -3.70551,18.5276 l -5.09507,10.1901 15.28522,-5.5583 c 13.95474,-1.3093 25.12065,-4.7876 17.13797,-23.1594 l 3.70551,10.6534 6.94783,-1.8528 c 23.906,6.675 28.70117,17.1722 86.15307,17.138 2.09843,-2.8535 6.10549,-5.3253 14.35885,-6.9479 -7.44705,-2.109 -12.74135,-5.5097 -25.93856,-4.1687 -18.36065,-4.3846 -26.39657,4.1366 -57.89857,-16.6747 3.90503,-4.3873 9.70048,-4.9937 12.96928,-10.6534 0.60858,-5.0678 5.27293,-8.5133 12.0429,-11.1165 z"
     id="path5695"
     inkscape:connector-curvature="0"
     sodipodi:nodetypes="ccscccccccccccccccccc" />
  <path
     style="fill:none;fill-rule:evenodd;stroke:#000000;stroke-width:2;stroke-linecap:butt;stroke-linejoin:miter;stroke-miterlimit:4;stroke-dasharray:none;stroke-opacity:1"
     d="m 168.61718,276.3039 -14.41104,15.0661 -3.27524,15.7212 -15.72114,6.5505 c 0,0 3.27524,7.2055 0.65505,9.8257 -2.62019,2.6202 -12.44591,6.5504 -12.44591,6.5504 0,0 -1.31009,12.446 -5.24038,14.4111 -3.93028,1.9651 -13.10095,3.9303 -13.10095,3.9303 l 5.24038,13.1009 19.65143,0 -10.48076,7.8606 10.48076,-9.1707 22.92666,-20.9615 -5.24038,-1.9651 15.0661,-3.9303 18.34133,-21.6166 -1.96515,-4.5853 c 0,0 9.82572,0 10.48077,-2.6202 0.65504,-2.6202 4.58533,-13.756 4.58533,-13.756 l 7.20552,-3.2752 24.89181,-17.0313 6.55047,-13.756 10.48076,-2.6202 3.27524,-7.2055 15.0661,-9.1707 -0.65505,-10.4807 -22.92667,-1.9652 -12.4459,3.9303 c 0,0 -8.51562,8.5156 -8.51562,12.4459 0,3.9303 3.27524,8.5156 -1.96514,9.1707 -5.24038,0.655 -14.41105,5.2404 -14.41105,5.2404 l -3.93028,11.1358 -10.48076,11.1358 c 0,0 1.96514,13.756 -1.3101,13.756 -3.27523,0 -17.68628,-2.6202 -20.30647,0 -2.62019,2.6202 -5.89543,14.411 -9.82571,15.7211 -3.93029,1.3101 -21.61657,10.4808 -21.61657,10.4808 0,0 1.96514,14.411 -0.65505,16.3762 -2.62019,1.9651 -23.58171,13.756 -23.58171,13.756 l 12.4459,9.8257 c 0,0 2.62019,10.4808 9.17067,7.2055 6.55047,-3.2752 16.37619,-4.5853 16.37619,-4.5853 0,0 7.20552,8.5156 14.41104,8.5156 7.20552,0 21.61657,-0.655 21.61657,-0.655 l 0,-13.756 c 0,0 10.48076,-4.5854 13.10095,-8.5157 2.62019,-3.9302 8.51562,-15.0661 8.51562,-15.0661 0,0 9.82571,1.3101 12.4459,-1.3101 2.62019,-2.6201 10.48076,-16.3761 10.48076,-16.3761 0,0 7.20553,1.9651 7.86057,-1.3101 0.65505,-3.2753 -1.31009,-9.8257 -1.31009,-9.8257 l 18.34133,-7.2056 0.65505,-15.7211 17.03123,-2.6202 -1.31009,-17.0312 7.20552,-5.2404 18.99638,-15.7212 2.62019,-5.8954 14.41105,7.2055 18.99637,3.9303 -20.96152,11.7909 c 0,0 3.93029,15.7211 0,16.3762 -3.93028,0.655 -18.99638,4.5853 -18.99638,4.5853 l -1.31009,9.8257 -10.48076,10.4808 c 0,0 3.27524,10.4807 -3.27524,11.1358 -6.55047,0.655 -11.79085,1.3101 -11.79085,1.3101 l -9.82572,11.7908 -17.03123,8.5156 -4.58534,9.1707 -11.1358,1.3101 -0.65505,9.1707 c 0,0 -6.55048,1.3101 -6.55048,5.8954 0,4.5853 3.27524,13.756 -1.31009,15.0661 -4.58534,1.3101 -19.65143,7.2055 -21.61657,11.7909 -1.96514,4.5853 3.27524,-11.7909 7.86057,-16.3762 4.58533,-4.5854 9.82571,-9.8258 9.82571,-9.8258 l -17.03123,4.5854 -8.51562,7.2055 -3.27524,-0.655"
     id="path5697"
     inkscape:connector-curvature="0" />
  <path
     style="fill:none;fill-rule:evenodd;stroke:#000000;stroke-width:4;stroke-linecap:butt;stroke-linejoin:miter;stroke-miterlimit:4;stroke-dasharray:none;stroke-opacity:1"
     d="m 207.04529,277.7182 1.85275,44.4661 -0.46319,0.4632 0,0"
     id="path4200"
     inkscape:connector-curvature="0" />
  <path
     style="fill:none;fill-rule:evenodd;stroke:#000000;stroke-width:4;stroke-linecap:butt;stroke-linejoin:miter;stroke-miterlimit:4;stroke-dasharray:none;stroke-opacity:1"
     d="m 249.19545,233.7153 0,39.371"
     id="path4202"
     inkscape:connector-curvature="0" />
  <path
     style="fill:none;fill-rule:evenodd;stroke:#000000;stroke-width:4;stroke-linecap:butt;stroke-linejoin:miter;stroke-miterlimit:4;stroke-dasharray:none;stroke-opacity:1"
     d="m 283.00821,241.5895 c 0,4.6319 0.46319,44.9293 0.46319,44.9293"
     id="path4204"
     inkscape:connector-curvature="0" />
  <path
     style="fill:none;fill-rule:evenodd;stroke:#000000;stroke-width:1px;stroke-linecap:butt;stroke-linejoin:miter;stroke-opacity:1"
     d="m 284.86096,271.6968 12.04291,-5.5583 -5.09508,-11.5797 7.87421,-15.7484 -8.3374,-10.1902 -8.80058,2.316 -9.26377,-0.9264 1.85275,10.6533 -0.92637,12.5061 2.77913,7.411 -7.87421,1.8528 13.43247,10.1902"
     id="path4206"
     inkscape:connector-curvature="0" />
  <path
     style="fill:none;fill-rule:evenodd;stroke:#000000;stroke-width:1px;stroke-linecap:butt;stroke-linejoin:miter;stroke-opacity:1"
     d="m 251.51139,260.5802 -12.96928,-5.5582 7.8742,-2.7791 -3.7055,-6.9479 8.33739,1.8528 -14.82203,-7.8742 6.48464,-5.0951 9.72696,-14.3588 8.33739,-0.9264 -5.09507,14.822 9.26377,7.8742 -7.41102,1.8528 7.41102,9.2637 -13.43247,-2.3159 1.85275,6.9478"
     id="path4208"
     inkscape:connector-curvature="0" />
  <path
     style="fill:none;fill-rule:evenodd;stroke:#000000;stroke-width:1px;stroke-linecap:butt;stroke-linejoin:miter;stroke-opacity:1"
     d="m 208.89804,308.2887 19.45392,-12.0429 c 0,0 -13.43247,-1.8528 -10.65334,-5.5583 2.77914,-3.7055 6.48464,-4.1687 5.55827,-9.727 -0.92638,-5.5582 -1.85276,-9.2637 -1.85276,-9.2637 l -8.80058,0 c 0,0 -4.63189,4.6319 -4.63189,8.3374 0,3.7055 4.1687,8.8006 0.46319,12.0429 -3.70551,3.2423 -7.8742,6.0214 -7.8742,6.0214 0,0 7.8742,6.4847 -0.92638,8.3374 -8.80058,1.8528 -16.2116,9.727 -14.35884,9.2638 1.85275,-0.4632 13.43246,-0.9264 15.74841,-4.1687 2.31594,-3.2423 3.24232,-10.6533 6.48464,-6.9478 3.24232,3.7055 3.24232,7.411 3.24232,7.411"
     id="path4210"
     inkscape:connector-curvature="0" />
  <path
     style="fill:none;fill-rule:evenodd;stroke:#000000;stroke-width:4;stroke-linecap:butt;stroke-linejoin:miter;stroke-miterlimit:4;stroke-dasharray:none;stroke-opacity:1"
     d="m 195.46557,223.062 0.46319,50.9507"
     id="path4212"
     inkscape:connector-curvature="0" />
  <path
     style="fill:none;fill-rule:evenodd;stroke:#000000;stroke-width:1px;stroke-linecap:butt;stroke-linejoin:miter;stroke-opacity:1"
     d="m 197.78152,242.5159 11.57971,-5.0951 -4.63189,-6.0214 7.87421,-3.2424 0.46319,-4.1686 -7.87421,-11.1166 -12.50609,-13.8956 c 0,0 3.70551,10.1901 1.85276,13.4324 -1.85276,3.2424 -6.02145,13.8957 -6.02145,13.8957 0,0 10.19014,7.411 10.19014,9.2638 0,1.8527 -12.0429,9.7269 -10.19014,9.7269 1.85275,0 13.89565,1.3896 13.89565,1.3896"
     id="path4214"
     inkscape:connector-curvature="0" />
  <path
     style="fill:none;fill-rule:evenodd;stroke:#000000;stroke-width:1;stroke-linecap:butt;stroke-linejoin:miter;stroke-miterlimit:4;stroke-dasharray:none;stroke-opacity:1"
     d="m 169.52701,278.6446 6.94783,-19.4539 10.19015,18.0643 -10.65334,-18.5275 0,-32.8864 0.46319,19.4539 17.13798,-12.0429 -18.52754,12.9693 18.99073,5.0951 0,0 0,0 0,0 0,0 -1.85276,0.4632"
     id="path4216"
     inkscape:connector-curvature="0" />
  <path
     style="fill:none;fill-rule:evenodd;stroke:#000000;stroke-width:1px;stroke-linecap:butt;stroke-linejoin:miter;stroke-opacity:1"
     d="m 175.08528,226.3043 c 8.38113,-1.1868 9.52702,-5.2677 12.0429,-8.8006 l -3.24232,-6.0214 c -4.60287,-1.4283 -8.53263,-3.754 -16.67479,-0.4632 -3.28539,3.6498 -3.69561,5.8621 -4.63188,8.3374 3.89652,7.2853 6.0191,5.7009 8.80058,7.411 z"
     id="path4218"
     inkscape:connector-curvature="0"
     sodipodi:nodetypes="ccccccc" />
  <path
     style="fill:none;fill-rule:evenodd;stroke:#000000;stroke-width:1px;stroke-linecap:butt;stroke-linejoin:miter;stroke-opacity:1"
     d="m 424.74391,312.9206 16.2116,-7.4111 -6.48464,-3.7055 22.23305,3.7055 6.02145,2.7792 -6.02145,8.3374 3.24232,13.8956 -4.1687,-14.3588 6.02145,-8.8006 -11.57971,0 -6.94783,7.8742 0.46319,12.5061"
     id="path4220"
     inkscape:connector-curvature="0" />
  <path
     style="fill:none;fill-rule:evenodd;stroke:#000000;stroke-width:1px;stroke-linecap:butt;stroke-linejoin:miter;stroke-opacity:1"
     d="m 419.18564,304.12 c 4.44484,1.1461 8.22621,3.6191 16.2116,-2.316 2.04427,-2.529 1.96777,-6.1183 -0.92637,-11.1165 l -6.02145,-6.0214 c -6.26988,-1.4836 -11.1754,-0.2133 -12.5061,3.2423 l -3.7055,5.5582 z"
     id="path4222"
     inkscape:connector-curvature="0"
     sodipodi:nodetypes="ccccccc" />
  <path
     style="fill:none;fill-rule:evenodd;stroke:#000000;stroke-width:3;stroke-linecap:butt;stroke-linejoin:miter;stroke-miterlimit:4;stroke-dasharray:none;stroke-opacity:1"
     d="m 429.83898,309.6782 -18.06435,25.0122 -10.65334,-6.4846 0,19.4539 14.35885,-6.4846 -4.1687,-7.8742"
     id="path4224"
     inkscape:connector-curvature="0" />
</svg>
