<?xml version="1.0" encoding="UTF-8" standalone="no"?>
<!-- Created with Inkscape (http://www.inkscape.org/) -->

<svg
   xmlns:dc="http://purl.org/dc/elements/1.1/"
   xmlns:cc="http://creativecommons.org/ns#"
   xmlns:rdf="http://www.w3.org/1999/02/22-rdf-syntax-ns#"
   xmlns:svg="http://www.w3.org/2000/svg"
   xmlns="http://www.w3.org/2000/svg"
   version="1.1"
   viewBox="0 0 650 400"
   id="svg6275">
  <metadata
     id="metadata6281">
    <rdf:RDF>
      <cc:Work
         rdf:about="">
        <dc:format>image/svg+xml</dc:format>
        <dc:type
           rdf:resource="http://purl.org/dc/dcmitype/StillImage" />
        <dc:title></dc:title>
      </cc:Work>
    </rdf:RDF>
  </metadata>
  <defs
     id="defs6279" />
  <path
     d="m 678.94509,91.11351 c -47.86166,-1.18573 -46.30506,22.9734 -0.95879,16.29941"
     id="path6285"
     style="fill:none;stroke:#000000;stroke-width:7;stroke-linecap:butt;stroke-linejoin:round;stroke-miterlimit:4;stroke-opacity:1;stroke-dasharray:none" />
  <path
     d="m 656.89294,86.31957 c -19.01974,-4.25878 -29.59536,-10.31181 -63.28006,-4.79395 -2.19847,9.46779 -10.17566,21.61499 0,33.55761 24.42452,-1.46017 32.66321,-2.62054 58.48612,1.91758 3.33267,-10.80531 8.69879,-22.28844 4.79394,-30.68124 z"
     id="path7055"
     style="fill:none;stroke:#000000;stroke-width:6;stroke-linecap:butt;stroke-linejoin:round;stroke-miterlimit:4;stroke-opacity:1;stroke-dasharray:none" />
  <path
     d="m 543.40672,86.06446 c -19.48901,-0.25655 -31.08335,-4.00545 -62.91345,8.32138 -0.20453,9.71753 -5.51329,23.24554 6.90076,32.84036 23.60225,-6.4516 31.42624,-9.28132 57.63048,-10.15039 1.03945,-11.25971 3.9295,-23.6009 -1.61779,-31.01135 z"
     id="path7055-3"
     style="fill:none;stroke:#000000;stroke-width:6;stroke-linecap:butt;stroke-linejoin:round;stroke-miterlimit:4;stroke-opacity:1;stroke-dasharray:none" />
  <path
     d="m 535.12676,104.53655 c 21.53215,-15.46497 45.06707,-17.86938 69.99158,-8.6291 -34.44239,17.1135 -39.95154,14.04016 -69.03279,8.6291"
     id="path7075"
     style="fill:none;stroke:#000000;stroke-width:6;stroke-linecap:butt;stroke-linejoin:round;stroke-miterlimit:4;stroke-opacity:1;stroke-dasharray:none" />
  <path
     d="m 424.45271,125.7673 c 19.16302,-18.31877 42.13203,-23.98431 68.10222,-18.31309 -31.71683,21.75299 -37.60099,19.47859 -67.15282,18.17929"
     id="path7075-6"
     style="fill:none;stroke:#000000;stroke-width:6;stroke-linecap:butt;stroke-linejoin:round;stroke-miterlimit:4;stroke-opacity:1;stroke-dasharray:none" />
  <path
     d="m 379.80296,127.5475 c 15.27471,-15.48239 33.94456,-21.58071 51.7746,-19.17579 l 14.38184,23.01089 c -7.4506,9.1171 -29.37324,16.4407 -54.65097,23.011 z"
     id="path7131"
     style="fill:none;stroke:#000000;stroke-width:6;stroke-linecap:butt;stroke-linejoin:round;stroke-miterlimit:4;stroke-opacity:1;stroke-dasharray:none" />
  <path
     d="m 345.85245,170.0967 c 8.78445,-22.3018 25.28647,-35.5785 48.37242,-40.616 -17.67989,29.8371 -23.27331,30.1613 -47.65354,40.1501"
     id="path7075-6-3"
     style="fill:none;stroke:#000000;stroke-width:5.38415098;stroke-linecap:butt;stroke-linejoin:round;stroke-miterlimit:4;stroke-opacity:1;stroke-dasharray:none" />
  <path
     d="m 319.39927,164.9402 c 28.07846,-23.1653 35.05084,0.1026 51.77459,1.9176 1.92882,29.7309 -5.28852,52.6022 -13.42304,74.7855 -13.20751,2.6757 -26.4777,5.0379 -42.18671,-4.7939 -3.05507,-23.9697 -0.75082,-47.9394 3.83516,-71.9092 z"
     id="path7151"
     style="fill:none;stroke:#000000;stroke-width:6;stroke-linecap:butt;stroke-linejoin:round;stroke-miterlimit:4;stroke-opacity:1;stroke-dasharray:none" />
  <path
     d="m 335.60889,298.7735 c -9.1371,-25.9686 -6.72613,-50.724 5.90579,-73.9912 8.09637,39.6309 4.42275,44.5157 -5.72381,73.0073"
     id="path7075-6-3-5"
     style="fill:none;stroke:#000000;stroke-width:5.77083111;stroke-linecap:butt;stroke-linejoin:round;stroke-miterlimit:4;stroke-opacity:1;stroke-dasharray:none" />
  <path
     d="m 307.8938,287.6652 c 17.08203,1.3337 25.40344,-10.4735 51.7746,4.794 1.38837,24.7887 -3.37593,45.4757 -9.58789,65.1976 -13.39483,5.1841 -29.4312,3.7643 -47.93944,-3.8352 z"
     id="path7171"
     style="fill:none;stroke:#000000;stroke-width:6;stroke-linecap:butt;stroke-linejoin:round;stroke-miterlimit:4;stroke-opacity:1;stroke-dasharray:none" />
  <path
     d="m 326.69283,417.6885 c -10.59024,-24.8871 -8.95416,-49.0536 3.51836,-72.1795 9.99307,38.2128 6.29684,43.1086 -3.36246,71.2155"
     id="path7075-6-3-5-6"
     style="fill:none;stroke:#000000;stroke-width:5.84868145;stroke-linecap:butt;stroke-linejoin:round;stroke-miterlimit:4;stroke-opacity:1;stroke-dasharray:none" />
  <path
     d="M 342.4102,201.3742 C 453.92301,150.7725 358.95606,94.79871 311.72895,131.3826"
     id="path7191"
     style="fill:none;stroke:#000000;stroke-width:15;stroke-linecap:butt;stroke-linejoin:miter;stroke-miterlimit:4;stroke-opacity:1;stroke-dasharray:none" />
  <path
     d="m 299.2647,119.87717 20.13457,-7.67031 34.51639,97.79644 -16.29941,5.7528 c -25.93231,-22.3396 -27.93483,-61.7719 -37.39276,-95.87892 l -71.90917,19.17572 c 0.30223,42.7777 15.3723,72.2642 41.22792,92.0438 l 69.0328,-14.3819"
     id="path7193"
     style="fill:none;stroke:#000000;stroke-width:2;stroke-linecap:butt;stroke-linejoin:miter;stroke-miterlimit:4;stroke-opacity:1;stroke-dasharray:none" />
  <path
     d="m 71.533393,234.8238 40.269137,-118.88983 125.60134,3.83515 -40.26914,113.13708 -2.87636,75.7443 -44.10429,47.9395 -138.065597,2.8763 7.67032,-81.497 121.766177,6.7115 55.60975,-51.7746 -125.601337,1.9176 -52.73338,46.9806"
     id="path7195"
     style="fill:none;stroke:#000000;stroke-width:2;stroke-linecap:butt;stroke-linejoin:miter;stroke-miterlimit:4;stroke-opacity:1;stroke-dasharray:none" />
  <path
     d="M 140.56619,281.8044 148.2365,356.59"
     id="path7197"
     style="fill:none;stroke:#000000;stroke-width:2;stroke-linecap:butt;stroke-linejoin:miter;stroke-miterlimit:4;stroke-opacity:1;stroke-dasharray:none" />
  <path
     d="m 84.956443,274.1341 c -16.11198,-3.8712 -33.08893,-5.3637 -39.31035,-36.434 l 18.21699,3.8352 c -6.07233,-11.7444 -12.14466,-9.1995 -18.21699,-35.4752 13.55442,-1.2635 11.98587,-11.6007 13.42305,-20.1345 2.93097,-10.2066 2.89743,-21.5249 -14.38183,-39.3104 -16.0409,-6.0112 -25.06729,-19.037 -36.4339799,-29.72244 16.2479799,5.80044 35.0731599,13.21174 31.6400299,6.71154 -6.94129,-22.39682 -18.68737,-52.0008 -16.29941,-60.40372 -10.80539,17.8399 9.89518,42.68112 20.13457,65.19762 -1.3027,-15.021 -8.46402,-30.04203 1.91757,-45.06306 4.79395,-7.748 9.58789,-5.91656 14.38184,-0.95879 l -2.87637,11.50547 c 8.98477,3.48202 16.25063,0.94784 20.13457,-13.42304 C 73.718063,72.5579 80.113573,67.97821 62.904293,55.53027 32.226763,34.43802 48.546263,34.25229 40.852153,20.05508"
     id="path7199"
     style="fill:none;stroke:#000000;stroke-width:1px;stroke-linecap:butt;stroke-linejoin:miter;stroke-opacity:1" />
  <path
     d="M 106.04979,10.46719 C 91.749123,4.35681 89.566543,16.42356 84.956443,24.84902 c 11.60236,17.85286 37.302137,38.52519 25.887297,51.7746 -17.907187,1.65603 -21.125257,12.12552 -26.846087,21.09336 -1.94456,13.7359 -7.95716,26.45482 9.58789,45.06312 l -14.38184,-3.8352 0,38.3516 15.34063,21.0933 c 6.659487,21.7326 5.804617,43.4651 -2.87637,65.1976 0,0 -8.21849,-24.0937 -13.42304,-22.0521 -7.71919,3.028 10.27163,34.7902 14.38183,35.4752 l -22.05215,-32.5988 c 0,0 27.80488,-36.434 22.05215,-38.3516 -5.75273,-1.9176 -23.01093,10.5467 -23.01093,10.5467 -5.21044,-12.4643 -8.04026,-24.9285 1.91757,-37.3928 3.07116,-12.1446 -0.18985,-24.2893 -1.91757,-36.4339 -7.35107,-3.5131 -16.05235,2.4253 -21.09336,-17.2582"
     id="path7201"
     style="fill:none;stroke:#000000;stroke-width:1px;stroke-linecap:butt;stroke-linejoin:miter;stroke-opacity:1" />
  <path
     d="m 120.43163,52.6539 c -3.09612,19.05587 -7.52741,35.4414 -18.21699,39.31034 -4.782087,1.36631 14.45342,13.02711 18.21698,27.80488 2.57083,10.09448 -24.925817,35.94248 -22.052137,23.01098 l 6.711517,11.5054 -15.340617,-1.9176"
     id="path7203"
     style="fill:none;stroke:#000000;stroke-width:1px;stroke-linecap:butt;stroke-linejoin:miter;stroke-opacity:1" />
</svg>
