<?xml version="1.0" encoding="UTF-8" standalone="no"?>
<!-- Created with Inkscape (http://www.inkscape.org/) -->

<svg
   xmlns:dc="http://purl.org/dc/elements/1.1/"
   xmlns:cc="http://creativecommons.org/ns#"
   xmlns:rdf="http://www.w3.org/1999/02/22-rdf-syntax-ns#"
   xmlns:svg="http://www.w3.org/2000/svg"
   xmlns="http://www.w3.org/2000/svg"
   xmlns:sodipodi="http://sodipodi.sourceforge.net/DTD/sodipodi-0.dtd"
   xmlns:inkscape="http://www.inkscape.org/namespaces/inkscape"
   id="svg3039"
   version="1.1"
   inkscape:version="0.48.5 r10040"
   viewBox="0 0 500 500"
   sodipodi:docname="out0039.pnm.png">
  <metadata
     id="metadata3045">
    <rdf:RDF>
      <cc:Work
         rdf:about="">
        <dc:format>image/svg+xml</dc:format>
        <dc:type
           rdf:resource="http://purl.org/dc/dcmitype/StillImage" />
        <dc:title></dc:title>
      </cc:Work>
    </rdf:RDF>
  </metadata>
  <defs
     id="defs3043" />
  <sodipodi:namedview
     pagecolor="#ffffff"
     bordercolor="#666666"
     borderopacity="1"
     objecttolerance="10"
     gridtolerance="10"
     guidetolerance="10"
     inkscape:pageopacity="0"
     inkscape:pageshadow="2"
     inkscape:window-width="1290"
     inkscape:window-height="750"
     id="namedview3041"
     showgrid="false"
     inkscape:zoom="0.67064659"
     inkscape:cx="464.60022"
     inkscape:cy="319.19275"
     inkscape:window-x="0"
     inkscape:window-y="0"
     inkscape:window-maximized="0"
     inkscape:current-layer="svg3039" />
  <path
     style="fill:none;stroke:#000000;stroke-width:1px;stroke-linecap:butt;stroke-linejoin:miter;stroke-opacity:1"
     d="m 424.12638,58.755472 c -18.53156,6.91664 -12.15761,20.86753 -5.23406,30.14051 14.50354,19.425148 -2.35522,29.462938 -4.25523,28.376788 -10.39476,6.29343 -12.43949,14.97258 -3.1631,26.88633 16.86858,19.06325 0.93423,20.40216 0.52718,26.35914 -12.67768,6.85338 -7.88941,13.70675 -4.21746,20.56013 9.90883,15.28186 3.21084,19.88791 -6.32619,22.66886 -19.03931,7.38056 -6.23865,14.76112 0,22.14168 -0.0726,5.85694 12.45024,15.25959 1.05436,22.66887 l -1.05437,1.58155"
     id="path3049"
     inkscape:connector-curvature="0"
     sodipodi:nodetypes="cscccccccc" />
  <path
     style="fill:none;stroke:#000000;stroke-width:1px;stroke-linecap:butt;stroke-linejoin:miter;stroke-opacity:1"
     d="m 431.50694,63.500112 c 4.00217,9.48534 -4.3877,17.73147 -14.23394,25.83196 -7.49329,3.65536 -16.13399,6.23981 -3.1631,28.995068 7.10809,9.84792 6.24688,18.97137 -2.10873,27.4135 -16.42525,5.00374 -4.61649,15.30135 0,24.25042 5.97475,9.13784 4.21746,16.16694 -5.27183,21.08731 -10.44188,4.22303 -16.78618,10.08508 -6.32619,22.66886 3.57134,7.7813 12.99639,16.46318 -0.52718,21.6145 -10.89511,7.38056 -14.76113,15.46403 -11.59803,24.25041 l 0,-0.52718"
     id="path3051"
     inkscape:connector-curvature="0"
     sodipodi:nodetypes="cccccccccc" />
  <text
     xml:space="preserve"
     style="font-size:20px;font-style:normal;font-variant:normal;font-weight:normal;font-stretch:normal;line-height:125%;letter-spacing:0px;word-spacing:0px;fill:#000000;fill-opacity:1;stroke:none;font-family:DejaVu Sans Mono;-inkscape-font-specification:DejaVu Sans Mono"
     x="388.27792"
     y="282.8082"
     id="text3053"
     sodipodi:linespacing="125%"><tspan
       sodipodi:role="line"
       x="388.27792"
       y="282.8082"
       id="tspan3057">D</tspan></text>
  <path
     style="fill:none;stroke:#000000;stroke-width:1px;stroke-linecap:butt;stroke-linejoin:miter;stroke-opacity:1"
     d="m 270.71616,157.86585 c -2.81402,-2.9768 -25.30029,8.46368 -11.11812,25.296 23.53288,27.93035 2.91225,26.83607 1.62883,25.84074 -20.08059,-0.0172 -11.98161,10.70224 -6.36207,15.74309 16.92474,15.18186 7.39626,16.97194 1.61743,21.15971 -16.20361,4.45762 -12.75646,12.33802 -8.05615,16.97266 8.16788,8.05377 8.97951,19.15189 -1.96033,19.93014 -14.19931,3.54831 -14.16439,14.46131 -8.52069,18.955 20.09195,15.99782 -2.98439,20.85595 -3.07733,23.21963 -16.01458,9.42138 -5.04157,19.84961 -7.90774,23.19605 22.93857,16.38201 7.43392,4.27034 18.4514,14.76112 l 0.52718,0.52718"
     id="path3063"
     inkscape:connector-curvature="0"
     sodipodi:nodetypes="cscscscscccc" />
  <path
     style="fill:none;stroke:#000000;stroke-width:1px;stroke-linecap:butt;stroke-linejoin:miter;stroke-opacity:1"
     d="m 273.35208,166.30078 c -3.18977,8.13132 -8.23953,13.47266 -14.23394,17.39703 -7.35316,3.92028 -0.54777,15.70642 4.21746,26.35914 3.23819,6.31358 1.30801,11.07665 -9.48929,13.17958 -6.86763,2.92745 -15.87276,5.61722 1.58155,22.14168 7.76634,12.65884 -1.33358,13.5113 -6.85338,16.86985 -8.5256,3.15793 -10.52022,10.07883 -3.69028,21.6145 6.25063,10.46262 -1.48821,13.15333 -7.38056,16.86985 -7.10786,4.64623 -9.02599,11.93516 -2.10873,23.72323 6.00092,13.08984 -0.0316,18.95961 -7.90774,23.72323 -11.09695,2.09754 -13.34299,7.98832 -14.76112,14.23393 l -0.52718,-0.52718"
     id="path3065"
     inkscape:connector-curvature="0"
     sodipodi:nodetypes="cccccccccccc" />
  <path
     style="fill:none;stroke:#000000;stroke-width:1px;stroke-linecap:butt;stroke-linejoin:miter;stroke-opacity:1"
     d="m 161.58931,240.63356 c -10.59915,0.47169 -11.69927,10.44241 -6.85338,26.35914 6.18653,5.8633 14.69688,22.31092 -1.58154,26.35915 -18.94455,9.37446 -9.35814,19.00944 -7.90775,22.66886 15.62186,18.8348 3.98942,19.525 -1.58155,25.30478 -0.94541,2.86477 -19.78737,2.86608 -7.38056,23.19604 1.31171,5.7907 24.38889,16.3446 -3.16309,28.9951 -11.52992,5.6785 -6.26467,13.7115 -6.85338,17.9242 8.3293,9.757 5.47627,13.554 3.16309,17.9242 l 0,-0.5272"
     id="path3067"
     inkscape:connector-curvature="0"
     sodipodi:nodetypes="cccccccccc" />
  <path
     style="fill:none;stroke:#000000;stroke-width:1px;stroke-linecap:butt;stroke-linejoin:miter;stroke-opacity:1"
     d="m 163.69804,243.26947 c 2.30786,9.53604 4.89281,15.97674 -8.73546,23.76454 -11.9975,6.8559 -5.822,15.14469 -1.2133,26.38583 1.58185,3.85831 8.26964,16.87541 -8.2933,24.09657 -12.33147,5.37631 -4.29311,14.31765 -0.72262,22.75607 4.34217,9.9014 3.82003,18.73226 -8.72266,24.74954 -9.77268,7.97521 -9.2513,17.65861 -3.49504,27.95791 6.06702,10.8552 -2.90166,20.585 -6.30977,18.5528 -5.41845,-3.2309 -15.42695,17.6923 -8.89995,16.7779"
     id="path3069"
     inkscape:connector-curvature="0"
     sodipodi:nodetypes="csssccssc" />
  <path
     style="fill:none;stroke:#000000;stroke-width:1px;stroke-linecap:butt;stroke-linejoin:miter;stroke-opacity:1"
     d="m 79.348777,232.19864 c 21.844043,16.1856 7.29012,29.17405 -7.61974,37.90477 -17.3045,10.13294 -14.55413,18.51952 -5.47109,34.93371 11.67314,21.09481 2.24688,18.22957 -3.32672,23.34472 -19.78466,18.15729 -12.78222,29.48281 -8.11907,37.24435 5.53337,9.20994 8.23774,16.60014 0.12855,21.54514 -21.44663,13.0781 -12.44155,25.9182 -12.49473,25.851 l 0,0"
     id="path3071"
     inkscape:connector-curvature="0"
     sodipodi:nodetypes="cssssscc" />
  <path
     style="fill:none;stroke:#000000;stroke-width:1px;stroke-linecap:butt;stroke-linejoin:miter;stroke-opacity:1"
     d="m 80.403147,235.88891 c -11.92127,2.31964 -19.70649,14.58719 -7.57129,33.7882 8.59619,13.60138 14.2136,21.25706 -6.05353,34.76954 -3.42922,2.28633 -17.2581,9.90423 -4.84777,24.1833 23.51073,27.05095 -1.96574,28.59096 -8.00925,36.47778 -4.94811,6.4573 -9.75822,10.5851 0.55823,22.6396 7.95803,9.2986 12.59668,16.6173 -0.96272,28.4381 l 0,-1.0543"
     id="path3073"
     inkscape:connector-curvature="0"
     sodipodi:nodetypes="cssssscc" />
  <text
     xml:space="preserve"
     style="font-size:20px;font-style:normal;font-variant:normal;font-weight:normal;font-stretch:normal;line-height:125%;letter-spacing:0px;word-spacing:0px;fill:#000000;fill-opacity:1;stroke:none;font-family:DejaVu Sans Mono;-inkscape-font-specification:DejaVu Sans Mono"
     x="34.538235"
     y="436.21832"
     id="text3075"
     sodipodi:linespacing="125%"><tspan
       sodipodi:role="line"
       id="tspan3077"
       x="34.538235"
       y="436.21832">A</tspan></text>
  <text
     xml:space="preserve"
     style="font-size:20px;font-style:normal;font-variant:normal;font-weight:normal;font-stretch:normal;line-height:125%;letter-spacing:0px;word-spacing:0px;fill:#000000;fill-opacity:1;stroke:none;font-family:DejaVu Sans Mono;-inkscape-font-specification:DejaVu Sans Mono"
     x="117.83313"
     y="450.45233"
     id="text3079"
     sodipodi:linespacing="125%"><tspan
       sodipodi:role="line"
       id="tspan3081"
       x="117.83313"
       y="450.45233">B</tspan></text>
  <text
     xml:space="preserve"
     style="font-size:20px;font-style:normal;font-variant:normal;font-weight:normal;font-stretch:normal;line-height:125%;letter-spacing:0px;word-spacing:0px;fill:#000000;fill-opacity:1;stroke:none;font-family:DejaVu Sans Mono;-inkscape-font-specification:DejaVu Sans Mono"
     x="223.26968"
     y="385.60886"
     id="text3083"
     sodipodi:linespacing="125%"><tspan
       sodipodi:role="line"
       id="tspan3085"
       x="223.26968"
       y="385.60886">C</tspan></text>
  <path
     style="fill:none;stroke:#000000;stroke-width:1;stroke-linecap:butt;stroke-linejoin:miter;stroke-miterlimit:4;stroke-opacity:1;stroke-dasharray:6, 6;stroke-dashoffset:0"
     d="m 84.093427,291.7703 50.082373,5.27183"
     id="path3089"
     inkscape:connector-curvature="0" />
  <path
     style="fill:none;stroke:#000000;stroke-width:1;stroke-linecap:butt;stroke-linejoin:miter;stroke-miterlimit:4;stroke-opacity:1;stroke-dasharray:6, 6;stroke-dashoffset:0"
     d="m 64.587657,392.98943 53.772663,8.9621"
     id="path3091"
     inkscape:connector-curvature="0" />
  <path
     style="fill:none;stroke:#000000;stroke-width:1;stroke-linecap:butt;stroke-linejoin:miter;stroke-miterlimit:4;stroke-opacity:1;stroke-dasharray:6, 6;stroke-dashoffset:0"
     d="m 168.96987,248.01412 67.47941,8.96211"
     id="path3861"
     inkscape:connector-curvature="0" />
  <path
     style="fill:none;stroke:#000000;stroke-width:1;stroke-linecap:butt;stroke-linejoin:miter;stroke-miterlimit:4;stroke-opacity:1;stroke-dasharray:6, 6;stroke-dashoffset:0"
     d="m 153.68157,347.65168 54.82702,10.54366"
     id="path3863"
     inkscape:connector-curvature="0" />
  <path
     style="fill:none;stroke:#000000;stroke-width:1;stroke-linecap:butt;stroke-linejoin:miter;stroke-miterlimit:4;stroke-opacity:1;stroke-dasharray:6, 6;stroke-dashoffset:0"
     d="M 282.84137,164.19204 398.8216,178.95316"
     id="path3865"
     inkscape:connector-curvature="0" />
  <path
     style="fill:none;stroke:#000000;stroke-width:1;stroke-linecap:butt;stroke-linejoin:miter;stroke-miterlimit:4;stroke-opacity:1;stroke-dasharray:6, 6;stroke-dashoffset:0"
     d="m 265.97152,245.37821 112.81713,12.65238"
     id="path3869"
     inkscape:connector-curvature="0" />
  <text
     xml:space="preserve"
     style="font-size:20px;font-style:normal;font-variant:normal;font-weight:normal;font-stretch:normal;line-height:125%;letter-spacing:0px;word-spacing:0px;fill:#000000;fill-opacity:1;stroke:none;font-family:DejaVu Sans Mono;-inkscape-font-specification:DejaVu Sans Mono"
     x="73.549751"
     y="317.0751"
     id="text3871"
     sodipodi:linespacing="125%"><tspan
       sodipodi:role="line"
       id="tspan3873"
       x="73.549751"
       y="317.0751"
       style="font-size:18px"> 80%</tspan><tspan
       sodipodi:role="line"
       x="73.549751"
       y="339.5751"
       id="tspan3875"
       style="font-size:18px">common</tspan></text>
  <text
     xml:space="preserve"
     style="font-size:20px;font-style:normal;font-variant:normal;font-weight:normal;font-stretch:normal;line-height:125%;letter-spacing:0px;word-spacing:0px;fill:#000000;fill-opacity:1;stroke:none;font-family:DejaVu Sans Mono;-inkscape-font-specification:DejaVu Sans Mono"
     x="166.86111"
     y="272.79172"
     id="text3879"
     sodipodi:linespacing="125%"><tspan
       sodipodi:role="line"
       id="tspan3881"
       x="166.86111"
       y="272.79172"
       style="font-size:18px"> 70%</tspan><tspan
       sodipodi:role="line"
       x="166.86111"
       y="295.29172"
       id="tspan3883"
       style="font-size:18px">common</tspan></text>
  <text
     xml:space="preserve"
     style="font-size:20px;font-style:normal;font-variant:normal;font-weight:normal;font-stretch:normal;line-height:125%;letter-spacing:0px;word-spacing:0px;fill:#000000;fill-opacity:1;stroke:none;font-family:DejaVu Sans Mono;-inkscape-font-specification:DejaVu Sans Mono"
     x="294.43939"
     y="193.71426"
     id="text3887"
     sodipodi:linespacing="125%"><tspan
       sodipodi:role="line"
       id="tspan3889"
       x="294.43939"
       y="193.71426"
       style="font-size:18px"> 30%</tspan><tspan
       sodipodi:role="line"
       x="294.43939"
       y="216.21426"
       id="tspan3891"
       style="font-size:18px">common</tspan></text>
</svg>
