<?xml version="1.0" encoding="UTF-8" standalone="no"?>
<!-- Created with Inkscape (http://www.inkscape.org/) -->

<svg
   xmlns:dc="http://purl.org/dc/elements/1.1/"
   xmlns:cc="http://creativecommons.org/ns#"
   xmlns:rdf="http://www.w3.org/1999/02/22-rdf-syntax-ns#"
   xmlns:svg="http://www.w3.org/2000/svg"
   xmlns="http://www.w3.org/2000/svg"
   xmlns:sodipodi="http://sodipodi.sourceforge.net/DTD/sodipodi-0.dtd"
   xmlns:inkscape="http://www.inkscape.org/namespaces/inkscape"
   id="svg4686"
   version="1.1"
   inkscape:version="0.48.5 r10040"
   viewBox="0 0 600 200"
   sodipodi:docname="out0039.pnm.png">
  <metadata
     id="metadata4692">
    <rdf:RDF>
      <cc:Work
         rdf:about="">
        <dc:format>image/svg+xml</dc:format>
        <dc:type
           rdf:resource="http://purl.org/dc/dcmitype/StillImage" />
        <dc:title></dc:title>
      </cc:Work>
    </rdf:RDF>
  </metadata>
  <defs
     id="defs4690" />
  <sodipodi:namedview
     pagecolor="#ffffff"
     bordercolor="#666666"
     borderopacity="1"
     objecttolerance="10"
     gridtolerance="10"
     guidetolerance="10"
     inkscape:pageopacity="0"
     inkscape:pageshadow="2"
     inkscape:window-width="1290"
     inkscape:window-height="750"
     id="namedview4688"
     showgrid="false"
     inkscape:zoom="1.0429825"
     inkscape:cx="431.80831"
     inkscape:cy="253.4874"
     inkscape:window-x="0"
     inkscape:window-y="0"
     inkscape:window-maximized="0"
     inkscape:current-layer="svg4686" />
  <path
     style="fill:none;stroke:#000000;stroke-width:1px;stroke-linecap:butt;stroke-linejoin:miter;stroke-opacity:1"
     d="m 94.634433,6.924222 21.694907,0 -8.13559,149.152498 -86.779657,0 -5.42373,-18.3051 0,0"
     id="path4696"
     inkscape:connector-curvature="0" />
  <path
     style="fill:none;stroke:#000000;stroke-width:1px;stroke-linecap:butt;stroke-linejoin:miter;stroke-opacity:1"
     d="m 108.07743,156.35752 425.08475,18.3051 0.67796,-19.661 0,0"
     id="path4698"
     inkscape:connector-curvature="0" />
  <path
     style="fill:none;stroke:#000000;stroke-width:1px;stroke-linecap:butt;stroke-linejoin:miter;stroke-opacity:1"
     d="m 421.29777,21.442322 c 14.23729,0 14.91525,-0.678 14.91525,-0.678 l -6.10169,149.830498 0,0"
     id="path4700"
     inkscape:connector-curvature="0" />
  <path
     style="fill:none;stroke:#000000;stroke-width:1px;stroke-linecap:butt;stroke-linejoin:miter;stroke-opacity:1"
     d="m 106.7215,96.01862 c -6.779657,0 -6.779657,0 -6.779657,0"
     id="path4714"
     inkscape:connector-curvature="0" />
  <path
     style="fill:none;stroke:#000000;stroke-width:1px;stroke-linecap:butt;stroke-linejoin:miter;stroke-opacity:1"
     d="m 64.687603,97.37452 c 22.37288,-0.678 22.37288,-0.678 22.37288,-0.678 l 0,0 0,0.678 0,0 1.35593,0"
     id="path4716"
     inkscape:connector-curvature="0" />
  <path
     style="fill:none;stroke:#000000;stroke-width:1px;stroke-linecap:butt;stroke-linejoin:miter;stroke-opacity:1"
     d="m 50.450313,99.40842 c -12.88135,0.678 -12.88135,0.678 -12.88135,0.678"
     id="path4718"
     inkscape:connector-curvature="0" />
  <path
     style="fill:none;stroke:#000000;stroke-width:1px;stroke-linecap:butt;stroke-linejoin:miter;stroke-opacity:1"
     d="m 47.060483,70.93382 c 12.88136,5.4237 12.88136,5.4237 12.88136,5.4237 -4.0678,8.8136 -4.0678,8.8136 -4.0678,8.8136 -13.55932,-6.7797 -13.55932,-6.7797 -13.55932,-6.7797"
     id="path4720"
     inkscape:connector-curvature="0" />
  <path
     style="fill:none;stroke:#000000;stroke-width:1px;stroke-linecap:butt;stroke-linejoin:miter;stroke-opacity:1"
     d="m 47.738453,70.25592 c -5.42373,8.1355 -5.42373,8.1355 -5.42373,8.1355"
     id="path4722"
     inkscape:connector-curvature="0" />
  <path
     style="fill:none;stroke:#000000;stroke-width:1px;stroke-linecap:butt;stroke-linejoin:miter;stroke-opacity:1"
     d="m 55.196073,85.17112 c -15.59322,4.7458 -16.27118,4.7458 -16.27118,4.7458 l 0,0 0,0 0,0 0,0"
     id="path4728"
     inkscape:connector-curvature="0" />
  <path
     style="fill:none;stroke:#000000;stroke-width:1px;stroke-linecap:butt;stroke-linejoin:miter;stroke-opacity:1"
     d="m 55.874043,84.49312 c 47.457627,-1.3559 47.457627,-1.3559 47.457627,-1.3559"
     id="path4730"
     inkscape:connector-curvature="0" />
  <path
     style="fill:none;stroke:#000000;stroke-width:1px;stroke-linecap:butt;stroke-linejoin:miter;stroke-opacity:1"
     d="m 42.314723,77.71352 c -16.27119,4.7457 -15.59322,5.4237 -15.59322,5.4237 l 0,0"
     id="path4734"
     inkscape:connector-curvature="0" />
  <path
     style="fill:none;stroke:#000000;stroke-width:1px;stroke-linecap:butt;stroke-linejoin:miter;stroke-opacity:1"
     d="m 26.043533,83.13722 c 13.55932,6.7797 13.55932,6.7797 13.55932,6.7797 l -0.67796,0.6779 0,0 0,0"
     id="path4736"
     inkscape:connector-curvature="0" />
  <path
     sodipodi:type="arc"
     style="fill:none;stroke:#000000;stroke-width:1;stroke-linecap:round;stroke-linejoin:round;stroke-miterlimit:4;stroke-opacity:1;stroke-dasharray:none;stroke-dashoffset:0"
     id="path4742"
     sodipodi:cx="283.05084"
     sodipodi:cy="826.44067"
     sodipodi:rx="6.7796612"
     sodipodi:ry="6.1016951"
     d="m 289.8305,826.44067 a 6.7796612,6.1016951 0 1 1 -13.55932,0 6.7796612,6.1016951 0 1 1 13.55932,0 z"
     transform="matrix(1.0695836,0,0,1.0773151,-244.66912,-789.06423)" />
  <path
     sodipodi:type="arc"
     style="fill:none;stroke:#000000;stroke-width:1;stroke-linecap:round;stroke-linejoin:round;stroke-miterlimit:4;stroke-opacity:1;stroke-dasharray:none;stroke-dashoffset:0"
     id="path4757"
     sodipodi:cx="320.16949"
     sodipodi:cy="823.38983"
     sodipodi:rx="7.2881355"
     sodipodi:ry="7.1186442"
     d="m 327.45763,823.38983 a 7.2881355,7.1186442 0 1 1 -14.57627,0 7.2881355,7.1186442 0 1 1 14.57627,0 z"
     transform="matrix(0.9572766,0,0,0.93244986,-211.80316,-668.19182)" />
  <path
     sodipodi:type="arc"
     style="fill:none;stroke:#000000;stroke-width:1;stroke-linecap:round;stroke-linejoin:round;stroke-miterlimit:4;stroke-opacity:1;stroke-dasharray:none;stroke-dashoffset:0"
     id="path4759"
     sodipodi:cx="253.72882"
     sodipodi:cy="816.10168"
     sodipodi:rx="3.5593221"
     sodipodi:ry="3.2203391"
     d="m 257.28814,816.10168 a 3.5593221,3.2203391 0 1 1 -7.11864,0 3.5593221,3.2203391 0 1 1 7.11864,0 z"
     transform="matrix(0.78324344,0,0,0.9183217,-170.31501,-660.37446)" />
  <path
     sodipodi:type="arc"
     style="fill:none;stroke:#000000;stroke-width:1;stroke-linecap:round;stroke-linejoin:round;stroke-miterlimit:4;stroke-opacity:1;stroke-dasharray:none;stroke-dashoffset:0"
     id="path4770"
     sodipodi:cx="263.89832"
     sodipodi:cy="817.79663"
     sodipodi:rx="3.8983052"
     sodipodi:ry="3.2203391"
     d="m 267.79662,817.79663 a 3.8983052,3.2203391 0 1 1 -7.79661,0 3.8983052,3.2203391 0 1 1 7.79661,0 z"
     transform="matrix(0.76012436,0,0,0.92015053,-163.53504,-658.3418)" />
  <path
     style="fill:none;stroke:#000000;stroke-width:1px;stroke-linecap:butt;stroke-linejoin:miter;stroke-opacity:1"
     d="m 24.687603,90.59482 c 13.22034,7.1187 12.88136,6.4407 12.88136,6.4407"
     id="path4774"
     inkscape:connector-curvature="0" />
  <path
     style="fill:none;stroke:#000000;stroke-width:1px;stroke-linecap:butt;stroke-linejoin:miter;stroke-opacity:1"
     d="m 37.568963,97.37452 c 0,0 0,0 0.33898,3.0508 -13.55932,-7.4576 -13.55932,-7.4576 -13.55932,-7.4576 0.33898,-2.3729 0.33898,-2.0339 0.33898,-2.0339"
     id="path4776"
     inkscape:connector-curvature="0" />
  <path
     style="fill:none;stroke:#000000;stroke-width:1px;stroke-linecap:butt;stroke-linejoin:miter;stroke-opacity:1"
     d="m 39.263873,89.57792 c 0.67797,5.7627 0.67797,5.7627 0.67797,5.7627"
     id="path4778"
     inkscape:connector-curvature="0" />
  <path
     style="fill:none;stroke:#000000;stroke-width:1px;stroke-linecap:butt;stroke-linejoin:miter;stroke-opacity:1"
     d="m 47.060483,70.59482 c 62.586947,-21.463598 54.173577,18.6013 59.999997,25.7627"
     id="path4780"
     inkscape:connector-curvature="0"
     sodipodi:nodetypes="cc" />
  <text
     xml:space="preserve"
     style="font-size:20px;font-style:normal;font-variant:normal;font-weight:normal;font-stretch:normal;line-height:125%;letter-spacing:0px;word-spacing:0px;fill:#000000;fill-opacity:1;stroke:none;font-family:DejaVu Sans Mono;-inkscape-font-specification:DejaVu Sans Mono"
     x="124.39381"
     y="28.263474"
     id="text4792"
     sodipodi:linespacing="125%"><tspan
       sodipodi:role="line"
       id="tspan4794"
       x="124.39381"
       y="28.263474">Highway</tspan><tspan
       sodipodi:role="line"
       x="124.39381"
       y="53.263474"
       id="tspan4802">More aero</tspan><tspan
       sodipodi:role="line"
       x="124.39381"
       y="78.263474"
       id="tspan4796" /></text>
  <text
     xml:space="preserve"
     style="font-size:20px;font-style:normal;font-variant:normal;font-weight:normal;font-stretch:normal;line-height:125%;letter-spacing:0px;word-spacing:0px;fill:#000000;fill-opacity:1;stroke:none;font-family:DejaVu Sans Mono;-inkscape-font-specification:DejaVu Sans Mono"
     x="427.61984"
     y="-320.62238"
     id="text4798"
     sodipodi:linespacing="125%"><tspan
       sodipodi:role="line"
       id="tspan4800"
       x="427.61984"
       y="-320.62238" /></text>
  <text
     xml:space="preserve"
     style="font-size:20px;font-style:normal;font-variant:normal;font-weight:normal;font-stretch:normal;line-height:125%;letter-spacing:0px;word-spacing:0px;fill:#000000;fill-opacity:1;stroke:none;font-family:DejaVu Sans Mono;-inkscape-font-specification:DejaVu Sans Mono"
     x="115.28532"
     y="145.23564"
     id="text4804"
     sodipodi:linespacing="125%"><tspan
       sodipodi:role="line"
       id="tspan4806"
       x="115.28532"
       y="145.23564">Sport car</tspan></text>
  <text
     xml:space="preserve"
     style="font-size:20px;font-style:normal;font-variant:normal;font-weight:normal;font-stretch:normal;line-height:125%;letter-spacing:0px;word-spacing:0px;fill:#000000;fill-opacity:1;stroke:none;font-family:DejaVu Sans Mono;-inkscape-font-specification:DejaVu Sans Mono"
     x="459.73926"
     y="-252.54834"
     id="text4808"
     sodipodi:linespacing="125%"><tspan
       sodipodi:role="line"
       id="tspan4810"
       x="459.73926"
       y="-252.54834" /></text>
  <text
     xml:space="preserve"
     style="font-size:20px;font-style:normal;font-variant:normal;font-weight:normal;font-stretch:normal;line-height:125%;letter-spacing:0px;word-spacing:0px;fill:#000000;fill-opacity:1;stroke:none;font-family:DejaVu Sans Mono;-inkscape-font-specification:DejaVu Sans Mono"
     x="447.50565"
     y="45.521652"
     id="text4812"
     sodipodi:linespacing="125%"><tspan
       sodipodi:role="line"
       id="tspan4814"
       x="447.50565"
       y="45.521652">transport</tspan><tspan
       sodipodi:role="line"
       x="447.50565"
       y="70.521652"
       id="tspan4816">power+space</tspan></text>
  <text
     xml:space="preserve"
     style="font-size:20px;font-style:normal;font-variant:normal;font-weight:normal;font-stretch:normal;line-height:125%;letter-spacing:0px;word-spacing:0px;fill:#000000;fill-opacity:1;stroke:none;font-family:DejaVu Sans Mono;-inkscape-font-specification:DejaVu Sans Mono"
     x="440.31479"
     y="161.05571"
     id="text4818"
     sodipodi:linespacing="125%"><tspan
       sodipodi:role="line"
       id="tspan4820"
       x="440.31479"
       y="161.05571">Truck</tspan></text>
  <text
     xml:space="preserve"
     style="font-size:20px;font-style:normal;font-variant:normal;font-weight:normal;font-stretch:normal;line-height:125%;letter-spacing:0px;word-spacing:0px;fill:#000000;fill-opacity:1;stroke:none;font-family:DejaVu Sans Mono;-inkscape-font-specification:DejaVu Sans Mono"
     x="116.72346"
     y="191.25761"
     id="text4822"
     sodipodi:linespacing="125%"><tspan
       sodipodi:role="line"
       id="tspan4824"
       x="116.72346"
       y="191.25761">Best feature for evironmnent</tspan></text>
  <path
     style="fill:none;stroke:#000000;stroke-width:1px;stroke-linecap:butt;stroke-linejoin:miter;stroke-opacity:1"
     d="m 306.04353,57.71352 24.74577,7.4576 22.71186,-7.4576 -14.91525,-10.169498 z"
     id="path4828"
     inkscape:connector-curvature="0" />
  <path
     style="fill:none;stroke:#000000;stroke-width:1px;stroke-linecap:butt;stroke-linejoin:miter;stroke-opacity:1"
     d="m 353.16218,58.05252 2.37288,30.8474 -24.0678,4.0678 1.69492,-28.4746"
     id="path4830"
     inkscape:connector-curvature="0" />
  <path
     style="fill:none;stroke:#000000;stroke-width:1px;stroke-linecap:butt;stroke-linejoin:miter;stroke-opacity:1"
     d="m 332.48421,91.95082 -13.8983,5.4237 -14.91526,-10.5085 1.69492,-28.8135"
     id="path4832"
     inkscape:connector-curvature="0" />
  <path
     style="fill:none;stroke:#000000;stroke-width:1px;stroke-linecap:butt;stroke-linejoin:miter;stroke-opacity:1"
     d="m 302.6537,86.86602 -14.23729,10.8475 19.32204,4.7457 12.54237,-5.0847 2.71187,18.983 -16.61017,2.0339 2.03389,-16.2711"
     id="path4834"
     inkscape:connector-curvature="0" />
  <path
     style="fill:none;stroke:#000000;stroke-width:1px;stroke-linecap:butt;stroke-linejoin:miter;stroke-opacity:1"
     d="m 306.04353,117.03552 -20.67796,-4.4068 2.37288,-13.8983"
     id="path4836"
     inkscape:connector-curvature="0" />
  <path
     style="fill:none;stroke:#000000;stroke-width:1px;stroke-linecap:butt;stroke-linejoin:miter;stroke-opacity:1"
     d="m 324.34862,116.01862 6.44068,0 c 4.68581,-5.5275 8.79881,-14.2054 16.94915,-0.678 l 16.27118,0 c 9.66116,-11.074 15.84303,-8.2309 21.01695,-1.3559 l 8.47458,1.6949 c 6.52011,-6.6019 13.24512,-11.7581 21.13406,1.4881 0.62909,1.0563 1.94571,-5.2065 2.59475,-3.861 l 0.67797,-25.4237 -62.71186,1.3559"
     id="path4838"
     inkscape:connector-curvature="0"
     sodipodi:nodetypes="ccccccsccc" />
  <path
     style="fill:none;stroke:#000000;stroke-width:1px;stroke-linecap:butt;stroke-linejoin:miter;stroke-opacity:1"
     d="m 417.90794,88.56092 6.10169,-0.6779 -3.05084,-20.339 -64.74577,3.3898"
     id="path4840"
     inkscape:connector-curvature="0" />
  <path
     style="fill:none;stroke:#000000;stroke-width:1px;stroke-linecap:butt;stroke-linejoin:miter;stroke-opacity:1"
     d="m 355.53506,73.98472 66.44068,-2.3729 1.01695,10.1695 -64.40678,2.7118"
     id="path4842"
     inkscape:connector-curvature="0" />
  <path
     style="fill:none;stroke:#000000;stroke-width:1px;stroke-linecap:butt;stroke-linejoin:miter;stroke-opacity:1"
     d="m 294.85709,99.74742 c 0,1.6949 -2.0339,8.1356 -2.0339,8.1356 l -5.76271,-1.6949"
     id="path4844"
     inkscape:connector-curvature="0" />
  <path
     style="fill:none;stroke:#000000;stroke-width:1px;stroke-linecap:butt;stroke-linejoin:miter;stroke-opacity:1"
     d="m 301.29777,102.12032 -2.0339,6.4406 7.11865,1.356"
     id="path4846"
     inkscape:connector-curvature="0" />
  <path
     sodipodi:type="arc"
     style="fill:none;stroke:#000000;stroke-width:1;stroke-linecap:round;stroke-linejoin:round;stroke-miterlimit:4;stroke-opacity:1;stroke-dasharray:none;stroke-dashoffset:0"
     id="path4848"
     sodipodi:cx="565.7627"
     sodipodi:cy="843.22034"
     sodipodi:rx="7.4576273"
     sodipodi:ry="7.2881355"
     d="m 573.22032,843.22034 a 7.4576273,7.2881355 0 1 1 -14.91525,0 7.4576273,7.2881355 0 1 1 14.91525,0 z"
     transform="translate(-226.15985,-725.67633)" />
  <path
     sodipodi:type="arc"
     style="fill:none;stroke:#000000;stroke-width:1;stroke-linecap:round;stroke-linejoin:round;stroke-miterlimit:4;stroke-opacity:1;stroke-dasharray:none;stroke-dashoffset:0"
     id="path4848-7"
     sodipodi:cx="565.7627"
     sodipodi:cy="843.22034"
     sodipodi:rx="7.4576273"
     sodipodi:ry="7.2881355"
     d="m 573.22032,843.22034 a 7.4576273,7.2881355 0 1 1 -14.91525,0 7.4576273,7.2881355 0 1 1 14.91525,0 z"
     transform="translate(-190.22763,-726.1848)" />
  <path
     sodipodi:type="arc"
     style="fill:none;stroke:#000000;stroke-width:1;stroke-linecap:round;stroke-linejoin:round;stroke-miterlimit:4;stroke-opacity:1;stroke-dasharray:none;stroke-dashoffset:0"
     id="path4848-7-0"
     sodipodi:cx="565.7627"
     sodipodi:cy="843.22034"
     sodipodi:rx="7.4576273"
     sodipodi:ry="7.2881355"
     d="m 573.22032,843.22034 a 7.4576273,7.2881355 0 1 1 -14.91525,0 7.4576273,7.2881355 0 1 1 14.91525,0 z"
     transform="translate(-161.41407,-726.52379)" />
</svg>
