<?xml version="1.0" encoding="UTF-8" standalone="no"?>
<!-- Created with Inkscape (http://www.inkscape.org/) -->

<svg
   xmlns:osb="http://www.openswatchbook.org/uri/2009/osb"
   xmlns:dc="http://purl.org/dc/elements/1.1/"
   xmlns:cc="http://creativecommons.org/ns#"
   xmlns:rdf="http://www.w3.org/1999/02/22-rdf-syntax-ns#"
   xmlns:svg="http://www.w3.org/2000/svg"
   xmlns="http://www.w3.org/2000/svg"
   xmlns:xlink="http://www.w3.org/1999/xlink"
   xmlns:sodipodi="http://sodipodi.sourceforge.net/DTD/sodipodi-0.dtd"
   xmlns:inkscape="http://www.inkscape.org/namespaces/inkscape"
   id="svg3052"
   version="1.1"
   inkscape:version="0.91 r13725"
   viewBox="0 0 350 200"
   sodipodi:docname="page2.svg">
  <metadata
     id="metadata3058">
    <rdf:RDF>
      <cc:Work
         rdf:about="">
        <dc:format>image/svg+xml</dc:format>
        <dc:type
           rdf:resource="http://purl.org/dc/dcmitype/StillImage" />
        <dc:title />
      </cc:Work>
    </rdf:RDF>
  </metadata>
  <defs
     id="defs3056">
    <linearGradient
       id="linearGradient3958"
       osb:paint="solid">
      <stop
         style="stop-color:#000000;stop-opacity:0;"
         offset="0"
         id="stop3960" />
    </linearGradient>
    <linearGradient
       id="linearGradient3924"
       osb:paint="solid">
      <stop
         style="stop-color:#000000;stop-opacity:1;"
         offset="0"
         id="stop3926" />
    </linearGradient>
    <linearGradient
       id="linearGradient3918"
       osb:paint="solid">
      <stop
         style="stop-color:#000000;stop-opacity:1;"
         offset="0"
         id="stop3920" />
    </linearGradient>
    <linearGradient
       id="linearGradient3908"
       osb:paint="solid">
      <stop
         style="stop-color:#000000;stop-opacity:1;"
         offset="0"
         id="stop3910" />
    </linearGradient>
    <linearGradient
       inkscape:collect="always"
       xlink:href="#linearGradient3908"
       id="linearGradient3912"
       x1="359.31033"
       y1="411.3793"
       x2="379.31033"
       y2="411.3793"
       gradientUnits="userSpaceOnUse" />
    <linearGradient
       inkscape:collect="always"
       xlink:href="#linearGradient3908-1"
       id="linearGradient3912-1"
       x1="359.31033"
       y1="411.3793"
       x2="379.31033"
       y2="411.3793"
       gradientUnits="userSpaceOnUse" />
    <linearGradient
       id="linearGradient3908-1"
       osb:paint="solid">
      <stop
         style="stop-color:#000000;stop-opacity:1;"
         offset="0"
         id="stop3910-1" />
    </linearGradient>
    <linearGradient
       y2="411.3793"
       x2="379.31033"
       y1="411.3793"
       x1="359.31033"
       gradientUnits="userSpaceOnUse"
       id="linearGradient3982"
       xlink:href="#linearGradient3908-1"
       inkscape:collect="always" />
    <linearGradient
       inkscape:collect="always"
       xlink:href="#linearGradient3908-7"
       id="linearGradient3912-8"
       x1="359.31033"
       y1="411.3793"
       x2="379.31033"
       y2="411.3793"
       gradientUnits="userSpaceOnUse" />
    <linearGradient
       id="linearGradient3908-7"
       osb:paint="solid">
      <stop
         style="stop-color:#000000;stop-opacity:1;"
         offset="0"
         id="stop3910-8" />
    </linearGradient>
    <linearGradient
       y2="411.3793"
       x2="379.31033"
       y1="411.3793"
       x1="359.31033"
       gradientUnits="userSpaceOnUse"
       id="linearGradient3982-3"
       xlink:href="#linearGradient3908-7"
       inkscape:collect="always" />
    <linearGradient
       y2="411.3793"
       x2="379.31033"
       y1="411.3793"
       x1="359.31033"
       gradientUnits="userSpaceOnUse"
       id="linearGradient3982-3-4"
       xlink:href="#linearGradient3908-7-1"
       inkscape:collect="always" />
    <linearGradient
       id="linearGradient3908-7-1"
       osb:paint="solid">
      <stop
         style="stop-color:#000000;stop-opacity:1;"
         offset="0"
         id="stop3910-8-3" />
    </linearGradient>
    <linearGradient
       y2="411.3793"
       x2="379.31033"
       y1="411.3793"
       x1="359.31033"
       gradientUnits="userSpaceOnUse"
       id="linearGradient4028"
       xlink:href="#linearGradient3908-7-1"
       inkscape:collect="always" />
  </defs>
  <sodipodi:namedview
     pagecolor="#ffffff"
     bordercolor="#666666"
     borderopacity="1"
     objecttolerance="10"
     gridtolerance="10"
     guidetolerance="10"
     inkscape:pageopacity="0"
     inkscape:pageshadow="2"
     inkscape:window-width="1366"
     inkscape:window-height="768"
     id="namedview3054"
     showgrid="false"
     inkscape:zoom="1.0253048"
     inkscape:cx="30.662466"
     inkscape:cy="203.39829"
     inkscape:window-x="0"
     inkscape:window-y="0"
     inkscape:window-maximized="0"
     inkscape:current-layer="svg3052" />
  <path
     style="fill:none;stroke:#000000;stroke-width:1px;stroke-linecap:butt;stroke-linejoin:miter;stroke-opacity:1"
     d="m 141.70065,64.39777 c 5.98222,-7.47245 21.13434,-12.28774 31.38397,-5.15919 21.0823,14.66263 25.14171,8.75005 29.65051,5.50401 6.73312,-1.85504 10.9074,-15.96089 19.46395,-2.39224 3.71845,5.89658 13.12767,1.59216 17.4326,-4.15948 2.98474,-5.63877 8.30245,-7.19484 18.62069,0 7.39784,7.14569 13.01994,3.63685 18.62069,0 l -0.68966,0"
     id="path3066"
     inkscape:connector-curvature="0"
     sodipodi:nodetypes="cscscccc" />
  <path
     style="fill:none;stroke:#000000;stroke-width:1px;stroke-linecap:butt;stroke-linejoin:miter;stroke-opacity:1"
     d="m 141.35582,64.05294 c 8.35358,10.90287 18.93443,1.38276 31.59784,-4.6502 14.42707,-6.87318 23.7996,2.17938 30.14045,5.75844 4.35684,2.4592 13.55678,5.10787 18.80169,-2.43773 7.05435,-10.14876 14.08353,-10.48568 16.77601,-3.98092 3.21149,7.75864 12.94308,6.7751 18.97726,-0.7161 4.27605,-5.30856 9.72404,-8.37324 16.46537,-4.66315 l -0.34483,0"
     id="path3068"
     inkscape:connector-curvature="0"
     sodipodi:nodetypes="cssssscc" />
  <path
     style="fill:none;stroke:#000000;stroke-width:1px;stroke-linecap:butt;stroke-linejoin:miter;stroke-opacity:1"
     d="m 146.87306,59.91501 c 0.68965,3.7931 0.68965,3.7931 0.68965,3.7931"
     id="path3070"
     inkscape:connector-curvature="0" />
  <path
     style="fill:none;stroke:#000000;stroke-width:1px;stroke-linecap:butt;stroke-linejoin:miter;stroke-opacity:1"
     d="m 157.56271,66.46673 c -0.68965,-3.10345 -0.68965,-3.10345 -0.68965,-3.10345"
     id="path3072"
     inkscape:connector-curvature="0" />
  <path
     style="fill:none;stroke:#000000;stroke-width:1px;stroke-linecap:butt;stroke-linejoin:miter;stroke-opacity:1"
     d="m 157.21789,56.12191 c 0.68965,3.44827 0.68965,3.44827 0.68965,3.44827"
     id="path3074"
     inkscape:connector-curvature="0" />
  <path
     style="fill:none;stroke:#000000;stroke-width:1px;stroke-linecap:butt;stroke-linejoin:miter;stroke-opacity:1"
     d="m 163.07996,55.77708 c 0,3.10345 0,3.10345 0,3.10345"
     id="path3076"
     inkscape:connector-curvature="0" />
  <path
     style="fill:none;stroke:#000000;stroke-width:1px;stroke-linecap:butt;stroke-linejoin:miter;stroke-opacity:1"
     d="m 212.73513,57.50122 c 0.34483,4.13793 0.34483,3.7931 0.34483,3.7931"
     id="path3078"
     inkscape:connector-curvature="0" />
  <path
     style="fill:none;stroke:#000000;stroke-width:1px;stroke-linecap:butt;stroke-linejoin:miter;stroke-opacity:1"
     d="m 231.70065,54.39777 c 0,3.44827 0,3.44827 0,3.44827"
     id="path3086"
     inkscape:connector-curvature="0" />
  <path
     style="fill:none;stroke:#000000;stroke-width:1px;stroke-linecap:butt;stroke-linejoin:miter;stroke-opacity:1"
     d="m 245.49375,54.05294 c 0,4.13793 0,4.13793 0,4.13793"
     id="path3090"
     inkscape:connector-curvature="0" />
  <path
     style="fill:none;stroke:#000000;stroke-width:1px;stroke-linecap:butt;stroke-linejoin:miter;stroke-opacity:1"
     d="m 245.49375,63.36328 c -0.34483,-3.44827 -0.34483,-3.44827 -0.34483,-3.44827"
     id="path3092"
     inkscape:connector-curvature="0" />
  <path
     style="fill:none;stroke:#000000;stroke-width:1px;stroke-linecap:butt;stroke-linejoin:miter;stroke-opacity:1"
     d="m 264.45927,51.98397 c 0.68965,4.48276 0.68965,4.48276 0.68965,4.48276 l 0,0 0,0"
     id="path3096"
     inkscape:connector-curvature="0" />
  <path
     style="fill:none;stroke:#000000;stroke-width:1px;stroke-linecap:butt;stroke-linejoin:miter;stroke-opacity:1"
     d="m 270.32134,60.94949 c -0.68966,-4.48276 -0.68966,-4.48276 -0.68966,-4.48276"
     id="path3098"
     inkscape:connector-curvature="0" />
  <path
     style="fill:none;stroke:#000000;stroke-width:1px;stroke-linecap:butt;stroke-linejoin:miter;stroke-opacity:1"
     d="m 187.21789,66.81156 c -0.68966,-4.82759 -0.68966,-4.82759 -0.68966,-4.82759"
     id="path3100"
     inkscape:connector-curvature="0" />
  <path
     style="fill:none;stroke:#000000;stroke-width:1px;stroke-linecap:butt;stroke-linejoin:miter;stroke-opacity:1"
     d="m 191.70065,58.88053 c 0,3.7931 0,3.7931 0,3.7931"
     id="path3102"
     inkscape:connector-curvature="0" />
  <path
     style="fill:none;stroke:#000000;stroke-width:1px;stroke-linecap:butt;stroke-linejoin:miter;stroke-opacity:1"
     d="m 213.07996,67.84604 c -0.34483,-3.7931 -0.68966,-5.17241 -0.68966,-5.17241"
     id="path3104"
     inkscape:connector-curvature="0" />
  <path
     style="fill:none;stroke:#000000;stroke-width:1px;stroke-linecap:butt;stroke-linejoin:miter;stroke-opacity:1"
     d="m 230.66616,64.39777 c 0.34483,-3.79311 0.34483,-3.79311 0.34483,-3.79311"
     id="path3108"
     inkscape:connector-curvature="0" />
  <path
     style="fill:none;stroke:#000000;stroke-width:1px;stroke-linecap:butt;stroke-linejoin:miter;stroke-opacity:1"
     d="m 131.35582,49.22535 c 128.96552,-8.62069 128.62069,-8.62069 128.62069,-8.62069 l 11.03448,-2.75862 3.7931,-0.68965 -0.34482,7.5862 11.03448,23.44828 1.72414,-1.03448 -0.68966,8.62069 -8.27586,3.44827 -0.34483,-7.5862 -48.27586,5.51724 -72.75862,4.82758 -8.27586,-1.72413 0,8.62069 -7.24138,-0.34483 1.72414,-1.37931 c -2.4138,-11.03448 -2.4138,-11.03448 -2.4138,-11.03448 l -6.55172,-20.34483 z"
     id="path3110"
     inkscape:connector-curvature="0" />
  <path
     style="fill:none;stroke:#000000;stroke-width:1px;stroke-linecap:butt;stroke-linejoin:miter;stroke-opacity:1"
     d="m 149.63168,85.43225 c 101.72414,-3.7931 101.72414,-3.7931 101.72414,-3.7931 l 26.55172,-3.44828 0,0 0,0"
     id="path3112"
     inkscape:connector-curvature="0" />
  <path
     style="fill:none;stroke:#000000;stroke-width:1px;stroke-linecap:butt;stroke-linejoin:miter;stroke-opacity:1"
     d="m 285.83858,76.81156 c -0.68966,23.10345 -0.68966,22.75862 -0.68966,22.75862 l 2.75862,-0.68965 -0.68965,9.65517 -2.06897,2.06896 -32.75862,-1.37931 c -10.13072,-8.44103 -14.09523,-3.66877 -17.93103,1.37931 l -58.27587,3.44828 c -4.82777,-5.10148 -16.2071,-9.46922 -21.72413,3.44828 l -44.82759,0.68965 c -5.28736,-4.50475 -10.57471,-5.67085 -15.86207,1.72414 l -5.86207,0 -30.344827,2.06896 c -12.74436,-10.43268 -17.34511,-5.39249 -21.03448,1.37931 l -9.65517,-0.68965 -15.51724,-18.27586 -0.34483,0.68965 6.2069,-15.86207 12.06896,16.55173 -1.03448,16.55172"
     id="path3114"
     inkscape:connector-curvature="0"
     sodipodi:nodetypes="cccccccccccccccccccc" />
  <path
     style="fill:none;stroke:#000000;stroke-width:1px;stroke-linecap:butt;stroke-linejoin:miter;stroke-opacity:1"
     d="M 28.597203,104.05294 C 83.76961,95.77708 83.76961,95.77708 83.76961,95.77708 l 0.34483,15.51724 3.7931,0 0.68966,8.96552 0,0"
     id="path3116"
     inkscape:connector-curvature="0" />
  <path
     style="fill:none;stroke:#000000;stroke-width:1px;stroke-linecap:butt;stroke-linejoin:miter;stroke-opacity:1"
     d="M 17.562713,88.5357 C 49.631683,76.81156 49.631683,76.81156 49.631683,76.81156 L 84.45927,95.43225 83.42478,94.05294 88.5972,89.91501 97.21789,59.22535 C 90.6606,50.80998 78.07365,46.91686 68.252373,40.9495 l 0.34483,4.48275 -21.37931,31.72414"
     id="path3118"
     inkscape:connector-curvature="0"
     sodipodi:nodetypes="ccccccccc" />
  <path
     style="fill:none;stroke:#000000;stroke-width:1px;stroke-linecap:butt;stroke-linejoin:miter;stroke-opacity:1"
     d="M 51.700653,77.15639 69.97651,46.46673 82.04547,54.39777 c 4.94728,1.88221 12.01198,2.49396 12.75862,6.89655 l -15.86207,31.03448 0,0 0,0 0,0"
     id="path3120"
     inkscape:connector-curvature="0"
     sodipodi:nodetypes="cccccccc" />
  <path
     style="fill:none;stroke:#000000;stroke-width:1px;stroke-linecap:butt;stroke-linejoin:miter;stroke-opacity:1"
     d="m 68.252373,40.60466 52.413787,-12.06896 12.75862,25.86207 -36.89655,4.13793 2.41379,48.96552 35.17242,-2.4138 c -0.92968,-12.48704 -2.99157,-24.59668 -1.37931,-37.93103 l -4.48276,-12.06897 0.34483,0.34483"
     id="path3122"
     inkscape:connector-curvature="0"
     sodipodi:nodetypes="ccccccccc" />
  <path
     style="fill:none;stroke:#000000;stroke-width:1px;stroke-linecap:butt;stroke-linejoin:miter;stroke-opacity:1"
     d="m 104.11444,65.77708 -2.41379,17.5862 21.72413,-1.37931 6.89656,0.68966 -5.86207,-20 -22.06897,3.10345"
     id="path3124"
     inkscape:connector-curvature="0" />
  <path
     style="fill:none;stroke:#000000;stroke-width:1px;stroke-linecap:butt;stroke-linejoin:miter;stroke-opacity:1"
     d="m 19.286853,93.36328 -2.75862,7.24138 -2.41379,-1.37931 0,0"
     id="path3126"
     inkscape:connector-curvature="0" />
  <path
     style="fill:none;stroke:#000000;stroke-width:1px;stroke-linecap:butt;stroke-linejoin:miter;stroke-opacity:1"
     d="m 24.804093,100.94949 -2.41379,8.96552 6.2069,3.10345"
     id="path3128"
     inkscape:connector-curvature="0" />
  <path
     style="fill:none;stroke:#000000;stroke-width:1px;stroke-linecap:butt;stroke-linejoin:miter;stroke-opacity:1"
     d="m 133.76961,55.43225 48.96552,-1.72414 10.68965,-3.10345 c 25.97806,-4.56732 52.77621,-5.07016 79.65518,-5.17241 l 1.37931,-0.34483"
     id="path3130"
     inkscape:connector-curvature="0"
     sodipodi:nodetypes="ccccc" />
  <path
     sodipodi:type="arc"
     id="path3132"
     sodipodi:cx="369.31033"
     sodipodi:cy="411.3793"
     sodipodi:rx="10"
     sodipodi:ry="9.6551723"
     d="m 379.31033,411.3793 a 10,9.6551723 0 1 1 -20,0 10,9.6551723 0 1 1 20,0 z"
     style="fill:none;stroke:url(#linearGradient3912)"
     transform="translate(-123.47176,-288.70568)" />
  <path
     sodipodi:type="arc"
     id="path3132-0"
     sodipodi:cx="369.31033"
     sodipodi:cy="411.3793"
     sodipodi:rx="10"
     sodipodi:ry="9.6551723"
     d="m 379.31033,411.3793 a 10,9.6551723 0 1 1 -20,0 10,9.6551723 0 1 1 20,0 z"
     style="fill:none;stroke:url(#linearGradient3982)"
     transform="translate(-202.43727,-288.36085)" />
  <path
     sodipodi:type="arc"
     id="path3132-3"
     sodipodi:cx="369.31033"
     sodipodi:cy="411.3793"
     sodipodi:rx="10"
     sodipodi:ry="9.6551723"
     d="m 379.31033,411.3793 a 10,9.6551723 0 1 1 -20,0 10,9.6551723 0 1 1 20,0 z"
     style="fill:none;stroke:url(#linearGradient3982-3)"
     transform="matrix(0.83636476,0,0,0.8126635,-204.7637,-208.01863)" />
  <path
     sodipodi:type="arc"
     id="path3132-3-8"
     sodipodi:cx="369.31033"
     sodipodi:cy="411.3793"
     sodipodi:rx="10"
     sodipodi:ry="9.6551723"
     d="m 379.31033,411.3793 a 10,9.6551723 0 1 1 -20,0 10,9.6551723 0 1 1 20,0 z"
     style="fill:none;stroke:url(#linearGradient4028)"
     transform="matrix(0.85320391,0,0,0.8122469,-268.7412,-207.33001)" />
  <text
     xml:space="preserve"
     style="font-size:18px;font-style:normal;font-variant:normal;font-weight:normal;font-stretch:normal;line-height:125%;letter-spacing:0px;word-spacing:0px;fill:#000000;fill-opacity:1;stroke:none;font-family:DejaVu Sans Mono;-inkscape-font-specification:DejaVu Sans Mono"
     x="33.07996"
     y="153.36328"
     id="text4045"
     sodipodi:linespacing="125%"><tspan
       sodipodi:role="line"
       id="tspan4047"
       x="33.07996"
       y="153.36328">Get that DNA to the NEXT GEN</tspan></text>
  <path
     style="fill:none;stroke:#000000;stroke-width:1px;stroke-linecap:butt;stroke-linejoin:miter;stroke-opacity:1"
     d="m 251.70065,157.15639 83.7931,-0.68966 0.34483,4.48276 -84.48276,0.68966 z"
     id="path4049"
     inkscape:connector-curvature="0" />
</svg>
