<?xml version="1.0" encoding="UTF-8" standalone="no"?>
<!-- Created with Inkscape (http://www.inkscape.org/) -->

<svg
   xmlns:osb="http://www.openswatchbook.org/uri/2009/osb"
   xmlns:dc="http://purl.org/dc/elements/1.1/"
   xmlns:cc="http://creativecommons.org/ns#"
   xmlns:rdf="http://www.w3.org/1999/02/22-rdf-syntax-ns#"
   xmlns:svg="http://www.w3.org/2000/svg"
   xmlns="http://www.w3.org/2000/svg"
   xmlns:xlink="http://www.w3.org/1999/xlink"
   xmlns:sodipodi="http://sodipodi.sourceforge.net/DTD/sodipodi-0.dtd"
   xmlns:inkscape="http://www.inkscape.org/namespaces/inkscape"
   id="svg3052"
   version="1.1"
   inkscape:version="0.91 r13725"
   viewBox="0 0 400 150"
   sodipodi:docname="page3.svg">
  <metadata
     id="metadata3058">
    <rdf:RDF>
      <cc:Work
         rdf:about="">
        <dc:format>image/svg+xml</dc:format>
        <dc:type
           rdf:resource="http://purl.org/dc/dcmitype/StillImage" />
        <dc:title />
      </cc:Work>
    </rdf:RDF>
  </metadata>
  <defs
     id="defs3056">
    <linearGradient
       id="linearGradient5489"
       osb:paint="solid">
      <stop
         style="stop-color:#000000;stop-opacity:1;"
         offset="0"
         id="stop5491" />
    </linearGradient>
    <linearGradient
       id="linearGradient5449"
       osb:paint="solid">
      <stop
         style="stop-color:#000000;stop-opacity:1;"
         offset="0"
         id="stop5451" />
    </linearGradient>
    <linearGradient
       id="linearGradient5433"
       osb:paint="solid">
      <stop
         style="stop-color:#000000;stop-opacity:1;"
         offset="0"
         id="stop5435" />
    </linearGradient>
    <linearGradient
       id="linearGradient5425"
       osb:paint="solid">
      <stop
         style="stop-color:#000000;stop-opacity:1;"
         offset="0"
         id="stop5427" />
    </linearGradient>
    <linearGradient
       id="linearGradient5374"
       osb:paint="solid">
      <stop
         style="stop-color:#000000;stop-opacity:1;"
         offset="0"
         id="stop5376" />
    </linearGradient>
    <linearGradient
       id="linearGradient5368"
       osb:paint="solid">
      <stop
         style="stop-color:#000000;stop-opacity:1;"
         offset="0"
         id="stop5370" />
    </linearGradient>
    <linearGradient
       id="linearGradient5362"
       osb:paint="solid">
      <stop
         style="stop-color:#000000;stop-opacity:1;"
         offset="0"
         id="stop5364" />
    </linearGradient>
    <linearGradient
       id="linearGradient3896"
       osb:paint="solid">
      <stop
         style="stop-color:#000000;stop-opacity:0.01568628;"
         offset="0"
         id="stop3898" />
    </linearGradient>
    <linearGradient
       inkscape:collect="always"
       xlink:href="#linearGradient5374"
       id="linearGradient5378"
       x1="273.57718"
       y1="524.47217"
       x2="303.32443"
       y2="524.47217"
       gradientUnits="userSpaceOnUse" />
    <linearGradient
       inkscape:collect="always"
       xlink:href="#linearGradient5374-8"
       id="linearGradient5378-2"
       x1="273.57718"
       y1="524.47217"
       x2="303.32443"
       y2="524.47217"
       gradientUnits="userSpaceOnUse" />
    <linearGradient
       id="linearGradient5374-8"
       osb:paint="solid">
      <stop
         style="stop-color:#000000;stop-opacity:1;"
         offset="0"
         id="stop5376-7" />
    </linearGradient>
    <linearGradient
       y2="524.47217"
       x2="303.32443"
       y1="524.47217"
       x1="273.57718"
       gradientUnits="userSpaceOnUse"
       id="linearGradient5394"
       xlink:href="#linearGradient5374-8"
       inkscape:collect="always" />
    <linearGradient
       inkscape:collect="always"
       xlink:href="#linearGradient5433"
       id="linearGradient5437"
       x1="344.77551"
       y1="558.12073"
       x2="377.9364"
       y2="558.12073"
       gradientUnits="userSpaceOnUse" />
    <linearGradient
       inkscape:collect="always"
       xlink:href="#linearGradient5449-0"
       id="linearGradient5453-1"
       x1="248.70651"
       y1="582.99139"
       x2="253.58311"
       y2="582.99139"
       gradientUnits="userSpaceOnUse" />
    <linearGradient
       id="linearGradient5449-0"
       osb:paint="solid">
      <stop
         style="stop-color:#000000;stop-opacity:0;"
         offset="0"
         id="stop5451-1" />
    </linearGradient>
  </defs>
  <sodipodi:namedview
     pagecolor="#ffffff"
     bordercolor="#666666"
     borderopacity="1"
     objecttolerance="10"
     gridtolerance="10"
     guidetolerance="10"
     inkscape:pageopacity="0"
     inkscape:pageshadow="2"
     inkscape:window-width="1366"
     inkscape:window-height="768"
     id="namedview3054"
     showgrid="false"
     inkscape:zoom="0.725"
     inkscape:cx="517.24138"
     inkscape:cy="-216.20967"
     inkscape:window-x="0"
     inkscape:window-y="0"
     inkscape:window-maximized="0"
     inkscape:current-layer="svg3052" />
  <path
     style="fill:none;stroke:#000000;stroke-width:1px;stroke-linecap:butt;stroke-linejoin:miter;stroke-opacity:1"
     d="m 64.529007,16.720386 c 14.38669,2.27335 28.90801,4.09788 39.500453,19.01873 23.65862,33.965707 57.51769,7.96206 62.42045,-0.97532 39.54596,-46.37283 55.11031,4.67817 53.64258,3.41362 34.90709,44.372141 50.4571,11.31593 67.78472,-14.6298 23.40767,-25.9566607 46.81535,-23.94654071 70.22302,7.3149 l 3.41362,4.38894"
     id="path3064"
     inkscape:connector-curvature="0"
     sodipodi:nodetypes="ccccccc" />
  <path
     style="fill:none;stroke:#000000;stroke-width:1px;stroke-linecap:butt;stroke-linejoin:miter;stroke-opacity:1"
     d="m 59.652407,48.418276 c 35.571661,10.12422 39.222112,-3.14877 43.944933,-11.15991 22.10004,-37.48744071 45.31936,-16.97792 62.85257,-2.98223 2.52319,20.54144 43.54518,25.552067 54.2441,3.68716 18.46587,-37.73790071 50.74486,-30.3756307 68.64618,-14.41568 26.35812,49.600517 56.08393,9.38412 87.29112,-3.41361 l 0,0"
     id="path3066"
     inkscape:connector-curvature="0"
     sodipodi:nodetypes="cscsccc" />
  <path
     style="fill:none;stroke:#000000;stroke-width:1px;stroke-linecap:butt;stroke-linejoin:miter;stroke-opacity:1"
     d="m 75.257527,18.183366 c 0.48766,12.67915 0.48766,12.19149 0.48766,12.19149"
     id="path3068"
     inkscape:connector-curvature="0" />
  <path
     style="fill:none;stroke:#000000;stroke-width:1px;stroke-linecap:butt;stroke-linejoin:miter;stroke-opacity:1"
     d="m 89.887317,25.010596 c 0.97532,7.3149 0.97532,7.3149 0.97532,7.3149 l 0,0 0,0"
     id="path3070"
     inkscape:connector-curvature="0" />
  <path
     style="fill:none;stroke:#000000;stroke-width:1px;stroke-linecap:butt;stroke-linejoin:miter;stroke-opacity:1"
     d="m 90.374977,50.368916 c -3.90127,-8.29022 -4.38893,-8.77788 -4.38893,-8.77788"
     id="path3072"
     inkscape:connector-curvature="0" />
  <path
     style="fill:none;stroke:#000000;stroke-width:1px;stroke-linecap:butt;stroke-linejoin:miter;stroke-opacity:1"
     d="m 71.843907,50.368916 c 0,-6.82724 0,-7.3149 0,-7.3149"
     id="path3074"
     inkscape:connector-curvature="0" />
  <path
     style="fill:none;stroke:#000000;stroke-width:1px;stroke-linecap:butt;stroke-linejoin:miter;stroke-opacity:1"
     d="m 124.51116,16.232726 c 1.46298,11.21617 0.97532,10.72851 0.97532,10.72851"
     id="path3076"
     inkscape:connector-curvature="0" />
  <path
     style="fill:none;stroke:#000000;stroke-width:1px;stroke-linecap:butt;stroke-linejoin:miter;stroke-opacity:1"
     d="m 126.94946,52.319556 c -3.41362,-10.72852 -3.41362,-10.72852 -3.41362,-10.72852"
     id="path3078"
     inkscape:connector-curvature="0" />
  <path
     style="fill:none;stroke:#000000;stroke-width:1px;stroke-linecap:butt;stroke-linejoin:miter;stroke-opacity:1"
     d="m 137.67798,16.232726 c 0.97532,9.26553 0.97532,9.26553 0.97532,9.26553"
     id="path3080"
     inkscape:connector-curvature="0" />
  <path
     style="fill:none;stroke:#000000;stroke-width:1px;stroke-linecap:butt;stroke-linejoin:miter;stroke-opacity:1"
     d="m 151.82012,22.084636 c 0.48765,12.1915 0.48765,12.1915 0.48765,12.1915"
     id="path3082"
     inkscape:connector-curvature="0" />
  <path
     style="fill:none;stroke:#000000;stroke-width:1px;stroke-linecap:butt;stroke-linejoin:miter;stroke-opacity:1"
     d="m 149.38182,48.905936 c 0,-8.29022 0,-8.29022 0,-8.29022"
     id="path3084"
     inkscape:connector-curvature="0" />
  <path
     style="fill:none;stroke:#000000;stroke-width:1px;stroke-linecap:butt;stroke-linejoin:miter;stroke-opacity:1"
     d="m 138.6533,51.831896 c -1.46298,-11.70384 -1.95064,-11.70384 -1.95064,-11.70384"
     id="path3086"
     inkscape:connector-curvature="0" />
  <path
     style="fill:none;stroke:#000000;stroke-width:1px;stroke-linecap:butt;stroke-linejoin:miter;stroke-opacity:1"
     d="m 181.56737,21.109326 c 0.97532,7.80255 0.97532,7.80255 0.97532,7.80255"
     id="path3088"
     inkscape:connector-curvature="0" />
  <path
     style="fill:none;stroke:#000000;stroke-width:1px;stroke-linecap:butt;stroke-linejoin:miter;stroke-opacity:1"
     d="m 184.98098,50.368916 c -0.48766,-11.70384 0,-11.70384 0,-11.70384"
     id="path3090"
     inkscape:connector-curvature="0" />
  <path
     style="fill:none;stroke:#000000;stroke-width:1px;stroke-linecap:butt;stroke-linejoin:miter;stroke-opacity:1"
     d="m 190.8329,16.232726 c 1.95064,11.21617 2.4383,10.72851 2.4383,10.72851"
     id="path3092"
     inkscape:connector-curvature="0" />
  <path
     style="fill:none;stroke:#000000;stroke-width:1px;stroke-linecap:butt;stroke-linejoin:miter;stroke-opacity:1"
     d="m 202.04908,16.232726 c 1.46298,12.19149 1.95064,12.67915 1.95064,12.67915"
     id="path3096"
     inkscape:connector-curvature="0" />
  <path
     style="fill:none;stroke:#000000;stroke-width:1px;stroke-linecap:butt;stroke-linejoin:miter;stroke-opacity:1"
     d="m 200.09844,50.856576 c -3.41362,-11.21618 -2.92596,-11.70384 -2.92596,-11.70384"
     id="path3098"
     inkscape:connector-curvature="0" />
  <path
     style="fill:none;stroke:#000000;stroke-width:1px;stroke-linecap:butt;stroke-linejoin:miter;stroke-opacity:1"
     d="m 234.72229,20.134006 c 0.97532,12.19149 1.46298,12.19149 1.46298,12.19149"
     id="path3100"
     inkscape:connector-curvature="0" />
  <path
     style="fill:none;stroke:#000000;stroke-width:1px;stroke-linecap:butt;stroke-linejoin:miter;stroke-opacity:1"
     d="M 254.22868,10.380805 C 255.204,27.936556 255.204,27.936556 255.204,27.936556"
     id="path3102"
     inkscape:connector-curvature="0" />
  <path
     style="fill:none;stroke:#000000;stroke-width:1px;stroke-linecap:butt;stroke-linejoin:miter;stroke-opacity:1"
     d="m 270.32146,12.331445 c 1.95064,14.629791 1.95064,14.629791 1.95064,14.629791 l 0,0 0.48766,-0.48766"
     id="path3104"
     inkscape:connector-curvature="0" />
  <path
     style="fill:none;stroke:#000000;stroke-width:1px;stroke-linecap:butt;stroke-linejoin:miter;stroke-opacity:1"
     d="m 270.80912,46.955296 c -3.41362,-8.77788 -3.41362,-8.77788 -3.41362,-8.77788"
     id="path3106"
     inkscape:connector-curvature="0" />
  <path
     style="fill:none;stroke:#000000;stroke-width:1px;stroke-linecap:butt;stroke-linejoin:miter;stroke-opacity:1"
     d="M 254.71634,59.634446 C 252.7657,44.029336 252.7657,44.029336 252.7657,44.029336"
     id="path3108"
     inkscape:connector-curvature="0" />
  <path
     style="fill:none;stroke:#000000;stroke-width:1px;stroke-linecap:butt;stroke-linejoin:miter;stroke-opacity:1"
     d="m 235.20995,52.319556 c 0,-10.72852 0,-10.72852 0,-10.72852"
     id="path3110"
     inkscape:connector-curvature="0" />
  <path
     style="fill:none;stroke:#000000;stroke-width:1px;stroke-linecap:butt;stroke-linejoin:miter;stroke-opacity:1"
     d="m 340.05682,12.331445 c 0.97532,10.728511 0.48766,9.753191 0.48766,9.753191"
     id="path3112"
     inkscape:connector-curvature="0" />
  <path
     style="fill:none;stroke:#000000;stroke-width:1px;stroke-linecap:butt;stroke-linejoin:miter;stroke-opacity:1"
     d="m 341.03214,41.103376 c -1.46298,-8.77788 -1.46298,-8.77788 -1.46298,-8.77788"
     id="path3114"
     inkscape:connector-curvature="0" />
  <path
     style="fill:none;stroke:#000000;stroke-width:1px;stroke-linecap:butt;stroke-linejoin:miter;stroke-opacity:1"
     d="m 327.37766,46.467636 c -2.92596,-12.1915 -2.4383,-12.67916 -2.4383,-12.67916"
     id="path3116"
     inkscape:connector-curvature="0" />
  <path
     style="fill:none;stroke:#000000;stroke-width:1px;stroke-linecap:butt;stroke-linejoin:miter;stroke-opacity:1"
     d="M 323.96404,5.5042053 C 326.40234,19.158686 326.89,18.671026 326.89,18.671026"
     id="path3118"
     inkscape:connector-curvature="0" />
  <path
     style="fill:none;stroke:#000000;stroke-width:1px;stroke-linecap:butt;stroke-linejoin:miter;stroke-opacity:1"
     d="m 310.79723,45.492316 c -0.48766,-12.1915 -0.48766,-12.1915 -0.48766,-12.1915"
     id="path3120"
     inkscape:connector-curvature="0" />
  <path
     style="fill:none;stroke:#000000;stroke-width:1px;stroke-linecap:butt;stroke-linejoin:miter;stroke-opacity:1"
     d="m 308.35893,7.4548453 c 0.97532,13.1668207 0.97532,13.1668207 0.97532,13.1668207"
     id="path3122"
     inkscape:connector-curvature="0" />
  <path
     sodipodi:type="arc"
     style="fill:none;stroke:url(#linearGradient5378)"
     id="path3126"
     sodipodi:cx="288.45081"
     sodipodi:cy="524.47217"
     sodipodi:rx="14.873626"
     sodipodi:ry="13.654476"
     d="m 303.32443,524.47217 a 14.873626,13.654476 0 1 1 -29.74725,0 14.873626,13.654476 0 1 1 29.74725,0 z"
     transform="matrix(1.3023706,0,0,1.2400821,-179.47266,-599.53204)" />
  <path
     sodipodi:type="arc"
     style="fill:none;stroke:url(#linearGradient5394)"
     id="path3126-2"
     sodipodi:cx="288.45081"
     sodipodi:cy="524.47217"
     sodipodi:rx="14.873626"
     sodipodi:ry="13.654476"
     d="m 303.32443,524.47217 a 14.873626,13.654476 0 1 1 -29.74725,0 14.873626,13.654476 0 1 1 29.74725,0 z"
     transform="matrix(1.060569,0,0,1.2445481,21.699527,-607.23855)" />
  <path
     style="fill:none;stroke:#000000;stroke-width:1px;stroke-linecap:butt;stroke-linejoin:miter;stroke-opacity:1"
     d="m 210.82696,62.560403 3.90128,21.457044 116.5507,-3.41362 -1.46298,-17.555764"
     id="path5411"
     inkscape:connector-curvature="0" />
  <path
     sodipodi:type="arc"
     style="fill:none;stroke:url(#linearGradient5437)"
     id="path5431"
     sodipodi:cx="361.35596"
     sodipodi:cy="558.12073"
     sodipodi:rx="16.580435"
     sodipodi:ry="13.654476"
     d="m 377.93639,558.12073 a 16.580435,13.654476 0 1 1 -33.16087,0 16.580435,13.654476 0 1 1 33.16087,0 z"
     transform="matrix(0.94081087,0,0,1.0888418,-75.985717,-523.44387)" />
  <path
     style="fill:none;stroke:#000000;stroke-width:1px;stroke-linecap:butt;stroke-linejoin:miter;stroke-opacity:1"
     d="m 263.49422,72.801263 0.48766,21.944694"
     id="path5441"
     inkscape:connector-curvature="0" />
  <path
     style="fill:none;stroke:#000000;stroke-width:1px;stroke-linecap:butt;stroke-linejoin:miter;stroke-opacity:1"
     d="m 255.69166,97.184257 c -6.29646,8.466033 -21.4695,5.836333 -38.03747,1.46298 -10.84927,-1.64132 -17.08208,-1.43607 -21.45703,-0.48766 l 0,0"
     id="path5443"
     inkscape:connector-curvature="0"
     sodipodi:nodetypes="cccc" />
  <path
     style="fill:none;stroke:#000000;stroke-width:1px;stroke-linecap:butt;stroke-linejoin:miter;stroke-opacity:1"
     d="m 194.24652,95.721277 c 3.37008,0.43114 9.813,10.846983 3.41362,15.117463 0.0211,4.47549 0.53126,9.07324 -14.62979,9.75319 -1.96758,6.43665 -8.76906,9.65071 -22.43236,8.29022 -8.46738,8.36326 -14.57013,4.90339 -20.48171,0.48766 -13.06196,8.35859 -16.57807,0.27227 -16.09278,-5.36426 -7.32357,-8.36439 -12.09546,-16.16174 -7.80255,-21.94469 -9.60263,-4.794843 -1.75984,-15.329533 5.36425,-14.629803 2.5535,-10.92418 19.25742,-11.55593 25.35832,-8.29021 -1.47836,-2.16817 9.59774,-18.383374 20.96937,-2.92596 -1.17961,-6.827244 2.72938,-7.152344 4.8766,-0.97532 -5.26565,-11.057614 15.73223,0.28655 12.19149,6.33958 10.13265,3.39809 7.97829,10.79441 9.7532,16.58043"
     id="path5445"
     inkscape:connector-curvature="0"
     sodipodi:nodetypes="ccccccccccccc" />
  <path
     sodipodi:type="arc"
     style="fill:none;stroke:none"
     id="path5479"
     sodipodi:cx="259.19122"
     sodipodi:cy="578.11475"
     sodipodi:rx="9.509367"
     sodipodi:ry="7.8025575"
     d="m 268.6948,578.38705 a 9.509367,7.8025575 0 1 1 0.006,-0.2723 l -9.50937,0 z"
     sodipodi:start="0.034906585"
     sodipodi:end="6.2831853"
     transform="translate(-91.034487,-470.68965)" />
  <path
     style="fill:#000000;fill-opacity:0.18367345;stroke:#000000;stroke-width:1;stroke-linecap:round;stroke-linejoin:round;stroke-miterlimit:4;stroke-opacity:1;stroke-dasharray:none;stroke-dashoffset:10"
     d="m 162.54863,102.54852 c 9.98683,2.38878 9.38334,6.10134 9.26554,9.7532 0.54353,16.81242 -22.51703,16.4957 -26.82129,0.97532 -0.0139,-0.76738 4.69364,-20.510923 17.55575,-10.72852 z"
     id="path5487"
     inkscape:connector-curvature="0"
     sodipodi:nodetypes="cccc" />
  <path
     sodipodi:type="arc"
     style="fill:#ffffff;fill-opacity:1;stroke:#000000;stroke-opacity:1"
     id="path5447-3"
     sodipodi:cx="251.14482"
     sodipodi:cy="582.99139"
     sodipodi:rx="2.4382992"
     sodipodi:ry="4.8765984"
     d="m 253.58312,582.99139 a 2.4382992,4.8765984 0 1 1 -4.8766,0 2.4382992,4.8765984 0 1 1 4.8766,0 z"
     transform="matrix(1.4891363,0,0,0.7445681,-215.34152,-321.28742)" />
  <text
     xml:space="preserve"
     style="font-size:20px;font-style:normal;font-variant:normal;font-weight:normal;font-stretch:normal;line-height:125%;letter-spacing:0px;word-spacing:0px;fill:#000000;fill-opacity:1;stroke:none;font-family:DejaVu Sans Mono;-inkscape-font-specification:DejaVu Sans Mono"
     x="131.33841"
     y="96.696564"
     id="text5530"
     sodipodi:linespacing="125%"><tspan
       sodipodi:role="line"
       id="tspan5532"
       x="131.33841"
       y="96.696564"
       style="font-size:18px">Wheel</tspan></text>
  <path
     style="fill:none;stroke:#000000;stroke-width:1px;stroke-linecap:butt;stroke-linejoin:miter;stroke-opacity:1"
     d="m 105.00478,124.49321 -4.8766,-6.82723 5.36426,-1.95064 z"
     id="path5538"
     inkscape:connector-curvature="0" />
  <path
     style="fill:none;stroke:#000000;stroke-width:1px;stroke-linecap:butt;stroke-linejoin:miter;stroke-opacity:1"
     d="m 105.49244,119.12895 8.77787,0"
     id="path5540"
     inkscape:connector-curvature="0" />
  <path
     style="fill:none;stroke:#000000;stroke-width:1px;stroke-linecap:butt;stroke-linejoin:miter;stroke-opacity:1"
     d="m 217.65419,109.37576 -0.48766,9.75319 12.67916,-2.43829 z"
     id="path5548"
     inkscape:connector-curvature="0" />
  <path
     style="fill:none;stroke:#000000;stroke-width:1px;stroke-linecap:butt;stroke-linejoin:miter;stroke-opacity:1"
     d="m 216.19122,115.22768 -9.26554,0.48766 0,0 0,-0.48766"
     id="path5550"
     inkscape:connector-curvature="0" />
  <path
     style="fill:none;stroke:#000000;stroke-width:1px;stroke-linecap:butt;stroke-linejoin:miter;stroke-opacity:1"
     d="m 272.2721,101.5732 10.72851,-6.339583 3.90128,6.339583 z"
     id="path5552"
     inkscape:connector-curvature="0" />
  <path
     style="fill:none;stroke:#000000;stroke-width:1px;stroke-linecap:butt;stroke-linejoin:miter;stroke-opacity:1"
     d="m 285.92657,102.06086 0.97532,10.72852 -13.16681,1.46298 -1.46298,-12.67916"
     id="path5554"
     inkscape:connector-curvature="0" />
  <path
     style="fill:none;stroke:#000000;stroke-width:1px;stroke-linecap:butt;stroke-linejoin:miter;stroke-opacity:1"
     d="m 285.86206,101.37932 3.44828,0.68965 1.37931,9.65517 -4.13793,0.34483 35.86207,-1.03448"
     id="path5556"
     inkscape:connector-curvature="0" />
  <path
     style="fill:none;stroke:#000000;stroke-width:1px;stroke-linecap:butt;stroke-linejoin:miter;stroke-opacity:1"
     d="m 289.99999,103.10345 21.72414,-0.68965 7.93104,1.37931 5.51724,7.58621 -3.10345,-0.34483 0,0"
     id="path5558"
     inkscape:connector-curvature="0" />
  <path
     style="fill:none;stroke:#000000;stroke-width:1px;stroke-linecap:butt;stroke-linejoin:miter;stroke-opacity:1"
     d="m 325.51723,111.72414 -1.37931,11.03449 c -3.67833,-1.60781 -7.17012,-4.708 -11.72413,0.68965 l -9.65518,0.68966 c -3.54497,-3.55323 -7.42736,-1.08104 -7.93103,1.72413 l -11.03448,2.06897 c -1.03605,-2.51782 -4.79868,-3.38744 -7.58621,-0.34483 l -6.2069,1.03448 -7.5862,-3.44827 0.34482,-6.55173 8.62069,3.10345 -0.34482,6.2069"
     id="path5560"
     inkscape:connector-curvature="0"
     sodipodi:nodetypes="cccccccccccc" />
  <path
     style="fill:none;stroke:#000000;stroke-width:1px;stroke-linecap:butt;stroke-linejoin:miter;stroke-opacity:1"
     d="m 263.10344,117.93104 10.34483,-6.2069"
     id="path5562"
     inkscape:connector-curvature="0" />
  <path
     style="fill:none;stroke:#000000;stroke-width:1px;stroke-linecap:butt;stroke-linejoin:miter;stroke-opacity:1"
     d="m 272.41379,122.06897 6.89655,-4.48276 0,-3.7931"
     id="path5564"
     inkscape:connector-curvature="0" />
  <path
     sodipodi:type="arc"
     style="fill:none;stroke:#000000;stroke-width:1;stroke-linecap:round;stroke-linejoin:round;stroke-miterlimit:4;stroke-opacity:1;stroke-dasharray:none;stroke-dashoffset:10"
     id="path5566"
     sodipodi:cx="363.96552"
     sodipodi:cy="608.4483"
     sodipodi:rx="5"
     sodipodi:ry="2.5862069"
     d="m 368.96552,608.4483 a 5,2.5862069 0 1 1 -10,0 5,2.5862069 0 1 1 10,0 z"
     transform="matrix(0.78838702,0,0,1.3908815,30.812927,-720.58984)" />
  <path
     sodipodi:type="arc"
     style="fill:none;stroke:#000000;stroke-width:1;stroke-linecap:round;stroke-linejoin:round;stroke-miterlimit:4;stroke-opacity:1;stroke-dasharray:none;stroke-dashoffset:10"
     id="path5566-7"
     sodipodi:cx="363.96552"
     sodipodi:cy="608.4483"
     sodipodi:rx="5"
     sodipodi:ry="2.5862069"
     d="m 368.96552,608.4483 a 5,2.5862069 0 1 1 -10,0 5,2.5862069 0 1 1 10,0 z"
     transform="matrix(0.75593718,0,0,1.3948118,24.692517,-720.39501)" />
  <path
     sodipodi:type="arc"
     style="fill:none;stroke:#000000;stroke-width:1;stroke-linecap:round;stroke-linejoin:round;stroke-miterlimit:4;stroke-opacity:1;stroke-dasharray:none;stroke-dashoffset:10"
     id="path5566-9"
     sodipodi:cx="363.96552"
     sodipodi:cy="608.4483"
     sodipodi:rx="5"
     sodipodi:ry="2.5862069"
     d="m 368.96552,608.4483 a 5,2.5862069 0 1 1 -10,0 5,2.5862069 0 1 1 10,0 z"
     transform="matrix(0.72784862,0,0,1.2738406,15.088207,-644.03165)" />
  <path
     style="fill:none;stroke:#000000;stroke-width:1px;stroke-linecap:butt;stroke-linejoin:miter;stroke-opacity:1"
     d="m 33.103447,115.86207 4.48276,1.72414 2.41379,10.34483 32.75862,-12.06897 3.10345,1.03449 3.44828,15.86207 -3.10345,0.34482 c -7.58245,-1.14692 -10.26301,0.97409 -12.41379,3.44828 l -14.48276,2.06896 c -3.88146,-2.22821 -6.7167,-6.20014 -15.86207,0.34483 l -5.51724,0 0,-2.75862 7.93103,-5.51724 5.51724,-3.7931 0,0 0,0"
     id="path5597"
     inkscape:connector-curvature="0"
     sodipodi:nodetypes="cccccccccccccccc" />
  <path
     style="fill:none;stroke:#000000;stroke-width:1px;stroke-linecap:butt;stroke-linejoin:miter;stroke-opacity:1"
     d="m 32.413797,115.51725 31.37931,-12.4138 8.62069,12.4138 0.68965,1.37931"
     id="path5599"
     inkscape:connector-curvature="0" />
  <path
     style="fill:none;stroke:#000000;stroke-width:1px;stroke-linecap:butt;stroke-linejoin:miter;stroke-opacity:1"
     d="m 64.137927,102.75863 16.55173,1.37931 -0.68966,13.7931 -3.7931,0.68965"
     id="path5601"
     inkscape:connector-curvature="0" />
  <path
     style="fill:none;stroke:#000000;stroke-width:1px;stroke-linecap:butt;stroke-linejoin:miter;stroke-opacity:1"
     d="m 37.241377,118.27587 -7.24138,5.86207 5.51724,6.20689"
     id="path5603"
     inkscape:connector-curvature="0" />
  <path
     style="fill:none;stroke:#000000;stroke-width:1px;stroke-linecap:butt;stroke-linejoin:miter;stroke-opacity:1"
     d="M 30.344827,123.79311 20.689657,130 l 6.20689,6.55173 0.34483,-0.34483"
     id="path5605"
     inkscape:connector-curvature="0" />
  <path
     style="fill:none;stroke:#000000;stroke-width:1px;stroke-linecap:butt;stroke-linejoin:miter;stroke-opacity:1"
     d="m 27.586207,136.55173 0.34483,3.10345 -1.72414,0.68965 -11.72414,-2.75862 5.51724,-3.7931 0,-3.79311"
     id="path5609"
     inkscape:connector-curvature="0" />
  <path
     sodipodi:type="arc"
     style="fill:none;stroke:#000000;stroke-width:1;stroke-linecap:round;stroke-linejoin:round;stroke-miterlimit:4;stroke-opacity:1;stroke-dasharray:none;stroke-dashoffset:10"
     id="path5615"
     sodipodi:cx="139.65517"
     sodipodi:cy="618.4483"
     sodipodi:rx="7.5862069"
     sodipodi:ry="4.3103447"
     d="m 147.24137,618.4483 a 7.5862069,4.3103447 0 1 1 -15.17241,0 7.5862069,4.3103447 0 1 1 15.17241,0 z"
     transform="matrix(0.92623832,0,0,1.2701793,-87.802247,-643.47128)" />
  <path
     sodipodi:type="arc"
     style="fill:none;stroke:#000000;stroke-width:1;stroke-linecap:round;stroke-linejoin:round;stroke-miterlimit:4;stroke-opacity:1;stroke-dasharray:none;stroke-dashoffset:10"
     id="path5615-6"
     sodipodi:cx="139.65517"
     sodipodi:cy="618.4483"
     sodipodi:rx="7.5862069"
     sodipodi:ry="4.3103447"
     d="m 147.24137,618.4483 a 7.5862069,4.3103447 0 1 1 -15.17241,0 7.5862069,4.3103447 0 1 1 15.17241,0 z"
     transform="matrix(0.9252117,0,0,1.3083725,-57.314042,-669.85039)" />
</svg>
