<?xml version="1.0" encoding="UTF-8" standalone="no"?>
<!-- Created with Inkscape (http://www.inkscape.org/) -->

<svg
   xmlns:dc="http://purl.org/dc/elements/1.1/"
   xmlns:cc="http://creativecommons.org/ns#"
   xmlns:rdf="http://www.w3.org/1999/02/22-rdf-syntax-ns#"
   xmlns:svg="http://www.w3.org/2000/svg"
   xmlns="http://www.w3.org/2000/svg"
   xmlns:sodipodi="http://sodipodi.sourceforge.net/DTD/sodipodi-0.dtd"
   xmlns:inkscape="http://www.inkscape.org/namespaces/inkscape"
   id="svg4037"
   version="1.1"
   inkscape:version="0.48.5 r10040"
   viewBox="0 0 500 200"
   sodipodi:docname="out0039.pnm.png">
  <metadata
     id="metadata4043">
    <rdf:RDF>
      <cc:Work
         rdf:about="">
        <dc:format>image/svg+xml</dc:format>
        <dc:type
           rdf:resource="http://purl.org/dc/dcmitype/StillImage" />
        <dc:title></dc:title>
      </cc:Work>
    </rdf:RDF>
  </metadata>
  <defs
     id="defs4041" />
  <sodipodi:namedview
     pagecolor="#ffffff"
     bordercolor="#666666"
     borderopacity="1"
     objecttolerance="10"
     gridtolerance="10"
     guidetolerance="10"
     inkscape:pageopacity="0"
     inkscape:pageshadow="2"
     inkscape:window-width="1290"
     inkscape:window-height="750"
     id="namedview4039"
     showgrid="false"
     inkscape:zoom="0.36875"
     inkscape:cx="269.36629"
     inkscape:cy="458.88291"
     inkscape:window-x="0"
     inkscape:window-y="0"
     inkscape:window-maximized="0"
     inkscape:current-layer="svg4037" />
  <path
     sodipodi:type="arc"
     style="fill:none;stroke:#000000;stroke-width:1;stroke-linecap:round;stroke-linejoin:round;stroke-miterlimit:4;stroke-opacity:1;stroke-dasharray:none;stroke-dashoffset:0"
     id="path4055"
     sodipodi:cx="272.29602"
     sodipodi:cy="545.56775"
     sodipodi:rx="10.546678"
     sodipodi:ry="10.546678"
     d="m 282.8427,545.56775 a 10.546678,10.546678 0 1 1 -21.09336,0 10.546678,10.546678 0 1 1 21.09336,0 z"
     transform="translate(-227.79661,-502.37287)" />
  <path
     style="fill:none;stroke:#000000;stroke-width:1px;stroke-linecap:butt;stroke-linejoin:miter;stroke-opacity:1"
     d="m 55.59322,43.389786 c 94.931,-6.7702 176.24892,-1.5892 235.93155,-4.0837 34.78164,-1.4537 56.08694,-13.137 85.28129,-2.024 14.21548,5.4112 20.49504,18.401 28.53396,31.223 23.86483,38.064204 58.92931,69.516704 65.16846,82.681404"
     id="path4567"
     inkscape:connector-curvature="0"
     sodipodi:nodetypes="csssc" />
  <text
     xml:space="preserve"
     style="font-size:20px;font-style:normal;font-variant:normal;font-weight:normal;font-stretch:normal;line-height:125%;letter-spacing:0px;word-spacing:0px;fill:#000000;fill-opacity:1;stroke:none;font-family:DejaVu Sans Mono;-inkscape-font-specification:DejaVu Sans Mono"
     x="10.847463"
     y="73.8983"
     id="text4569"
     sodipodi:linespacing="125%"><tspan
       sodipodi:role="line"
       id="tspan4571"
       x="10.847463"
       y="73.8983">common</tspan><tspan
       sodipodi:role="line"
       x="10.847463"
       y="98.8983"
       id="tspan4573">anestor</tspan></text>
  <path
     style="fill:none;stroke:#000000;stroke-width:1px;stroke-linecap:butt;stroke-linejoin:miter;stroke-opacity:1"
     d="m 126.1017,41.355886 c -7.50147,60.926604 75.78371,121.249504 75.9322,121.356004 l -0.67797,0 -1.35593,-1.356"
     id="path4581"
     inkscape:connector-curvature="0"
     sodipodi:nodetypes="cccc" />
  <path
     style="fill:none;stroke:#000000;stroke-width:1px;stroke-linecap:butt;stroke-linejoin:miter;stroke-opacity:1"
     d="m 159.32203,122.71189 c -8.81355,21.0169 -7.45762,21.6949 -7.45762,21.6949"
     id="path4585"
     inkscape:connector-curvature="0" />
  <path
     style="fill:none;stroke:#000000;stroke-width:1px;stroke-linecap:butt;stroke-linejoin:miter;stroke-opacity:1"
     d="m 290.84746,39.999986 2.0339,33.2204 49.49152,63.728804 0.67797,0 0,0 -1.35593,-0.678"
     id="path4589"
     inkscape:connector-curvature="0" />
  <path
     style="fill:none;stroke:#000000;stroke-width:1px;stroke-linecap:butt;stroke-linejoin:miter;stroke-opacity:1"
     d="m 378.98305,39.999986 c -24.40678,32.9472 -25.76271,26.4408 -25.76271,26.4407 7.64687,14.8363 17.00176,30.976 26.44068,38.644104"
     id="path4591"
     inkscape:connector-curvature="0"
     sodipodi:nodetypes="ccc" />
  <path
     style="fill:none;stroke:#000000;stroke-width:1px;stroke-linecap:butt;stroke-linejoin:miter;stroke-opacity:1"
     d="m 304.40678,88.813586 c -8.81356,16.949104 -8.13559,16.271204 -8.13559,16.271204 l 4.74576,12.8813 0.67797,0"
     id="path4593"
     inkscape:connector-curvature="0" />
  <path
     style="fill:none;stroke:#000000;stroke-width:1px;stroke-linecap:butt;stroke-linejoin:miter;stroke-opacity:1"
     d="m 324.0678,115.93219 c -2.0339,20.339 -2.0339,20.339 -2.0339,20.339"
     id="path4595"
     inkscape:connector-curvature="0" />
  <path
     style="fill:none;stroke:#000000;stroke-width:1px;stroke-linecap:butt;stroke-linejoin:miter;stroke-opacity:1"
     d="m 408.13559,71.186486 c 35.25424,-3.3899 35.25424,-3.3899 35.25424,-3.3899 l 21.69492,21.017"
     id="path4597"
     inkscape:connector-curvature="0" />
  <path
     style="fill:none;stroke:#000000;stroke-width:1px;stroke-linecap:butt;stroke-linejoin:miter;stroke-opacity:1"
     d="m 452.20339,128.81359 c -1.35594,25.0847 -0.67797,27.1186 -0.67797,27.1186 l -5.42372,6.1017 2.03389,0.678"
     id="path4599"
     inkscape:connector-curvature="0"
     sodipodi:nodetypes="cccc" />
  <path
     style="fill:none;stroke:#000000;stroke-width:1px;stroke-linecap:butt;stroke-linejoin:miter;stroke-opacity:1"
     d="m 452.20339,155.93219 c 11.52542,16.9492 10.84746,14.9153 10.84746,14.9153 l 0,0 -0.67797,0"
     id="path4601"
     inkscape:connector-curvature="0"
     sodipodi:nodetypes="cccc" />
  <path
     style="fill:none;stroke:#000000;stroke-width:1px;stroke-linecap:butt;stroke-linejoin:miter;stroke-opacity:1"
     d="m 206.77966,39.321986 c -0.67796,33.2204 -0.67796,33.2204 -0.67796,33.2204 l 40,60.339004 -10.84746,19.661 1.35593,-0.678 0,-1.3559"
     id="path4603"
     inkscape:connector-curvature="0" />
  <path
     style="fill:none;stroke:#000000;stroke-width:1px;stroke-linecap:butt;stroke-linejoin:miter;stroke-opacity:1"
     d="m 245.42373,132.20339 c 40.67797,30.5085 41.35593,30.5085 41.35593,30.5085"
     id="path4605"
     inkscape:connector-curvature="0" />
  <path
     style="fill:none;stroke:#000000;stroke-width:1px;stroke-linecap:butt;stroke-linejoin:miter;stroke-opacity:1"
     d="m 212.88136,82.033886 c -14.23729,23.050904 -14.23729,23.728804 -14.23729,23.728804 l 25.08474,33.2204 0,0 0,0"
     id="path4607"
     inkscape:connector-curvature="0" />
  <path
     style="fill:none;stroke:#000000;stroke-width:1px;stroke-linecap:butt;stroke-linejoin:miter;stroke-opacity:1"
     d="m 433.22034,105.76269 c -12.88136,31.1865 -12.88136,31.1865 -12.88136,31.1865 l 14.91526,20.339 0,0 0,0"
     id="path4609"
     inkscape:connector-curvature="0" />
  <path
     style="fill:none;stroke:#000000;stroke-width:1px;stroke-linecap:butt;stroke-linejoin:miter;stroke-opacity:1"
     d="M 421.69492,134.23729 C 400,145.08479 400,145.08479 400,145.08479"
     id="path4611"
     inkscape:connector-curvature="0" />
</svg>
